ISO-10303-21;
HEADER;
/* Generated by software containing ST-Developer
 * from STEP Tools, Inc. (www.steptools.com) 
 */

FILE_DESCRIPTION(
/* description */ ('KiCad electronic assembly'),
/* implementation_level */ '2;1');

FILE_NAME(
/* name */ 'bottom.step',
/* time_stamp */ '2026-09-20T15:54:27+02:00',
/* author */ (''),
/* organization */ (''),
/* preprocessor_version */ 'ST-DEVELOPER v20.1',
/* originating_system */ 'Autodesk Translation Framework v15.8.0.0',
/* authorisation */ '');

FILE_SCHEMA (('AUTOMOTIVE_DESIGN { 1 0 10303 214 3 1 1 }'));
ENDSEC;

DATA;
#10=MECHANICAL_DESIGN_GEOMETRIC_PRESENTATION_REPRESENTATION('',(#13),#2256);
#11=SHAPE_REPRESENTATION_RELATIONSHIP('SRR','None',#2262,#12);
#12=ADVANCED_BREP_SHAPE_REPRESENTATION('',(#14),#2255);
#13=STYLED_ITEM('',(#2271),#14);
#14=MANIFOLD_SOLID_BREP('Bry\X2\0142\X0\a1',#1399);
#15=FACE_BOUND('',#147,.T.);
#16=FACE_BOUND('',#148,.T.);
#17=FACE_BOUND('',#149,.T.);
#18=FACE_BOUND('',#150,.T.);
#19=FACE_BOUND('',#166,.T.);
#20=FACE_BOUND('',#179,.T.);
#21=FACE_BOUND('',#182,.T.);
#22=FACE_BOUND('',#186,.T.);
#23=FACE_BOUND('',#203,.T.);
#24=FACE_BOUND('',#204,.T.);
#25=FACE_BOUND('',#215,.T.);
#26=CIRCLE('',#1403,2.35);
#27=CIRCLE('',#1404,2.35);
#28=CIRCLE('',#1407,2.35);
#29=CIRCLE('',#1408,2.35);
#30=CIRCLE('',#1411,2.35);
#31=CIRCLE('',#1412,2.35);
#32=CIRCLE('',#1415,2.35);
#33=CIRCLE('',#1416,2.35);
#34=CIRCLE('',#1431,3.3);
#35=CIRCLE('',#1432,3.3);
#36=CIRCLE('',#1435,3.3);
#37=CIRCLE('',#1436,3.3);
#38=CIRCLE('',#1444,3.3);
#39=CIRCLE('',#1446,3.3);
#40=CIRCLE('',#1451,3.3);
#41=CIRCLE('',#1452,3.3);
#42=CIRCLE('',#1479,1.25);
#43=CIRCLE('',#1481,1.25);
#44=CIRCLE('',#1483,1.25);
#45=CIRCLE('',#1484,1.25);
#46=CYLINDRICAL_SURFACE('',#1402,2.35);
#47=CYLINDRICAL_SURFACE('',#1406,2.35);
#48=CYLINDRICAL_SURFACE('',#1410,2.35);
#49=CYLINDRICAL_SURFACE('',#1414,2.35);
#50=CYLINDRICAL_SURFACE('',#1430,3.3);
#51=CYLINDRICAL_SURFACE('',#1434,3.3);
#52=CYLINDRICAL_SURFACE('',#1445,3.3);
#53=CYLINDRICAL_SURFACE('',#1450,3.3);
#54=CYLINDRICAL_SURFACE('',#1489,1.25);
#55=CYLINDRICAL_SURFACE('',#1490,1.25);
#56=FACE_OUTER_BOUND('',#131,.T.);
#57=FACE_OUTER_BOUND('',#132,.T.);
#58=FACE_OUTER_BOUND('',#133,.T.);
#59=FACE_OUTER_BOUND('',#134,.T.);
#60=FACE_OUTER_BOUND('',#135,.T.);
#61=FACE_OUTER_BOUND('',#136,.T.);
#62=FACE_OUTER_BOUND('',#137,.T.);
#63=FACE_OUTER_BOUND('',#138,.T.);
#64=FACE_OUTER_BOUND('',#139,.T.);
#65=FACE_OUTER_BOUND('',#140,.T.);
#66=FACE_OUTER_BOUND('',#141,.T.);
#67=FACE_OUTER_BOUND('',#142,.T.);
#68=FACE_OUTER_BOUND('',#143,.T.);
#69=FACE_OUTER_BOUND('',#144,.T.);
#70=FACE_OUTER_BOUND('',#145,.T.);
#71=FACE_OUTER_BOUND('',#146,.T.);
#72=FACE_OUTER_BOUND('',#151,.T.);
#73=FACE_OUTER_BOUND('',#152,.T.);
#74=FACE_OUTER_BOUND('',#153,.T.);
#75=FACE_OUTER_BOUND('',#154,.T.);
#76=FACE_OUTER_BOUND('',#155,.T.);
#77=FACE_OUTER_BOUND('',#156,.T.);
#78=FACE_OUTER_BOUND('',#157,.T.);
#79=FACE_OUTER_BOUND('',#158,.T.);
#80=FACE_OUTER_BOUND('',#159,.T.);
#81=FACE_OUTER_BOUND('',#160,.T.);
#82=FACE_OUTER_BOUND('',#161,.T.);
#83=FACE_OUTER_BOUND('',#162,.T.);
#84=FACE_OUTER_BOUND('',#163,.T.);
#85=FACE_OUTER_BOUND('',#164,.T.);
#86=FACE_OUTER_BOUND('',#165,.T.);
#87=FACE_OUTER_BOUND('',#167,.T.);
#88=FACE_OUTER_BOUND('',#168,.T.);
#89=FACE_OUTER_BOUND('',#169,.T.);
#90=FACE_OUTER_BOUND('',#170,.T.);
#91=FACE_OUTER_BOUND('',#171,.T.);
#92=FACE_OUTER_BOUND('',#172,.T.);
#93=FACE_OUTER_BOUND('',#173,.T.);
#94=FACE_OUTER_BOUND('',#174,.T.);
#95=FACE_OUTER_BOUND('',#175,.T.);
#96=FACE_OUTER_BOUND('',#176,.T.);
#97=FACE_OUTER_BOUND('',#177,.T.);
#98=FACE_OUTER_BOUND('',#178,.T.);
#99=FACE_OUTER_BOUND('',#180,.T.);
#100=FACE_OUTER_BOUND('',#181,.T.);
#101=FACE_OUTER_BOUND('',#183,.T.);
#102=FACE_OUTER_BOUND('',#184,.T.);
#103=FACE_OUTER_BOUND('',#185,.T.);
#104=FACE_OUTER_BOUND('',#187,.T.);
#105=FACE_OUTER_BOUND('',#188,.T.);
#106=FACE_OUTER_BOUND('',#189,.T.);
#107=FACE_OUTER_BOUND('',#190,.T.);
#108=FACE_OUTER_BOUND('',#191,.T.);
#109=FACE_OUTER_BOUND('',#192,.T.);
#110=FACE_OUTER_BOUND('',#193,.T.);
#111=FACE_OUTER_BOUND('',#194,.T.);
#112=FACE_OUTER_BOUND('',#195,.T.);
#113=FACE_OUTER_BOUND('',#196,.T.);
#114=FACE_OUTER_BOUND('',#197,.T.);
#115=FACE_OUTER_BOUND('',#198,.T.);
#116=FACE_OUTER_BOUND('',#199,.T.);
#117=FACE_OUTER_BOUND('',#200,.T.);
#118=FACE_OUTER_BOUND('',#201,.T.);
#119=FACE_OUTER_BOUND('',#202,.T.);
#120=FACE_OUTER_BOUND('',#205,.T.);
#121=FACE_OUTER_BOUND('',#206,.T.);
#122=FACE_OUTER_BOUND('',#207,.T.);
#123=FACE_OUTER_BOUND('',#208,.T.);
#124=FACE_OUTER_BOUND('',#209,.T.);
#125=FACE_OUTER_BOUND('',#210,.T.);
#126=FACE_OUTER_BOUND('',#211,.T.);
#127=FACE_OUTER_BOUND('',#212,.T.);
#128=FACE_OUTER_BOUND('',#213,.T.);
#129=FACE_OUTER_BOUND('',#214,.T.);
#130=FACE_OUTER_BOUND('',#216,.T.);
#131=EDGE_LOOP('',(#877,#878,#879,#880,#881,#882));
#132=EDGE_LOOP('',(#883,#884,#885,#886));
#133=EDGE_LOOP('',(#887));
#134=EDGE_LOOP('',(#888,#889,#890,#891));
#135=EDGE_LOOP('',(#892));
#136=EDGE_LOOP('',(#893,#894,#895,#896));
#137=EDGE_LOOP('',(#897));
#138=EDGE_LOOP('',(#898,#899,#900,#901));
#139=EDGE_LOOP('',(#902));
#140=EDGE_LOOP('',(#903,#904,#905,#906));
#141=EDGE_LOOP('',(#907,#908,#909,#910));
#142=EDGE_LOOP('',(#911,#912,#913,#914,#915,#916,#917,#918));
#143=EDGE_LOOP('',(#919,#920,#921,#922));
#144=EDGE_LOOP('',(#923,#924,#925,#926));
#145=EDGE_LOOP('',(#927,#928,#929,#930));
#146=EDGE_LOOP('',(#931,#932,#933,#934,#935,#936,#937,#938,#939,#940,#941,
#942,#943,#944,#945,#946,#947,#948,#949,#950));
#147=EDGE_LOOP('',(#951));
#148=EDGE_LOOP('',(#952));
#149=EDGE_LOOP('',(#953));
#150=EDGE_LOOP('',(#954));
#151=EDGE_LOOP('',(#955,#956,#957,#958,#959,#960));
#152=EDGE_LOOP('',(#961,#962,#963,#964,#965,#966,#967,#968));
#153=EDGE_LOOP('',(#969,#970,#971,#972,#973,#974,#975,#976,#977,#978,#979,
#980,#981,#982,#983,#984));
#154=EDGE_LOOP('',(#985,#986,#987,#988,#989,#990));
#155=EDGE_LOOP('',(#991,#992,#993,#994,#995,#996,#997,#998,#999,#1000,#1001,
#1002));
#156=EDGE_LOOP('',(#1003,#1004,#1005,#1006));
#157=EDGE_LOOP('',(#1007));
#158=EDGE_LOOP('',(#1008,#1009,#1010,#1011));
#159=EDGE_LOOP('',(#1012));
#160=EDGE_LOOP('',(#1013,#1014,#1015,#1016,#1017,#1018));
#161=EDGE_LOOP('',(#1019,#1020,#1021,#1022));
#162=EDGE_LOOP('',(#1023,#1024,#1025,#1026,#1027,#1028));
#163=EDGE_LOOP('',(#1029,#1030,#1031,#1032));
#164=EDGE_LOOP('',(#1033,#1034,#1035,#1036,#1037));
#165=EDGE_LOOP('',(#1038,#1039,#1040,#1041,#1042,#1043));
#166=EDGE_LOOP('',(#1044));
#167=EDGE_LOOP('',(#1045,#1046,#1047,#1048));
#168=EDGE_LOOP('',(#1049));
#169=EDGE_LOOP('',(#1050,#1051,#1052,#1053));
#170=EDGE_LOOP('',(#1054,#1055,#1056,#1057,#1058,#1059,#1060,#1061,#1062,
#1063,#1064,#1065,#1066));
#171=EDGE_LOOP('',(#1067,#1068,#1069,#1070));
#172=EDGE_LOOP('',(#1071));
#173=EDGE_LOOP('',(#1072,#1073,#1074,#1075));
#174=EDGE_LOOP('',(#1076,#1077,#1078,#1079));
#175=EDGE_LOOP('',(#1080,#1081,#1082,#1083));
#176=EDGE_LOOP('',(#1084,#1085,#1086,#1087));
#177=EDGE_LOOP('',(#1088,#1089,#1090,#1091,#1092,#1093));
#178=EDGE_LOOP('',(#1094,#1095,#1096,#1097));
#179=EDGE_LOOP('',(#1098));
#180=EDGE_LOOP('',(#1099,#1100,#1101,#1102));
#181=EDGE_LOOP('',(#1103,#1104,#1105,#1106));
#182=EDGE_LOOP('',(#1107));
#183=EDGE_LOOP('',(#1108,#1109,#1110,#1111));
#184=EDGE_LOOP('',(#1112,#1113,#1114,#1115,#1116,#1117));
#185=EDGE_LOOP('',(#1118,#1119,#1120,#1121));
#186=EDGE_LOOP('',(#1122));
#187=EDGE_LOOP('',(#1123,#1124,#1125,#1126));
#188=EDGE_LOOP('',(#1127,#1128,#1129,#1130));
#189=EDGE_LOOP('',(#1131,#1132,#1133,#1134,#1135,#1136,#1137,#1138));
#190=EDGE_LOOP('',(#1139,#1140,#1141,#1142,#1143,#1144,#1145,#1146));
#191=EDGE_LOOP('',(#1147,#1148,#1149,#1150,#1151,#1152));
#192=EDGE_LOOP('',(#1153,#1154,#1155,#1156));
#193=EDGE_LOOP('',(#1157,#1158,#1159,#1160));
#194=EDGE_LOOP('',(#1161,#1162,#1163,#1164,#1165,#1166,#1167,#1168));
#195=EDGE_LOOP('',(#1169,#1170,#1171,#1172,#1173,#1174));
#196=EDGE_LOOP('',(#1175,#1176,#1177,#1178,#1179,#1180,#1181,#1182));
#197=EDGE_LOOP('',(#1183,#1184,#1185,#1186));
#198=EDGE_LOOP('',(#1187,#1188,#1189,#1190));
#199=EDGE_LOOP('',(#1191,#1192,#1193,#1194));
#200=EDGE_LOOP('',(#1195));
#201=EDGE_LOOP('',(#1196));
#202=EDGE_LOOP('',(#1197,#1198,#1199,#1200,#1201,#1202));
#203=EDGE_LOOP('',(#1203));
#204=EDGE_LOOP('',(#1204));
#205=EDGE_LOOP('',(#1205,#1206,#1207,#1208));
#206=EDGE_LOOP('',(#1209,#1210,#1211,#1212));
#207=EDGE_LOOP('',(#1213,#1214,#1215,#1216));
#208=EDGE_LOOP('',(#1217,#1218,#1219,#1220,#1221,#1222));
#209=EDGE_LOOP('',(#1223,#1224,#1225,#1226));
#210=EDGE_LOOP('',(#1227,#1228,#1229,#1230));
#211=EDGE_LOOP('',(#1231,#1232,#1233,#1234,#1235,#1236,#1237,#1238));
#212=EDGE_LOOP('',(#1239,#1240,#1241,#1242));
#213=EDGE_LOOP('',(#1243,#1244,#1245,#1246));
#214=EDGE_LOOP('',(#1247,#1248,#1249,#1250));
#215=EDGE_LOOP('',(#1251,#1252,#1253,#1254));
#216=EDGE_LOOP('',(#1255,#1256,#1257,#1258));
#217=LINE('',#1863,#388);
#218=LINE('',#1865,#389);
#219=LINE('',#1867,#390);
#220=LINE('',#1869,#391);
#221=LINE('',#1871,#392);
#222=LINE('',#1872,#393);
#223=LINE('',#1877,#394);
#224=LINE('',#1884,#395);
#225=LINE('',#1891,#396);
#226=LINE('',#1898,#397);
#227=LINE('',#1904,#398);
#228=LINE('',#1906,#399);
#229=LINE('',#1908,#400);
#230=LINE('',#1909,#401);
#231=LINE('',#1913,#402);
#232=LINE('',#1915,#403);
#233=LINE('',#1917,#404);
#234=LINE('',#1918,#405);
#235=LINE('',#1922,#406);
#236=LINE('',#1924,#407);
#237=LINE('',#1926,#408);
#238=LINE('',#1927,#409);
#239=LINE('',#1928,#410);
#240=LINE('',#1929,#411);
#241=LINE('',#1933,#412);
#242=LINE('',#1934,#413);
#243=LINE('',#1935,#414);
#244=LINE('',#1939,#415);
#245=LINE('',#1940,#416);
#246=LINE('',#1941,#417);
#247=LINE('',#1943,#418);
#248=LINE('',#1946,#419);
#249=LINE('',#1947,#420);
#250=LINE('',#1948,#421);
#251=LINE('',#1950,#422);
#252=LINE('',#1952,#423);
#253=LINE('',#1954,#424);
#254=LINE('',#1956,#425);
#255=LINE('',#1958,#426);
#256=LINE('',#1960,#427);
#257=LINE('',#1962,#428);
#258=LINE('',#1964,#429);
#259=LINE('',#1966,#430);
#260=LINE('',#1967,#431);
#261=LINE('',#1971,#432);
#262=LINE('',#1973,#433);
#263=LINE('',#1975,#434);
#264=LINE('',#1977,#435);
#265=LINE('',#1979,#436);
#266=LINE('',#1980,#437);
#267=LINE('',#1982,#438);
#268=LINE('',#1984,#439);
#269=LINE('',#1986,#440);
#270=LINE('',#1988,#441);
#271=LINE('',#1989,#442);
#272=LINE('',#1991,#443);
#273=LINE('',#1993,#444);
#274=LINE('',#1995,#445);
#275=LINE('',#1997,#446);
#276=LINE('',#1999,#447);
#277=LINE('',#2001,#448);
#278=LINE('',#2003,#449);
#279=LINE('',#2005,#450);
#280=LINE('',#2007,#451);
#281=LINE('',#2009,#452);
#282=LINE('',#2011,#453);
#283=LINE('',#2013,#454);
#284=LINE('',#2014,#455);
#285=LINE('',#2017,#456);
#286=LINE('',#2019,#457);
#287=LINE('',#2021,#458);
#288=LINE('',#2023,#459);
#289=LINE('',#2024,#460);
#290=LINE('',#2026,#461);
#291=LINE('',#2028,#462);
#292=LINE('',#2030,#463);
#293=LINE('',#2031,#464);
#294=LINE('',#2036,#465);
#295=LINE('',#2043,#466);
#296=LINE('',#2048,#467);
#297=LINE('',#2050,#468);
#298=LINE('',#2051,#469);
#299=LINE('',#2054,#470);
#300=LINE('',#2056,#471);
#301=LINE('',#2057,#472);
#302=LINE('',#2060,#473);
#303=LINE('',#2062,#474);
#304=LINE('',#2063,#475);
#305=LINE('',#2066,#476);
#306=LINE('',#2067,#477);
#307=LINE('',#2070,#478);
#308=LINE('',#2072,#479);
#309=LINE('',#2073,#480);
#310=LINE('',#2076,#481);
#311=LINE('',#2078,#482);
#312=LINE('',#2079,#483);
#313=LINE('',#2084,#484);
#314=LINE('',#2090,#485);
#315=LINE('',#2091,#486);
#316=LINE('',#2092,#487);
#317=LINE('',#2095,#488);
#318=LINE('',#2097,#489);
#319=LINE('',#2099,#490);
#320=LINE('',#2100,#491);
#321=LINE('',#2102,#492);
#322=LINE('',#2103,#493);
#323=LINE('',#2108,#494);
#324=LINE('',#2113,#495);
#325=LINE('',#2115,#496);
#326=LINE('',#2116,#497);
#327=LINE('',#2119,#498);
#328=LINE('',#2120,#499);
#329=LINE('',#2122,#500);
#330=LINE('',#2126,#501);
#331=LINE('',#2128,#502);
#332=LINE('',#2129,#503);
#333=LINE('',#2132,#504);
#334=LINE('',#2134,#505);
#335=LINE('',#2135,#506);
#336=LINE('',#2137,#507);
#337=LINE('',#2138,#508);
#338=LINE('',#2141,#509);
#339=LINE('',#2142,#510);
#340=LINE('',#2145,#511);
#341=LINE('',#2146,#512);
#342=LINE('',#2148,#513);
#343=LINE('',#2151,#514);
#344=LINE('',#2152,#515);
#345=LINE('',#2154,#516);
#346=LINE('',#2156,#517);
#347=LINE('',#2158,#518);
#348=LINE('',#2160,#519);
#349=LINE('',#2162,#520);
#350=LINE('',#2164,#521);
#351=LINE('',#2166,#522);
#352=LINE('',#2167,#523);
#353=LINE('',#2174,#524);
#354=LINE('',#2176,#525);
#355=LINE('',#2178,#526);
#356=LINE('',#2180,#527);
#357=LINE('',#2181,#528);
#358=LINE('',#2184,#529);
#359=LINE('',#2186,#530);
#360=LINE('',#2188,#531);
#361=LINE('',#2189,#532);
#362=LINE('',#2192,#533);
#363=LINE('',#2194,#534);
#364=LINE('',#2196,#535);
#365=LINE('',#2198,#536);
#366=LINE('',#2200,#537);
#367=LINE('',#2201,#538);
#368=LINE('',#2204,#539);
#369=LINE('',#2205,#540);
#370=LINE('',#2208,#541);
#371=LINE('',#2209,#542);
#372=LINE('',#2211,#543);
#373=LINE('',#2219,#544);
#374=LINE('',#2221,#545);
#375=LINE('',#2223,#546);
#376=LINE('',#2224,#547);
#377=LINE('',#2230,#548);
#378=LINE('',#2232,#549);
#379=LINE('',#2235,#550);
#380=LINE('',#2237,#551);
#381=LINE('',#2238,#552);
#382=LINE('',#2240,#553);
#383=LINE('',#2242,#554);
#384=LINE('',#2244,#555);
#385=LINE('',#2246,#556);
#386=LINE('',#2247,#557);
#387=LINE('',#2250,#558);
#388=VECTOR('',#1500,10.);
#389=VECTOR('',#1501,10.);
#390=VECTOR('',#1502,10.);
#391=VECTOR('',#1503,10.);
#392=VECTOR('',#1504,10.);
#393=VECTOR('',#1505,10.);
#394=VECTOR('',#1510,2.35);
#395=VECTOR('',#1519,2.35);
#396=VECTOR('',#1528,2.35);
#397=VECTOR('',#1537,2.35);
#398=VECTOR('',#1544,10.);
#399=VECTOR('',#1545,10.);
#400=VECTOR('',#1546,10.);
#401=VECTOR('',#1547,10.);
#402=VECTOR('',#1550,10.);
#403=VECTOR('',#1551,10.);
#404=VECTOR('',#1552,10.);
#405=VECTOR('',#1553,10.);
#406=VECTOR('',#1556,10.);
#407=VECTOR('',#1557,10.);
#408=VECTOR('',#1558,10.);
#409=VECTOR('',#1559,10.);
#410=VECTOR('',#1560,10.);
#411=VECTOR('',#1561,10.);
#412=VECTOR('',#1564,10.);
#413=VECTOR('',#1565,10.);
#414=VECTOR('',#1566,10.);
#415=VECTOR('',#1569,10.);
#416=VECTOR('',#1570,10.);
#417=VECTOR('',#1571,10.);
#418=VECTOR('',#1574,10.);
#419=VECTOR('',#1577,10.);
#420=VECTOR('',#1578,10.);
#421=VECTOR('',#1579,10.);
#422=VECTOR('',#1580,10.);
#423=VECTOR('',#1581,10.);
#424=VECTOR('',#1582,10.);
#425=VECTOR('',#1583,10.);
#426=VECTOR('',#1584,10.);
#427=VECTOR('',#1585,10.);
#428=VECTOR('',#1586,10.);
#429=VECTOR('',#1587,10.);
#430=VECTOR('',#1588,10.);
#431=VECTOR('',#1589,10.);
#432=VECTOR('',#1592,10.);
#433=VECTOR('',#1593,10.);
#434=VECTOR('',#1594,10.);
#435=VECTOR('',#1595,10.);
#436=VECTOR('',#1596,10.);
#437=VECTOR('',#1597,10.);
#438=VECTOR('',#1600,10.);
#439=VECTOR('',#1601,10.);
#440=VECTOR('',#1602,10.);
#441=VECTOR('',#1603,10.);
#442=VECTOR('',#1604,10.);
#443=VECTOR('',#1607,10.);
#444=VECTOR('',#1608,10.);
#445=VECTOR('',#1609,10.);
#446=VECTOR('',#1610,10.);
#447=VECTOR('',#1611,10.);
#448=VECTOR('',#1612,10.);
#449=VECTOR('',#1613,10.);
#450=VECTOR('',#1614,10.);
#451=VECTOR('',#1615,10.);
#452=VECTOR('',#1616,10.);
#453=VECTOR('',#1617,10.);
#454=VECTOR('',#1618,10.);
#455=VECTOR('',#1619,10.);
#456=VECTOR('',#1622,10.);
#457=VECTOR('',#1623,10.);
#458=VECTOR('',#1624,10.);
#459=VECTOR('',#1625,10.);
#460=VECTOR('',#1626,10.);
#461=VECTOR('',#1629,10.);
#462=VECTOR('',#1630,10.);
#463=VECTOR('',#1631,10.);
#464=VECTOR('',#1632,10.);
#465=VECTOR('',#1637,3.3);
#466=VECTOR('',#1646,3.3);
#467=VECTOR('',#1653,10.);
#468=VECTOR('',#1654,10.);
#469=VECTOR('',#1655,10.);
#470=VECTOR('',#1658,10.);
#471=VECTOR('',#1659,10.);
#472=VECTOR('',#1660,10.);
#473=VECTOR('',#1663,10.);
#474=VECTOR('',#1664,10.);
#475=VECTOR('',#1665,10.);
#476=VECTOR('',#1668,10.);
#477=VECTOR('',#1669,10.);
#478=VECTOR('',#1672,10.);
#479=VECTOR('',#1673,10.);
#480=VECTOR('',#1674,10.);
#481=VECTOR('',#1677,10.);
#482=VECTOR('',#1678,10.);
#483=VECTOR('',#1679,10.);
#484=VECTOR('',#1684,3.3);
#485=VECTOR('',#1691,10.);
#486=VECTOR('',#1692,10.);
#487=VECTOR('',#1693,10.);
#488=VECTOR('',#1696,10.);
#489=VECTOR('',#1697,10.);
#490=VECTOR('',#1698,10.);
#491=VECTOR('',#1699,10.);
#492=VECTOR('',#1700,10.);
#493=VECTOR('',#1701,10.);
#494=VECTOR('',#1706,3.3);
#495=VECTOR('',#1713,10.);
#496=VECTOR('',#1714,10.);
#497=VECTOR('',#1715,10.);
#498=VECTOR('',#1718,10.);
#499=VECTOR('',#1719,10.);
#500=VECTOR('',#1722,10.);
#501=VECTOR('',#1727,10.);
#502=VECTOR('',#1728,10.);
#503=VECTOR('',#1729,10.);
#504=VECTOR('',#1732,10.);
#505=VECTOR('',#1733,10.);
#506=VECTOR('',#1734,10.);
#507=VECTOR('',#1737,10.);
#508=VECTOR('',#1738,10.);
#509=VECTOR('',#1741,10.);
#510=VECTOR('',#1742,10.);
#511=VECTOR('',#1745,10.);
#512=VECTOR('',#1746,10.);
#513=VECTOR('',#1749,10.);
#514=VECTOR('',#1752,10.);
#515=VECTOR('',#1753,10.);
#516=VECTOR('',#1756,10.);
#517=VECTOR('',#1759,10.);
#518=VECTOR('',#1762,10.);
#519=VECTOR('',#1763,10.);
#520=VECTOR('',#1764,10.);
#521=VECTOR('',#1765,10.);
#522=VECTOR('',#1766,10.);
#523=VECTOR('',#1767,10.);
#524=VECTOR('',#1778,10.);
#525=VECTOR('',#1779,10.);
#526=VECTOR('',#1780,10.);
#527=VECTOR('',#1781,10.);
#528=VECTOR('',#1782,10.);
#529=VECTOR('',#1785,10.);
#530=VECTOR('',#1786,10.);
#531=VECTOR('',#1787,10.);
#532=VECTOR('',#1788,10.);
#533=VECTOR('',#1791,10.);
#534=VECTOR('',#1792,10.);
#535=VECTOR('',#1793,10.);
#536=VECTOR('',#1794,10.);
#537=VECTOR('',#1795,10.);
#538=VECTOR('',#1796,10.);
#539=VECTOR('',#1799,10.);
#540=VECTOR('',#1800,10.);
#541=VECTOR('',#1803,10.);
#542=VECTOR('',#1804,10.);
#543=VECTOR('',#1807,10.);
#544=VECTOR('',#1818,10.);
#545=VECTOR('',#1819,10.);
#546=VECTOR('',#1820,10.);
#547=VECTOR('',#1821,10.);
#548=VECTOR('',#1828,10.);
#549=VECTOR('',#1831,10.);
#550=VECTOR('',#1836,10.);
#551=VECTOR('',#1837,10.);
#552=VECTOR('',#1838,10.);
#553=VECTOR('',#1841,1.25);
#554=VECTOR('',#1844,1.25);
#555=VECTOR('',#1847,10.);
#556=VECTOR('',#1848,10.);
#557=VECTOR('',#1849,10.);
#558=VECTOR('',#1854,10.);
#559=VERTEX_POINT('',#1861);
#560=VERTEX_POINT('',#1862);
#561=VERTEX_POINT('',#1864);
#562=VERTEX_POINT('',#1866);
#563=VERTEX_POINT('',#1868);
#564=VERTEX_POINT('',#1870);
#565=VERTEX_POINT('',#1874);
#566=VERTEX_POINT('',#1876);
#567=VERTEX_POINT('',#1881);
#568=VERTEX_POINT('',#1883);
#569=VERTEX_POINT('',#1888);
#570=VERTEX_POINT('',#1890);
#571=VERTEX_POINT('',#1895);
#572=VERTEX_POINT('',#1897);
#573=VERTEX_POINT('',#1902);
#574=VERTEX_POINT('',#1903);
#575=VERTEX_POINT('',#1905);
#576=VERTEX_POINT('',#1907);
#577=VERTEX_POINT('',#1911);
#578=VERTEX_POINT('',#1912);
#579=VERTEX_POINT('',#1914);
#580=VERTEX_POINT('',#1916);
#581=VERTEX_POINT('',#1920);
#582=VERTEX_POINT('',#1921);
#583=VERTEX_POINT('',#1923);
#584=VERTEX_POINT('',#1925);
#585=VERTEX_POINT('',#1931);
#586=VERTEX_POINT('',#1932);
#587=VERTEX_POINT('',#1937);
#588=VERTEX_POINT('',#1938);
#589=VERTEX_POINT('',#1945);
#590=VERTEX_POINT('',#1949);
#591=VERTEX_POINT('',#1951);
#592=VERTEX_POINT('',#1953);
#593=VERTEX_POINT('',#1955);
#594=VERTEX_POINT('',#1957);
#595=VERTEX_POINT('',#1959);
#596=VERTEX_POINT('',#1961);
#597=VERTEX_POINT('',#1963);
#598=VERTEX_POINT('',#1965);
#599=VERTEX_POINT('',#1969);
#600=VERTEX_POINT('',#1970);
#601=VERTEX_POINT('',#1972);
#602=VERTEX_POINT('',#1974);
#603=VERTEX_POINT('',#1976);
#604=VERTEX_POINT('',#1978);
#605=VERTEX_POINT('',#1983);
#606=VERTEX_POINT('',#1985);
#607=VERTEX_POINT('',#1987);
#608=VERTEX_POINT('',#1992);
#609=VERTEX_POINT('',#1994);
#610=VERTEX_POINT('',#1996);
#611=VERTEX_POINT('',#1998);
#612=VERTEX_POINT('',#2000);
#613=VERTEX_POINT('',#2002);
#614=VERTEX_POINT('',#2004);
#615=VERTEX_POINT('',#2006);
#616=VERTEX_POINT('',#2008);
#617=VERTEX_POINT('',#2010);
#618=VERTEX_POINT('',#2012);
#619=VERTEX_POINT('',#2016);
#620=VERTEX_POINT('',#2018);
#621=VERTEX_POINT('',#2020);
#622=VERTEX_POINT('',#2022);
#623=VERTEX_POINT('',#2027);
#624=VERTEX_POINT('',#2029);
#625=VERTEX_POINT('',#2033);
#626=VERTEX_POINT('',#2035);
#627=VERTEX_POINT('',#2040);
#628=VERTEX_POINT('',#2042);
#629=VERTEX_POINT('',#2047);
#630=VERTEX_POINT('',#2049);
#631=VERTEX_POINT('',#2053);
#632=VERTEX_POINT('',#2055);
#633=VERTEX_POINT('',#2059);
#634=VERTEX_POINT('',#2061);
#635=VERTEX_POINT('',#2065);
#636=VERTEX_POINT('',#2069);
#637=VERTEX_POINT('',#2071);
#638=VERTEX_POINT('',#2075);
#639=VERTEX_POINT('',#2077);
#640=VERTEX_POINT('',#2080);
#641=VERTEX_POINT('',#2083);
#642=VERTEX_POINT('',#2088);
#643=VERTEX_POINT('',#2089);
#644=VERTEX_POINT('',#2094);
#645=VERTEX_POINT('',#2096);
#646=VERTEX_POINT('',#2098);
#647=VERTEX_POINT('',#2101);
#648=VERTEX_POINT('',#2105);
#649=VERTEX_POINT('',#2107);
#650=VERTEX_POINT('',#2112);
#651=VERTEX_POINT('',#2114);
#652=VERTEX_POINT('',#2118);
#653=VERTEX_POINT('',#2125);
#654=VERTEX_POINT('',#2127);
#655=VERTEX_POINT('',#2131);
#656=VERTEX_POINT('',#2133);
#657=VERTEX_POINT('',#2140);
#658=VERTEX_POINT('',#2144);
#659=VERTEX_POINT('',#2150);
#660=VERTEX_POINT('',#2159);
#661=VERTEX_POINT('',#2161);
#662=VERTEX_POINT('',#2163);
#663=VERTEX_POINT('',#2165);
#664=VERTEX_POINT('',#2173);
#665=VERTEX_POINT('',#2175);
#666=VERTEX_POINT('',#2177);
#667=VERTEX_POINT('',#2179);
#668=VERTEX_POINT('',#2183);
#669=VERTEX_POINT('',#2185);
#670=VERTEX_POINT('',#2187);
#671=VERTEX_POINT('',#2191);
#672=VERTEX_POINT('',#2193);
#673=VERTEX_POINT('',#2195);
#674=VERTEX_POINT('',#2197);
#675=VERTEX_POINT('',#2199);
#676=VERTEX_POINT('',#2203);
#677=VERTEX_POINT('',#2207);
#678=VERTEX_POINT('',#2213);
#679=VERTEX_POINT('',#2216);
#680=VERTEX_POINT('',#2220);
#681=VERTEX_POINT('',#2222);
#682=VERTEX_POINT('',#2225);
#683=VERTEX_POINT('',#2227);
#684=VERTEX_POINT('',#2236);
#685=VERTEX_POINT('',#2245);
#686=EDGE_CURVE('',#559,#560,#217,.T.);
#687=EDGE_CURVE('',#561,#559,#218,.T.);
#688=EDGE_CURVE('',#562,#561,#219,.T.);
#689=EDGE_CURVE('',#563,#562,#220,.T.);
#690=EDGE_CURVE('',#564,#563,#221,.T.);
#691=EDGE_CURVE('',#560,#564,#222,.T.);
#692=EDGE_CURVE('',#565,#565,#26,.T.);
#693=EDGE_CURVE('',#565,#566,#223,.T.);
#694=EDGE_CURVE('',#566,#566,#27,.T.);
#695=EDGE_CURVE('',#567,#567,#28,.T.);
#696=EDGE_CURVE('',#567,#568,#224,.T.);
#697=EDGE_CURVE('',#568,#568,#29,.T.);
#698=EDGE_CURVE('',#569,#569,#30,.T.);
#699=EDGE_CURVE('',#569,#570,#225,.T.);
#700=EDGE_CURVE('',#570,#570,#31,.T.);
#701=EDGE_CURVE('',#571,#571,#32,.T.);
#702=EDGE_CURVE('',#571,#572,#226,.T.);
#703=EDGE_CURVE('',#572,#572,#33,.T.);
#704=EDGE_CURVE('',#573,#574,#227,.T.);
#705=EDGE_CURVE('',#574,#575,#228,.T.);
#706=EDGE_CURVE('',#575,#576,#229,.T.);
#707=EDGE_CURVE('',#576,#573,#230,.T.);
#708=EDGE_CURVE('',#577,#578,#231,.T.);
#709=EDGE_CURVE('',#578,#579,#232,.T.);
#710=EDGE_CURVE('',#579,#580,#233,.T.);
#711=EDGE_CURVE('',#580,#577,#234,.T.);
#712=EDGE_CURVE('',#581,#582,#235,.T.);
#713=EDGE_CURVE('',#582,#583,#236,.T.);
#714=EDGE_CURVE('',#583,#584,#237,.T.);
#715=EDGE_CURVE('',#584,#580,#238,.T.);
#716=EDGE_CURVE('',#573,#579,#239,.T.);
#717=EDGE_CURVE('',#581,#576,#240,.T.);
#718=EDGE_CURVE('',#585,#586,#241,.T.);
#719=EDGE_CURVE('',#585,#582,#242,.T.);
#720=EDGE_CURVE('',#586,#581,#243,.T.);
#721=EDGE_CURVE('',#587,#588,#244,.T.);
#722=EDGE_CURVE('',#584,#587,#245,.T.);
#723=EDGE_CURVE('',#583,#588,#246,.T.);
#724=EDGE_CURVE('',#588,#585,#247,.T.);
#725=EDGE_CURVE('',#562,#589,#248,.T.);
#726=EDGE_CURVE('',#589,#586,#249,.T.);
#727=EDGE_CURVE('',#577,#575,#250,.T.);
#728=EDGE_CURVE('',#587,#590,#251,.T.);
#729=EDGE_CURVE('',#590,#591,#252,.T.);
#730=EDGE_CURVE('',#591,#592,#253,.T.);
#731=EDGE_CURVE('',#592,#593,#254,.T.);
#732=EDGE_CURVE('',#593,#594,#255,.T.);
#733=EDGE_CURVE('',#594,#595,#256,.T.);
#734=EDGE_CURVE('',#595,#596,#257,.T.);
#735=EDGE_CURVE('',#596,#597,#258,.T.);
#736=EDGE_CURVE('',#597,#598,#259,.T.);
#737=EDGE_CURVE('',#598,#563,#260,.T.);
#738=EDGE_CURVE('',#599,#600,#261,.T.);
#739=EDGE_CURVE('',#601,#599,#262,.T.);
#740=EDGE_CURVE('',#601,#602,#263,.T.);
#741=EDGE_CURVE('',#602,#603,#264,.T.);
#742=EDGE_CURVE('',#603,#604,#265,.T.);
#743=EDGE_CURVE('',#604,#600,#266,.T.);
#744=EDGE_CURVE('',#561,#601,#267,.T.);
#745=EDGE_CURVE('',#599,#605,#268,.T.);
#746=EDGE_CURVE('',#605,#606,#269,.T.);
#747=EDGE_CURVE('',#606,#607,#270,.T.);
#748=EDGE_CURVE('',#607,#589,#271,.T.);
#749=EDGE_CURVE('',#600,#560,#272,.T.);
#750=EDGE_CURVE('',#608,#564,#273,.T.);
#751=EDGE_CURVE('',#608,#609,#274,.T.);
#752=EDGE_CURVE('',#609,#610,#275,.T.);
#753=EDGE_CURVE('',#611,#610,#276,.T.);
#754=EDGE_CURVE('',#611,#612,#277,.T.);
#755=EDGE_CURVE('',#612,#613,#278,.T.);
#756=EDGE_CURVE('',#614,#613,#279,.T.);
#757=EDGE_CURVE('',#614,#615,#280,.T.);
#758=EDGE_CURVE('',#615,#616,#281,.T.);
#759=EDGE_CURVE('',#617,#616,#282,.T.);
#760=EDGE_CURVE('',#617,#618,#283,.T.);
#761=EDGE_CURVE('',#618,#605,#284,.T.);
#762=EDGE_CURVE('',#619,#618,#285,.T.);
#763=EDGE_CURVE('',#620,#617,#286,.T.);
#764=EDGE_CURVE('',#620,#621,#287,.T.);
#765=EDGE_CURVE('',#621,#622,#288,.T.);
#766=EDGE_CURVE('',#622,#619,#289,.T.);
#767=EDGE_CURVE('',#607,#620,#290,.T.);
#768=EDGE_CURVE('',#616,#623,#291,.T.);
#769=EDGE_CURVE('',#623,#624,#292,.T.);
#770=EDGE_CURVE('',#590,#624,#293,.T.);
#771=EDGE_CURVE('',#625,#625,#34,.T.);
#772=EDGE_CURVE('',#625,#626,#294,.T.);
#773=EDGE_CURVE('',#626,#626,#35,.T.);
#774=EDGE_CURVE('',#627,#627,#36,.T.);
#775=EDGE_CURVE('',#627,#628,#295,.T.);
#776=EDGE_CURVE('',#628,#628,#37,.T.);
#777=EDGE_CURVE('',#629,#604,#296,.T.);
#778=EDGE_CURVE('',#629,#630,#297,.T.);
#779=EDGE_CURVE('',#630,#559,#298,.T.);
#780=EDGE_CURVE('',#631,#615,#299,.T.);
#781=EDGE_CURVE('',#632,#614,#300,.T.);
#782=EDGE_CURVE('',#632,#631,#301,.T.);
#783=EDGE_CURVE('',#633,#631,#302,.T.);
#784=EDGE_CURVE('',#634,#633,#303,.T.);
#785=EDGE_CURVE('',#623,#634,#304,.T.);
#786=EDGE_CURVE('',#634,#635,#305,.T.);
#787=EDGE_CURVE('',#624,#635,#306,.T.);
#788=EDGE_CURVE('',#633,#636,#307,.T.);
#789=EDGE_CURVE('',#636,#637,#308,.T.);
#790=EDGE_CURVE('',#635,#637,#309,.T.);
#791=EDGE_CURVE('',#638,#632,#310,.T.);
#792=EDGE_CURVE('',#638,#639,#311,.T.);
#793=EDGE_CURVE('',#639,#636,#312,.T.);
#794=EDGE_CURVE('',#640,#640,#38,.T.);
#795=EDGE_CURVE('',#640,#641,#313,.T.);
#796=EDGE_CURVE('',#641,#641,#39,.T.);
#797=EDGE_CURVE('',#642,#643,#314,.T.);
#798=EDGE_CURVE('',#613,#643,#315,.T.);
#799=EDGE_CURVE('',#612,#642,#316,.T.);
#800=EDGE_CURVE('',#644,#643,#317,.T.);
#801=EDGE_CURVE('',#645,#644,#318,.T.);
#802=EDGE_CURVE('',#645,#646,#319,.T.);
#803=EDGE_CURVE('',#591,#646,#320,.T.);
#804=EDGE_CURVE('',#635,#647,#321,.T.);
#805=EDGE_CURVE('',#647,#638,#322,.T.);
#806=EDGE_CURVE('',#648,#648,#40,.T.);
#807=EDGE_CURVE('',#648,#649,#323,.T.);
#808=EDGE_CURVE('',#649,#649,#41,.T.);
#809=EDGE_CURVE('',#645,#650,#324,.T.);
#810=EDGE_CURVE('',#650,#651,#325,.T.);
#811=EDGE_CURVE('',#646,#651,#326,.T.);
#812=EDGE_CURVE('',#637,#652,#327,.T.);
#813=EDGE_CURVE('',#647,#652,#328,.T.);
#814=EDGE_CURVE('',#652,#639,#329,.T.);
#815=EDGE_CURVE('',#653,#621,#330,.T.);
#816=EDGE_CURVE('',#606,#654,#331,.T.);
#817=EDGE_CURVE('',#654,#653,#332,.T.);
#818=EDGE_CURVE('',#655,#622,#333,.T.);
#819=EDGE_CURVE('',#656,#655,#334,.T.);
#820=EDGE_CURVE('',#656,#619,#335,.T.);
#821=EDGE_CURVE('',#655,#653,#336,.T.);
#822=EDGE_CURVE('',#656,#654,#337,.T.);
#823=EDGE_CURVE('',#657,#603,#338,.T.);
#824=EDGE_CURVE('',#629,#657,#339,.T.);
#825=EDGE_CURVE('',#658,#657,#340,.T.);
#826=EDGE_CURVE('',#658,#630,#341,.T.);
#827=EDGE_CURVE('',#658,#602,#342,.T.);
#828=EDGE_CURVE('',#659,#642,#343,.T.);
#829=EDGE_CURVE('',#644,#659,#344,.T.);
#830=EDGE_CURVE('',#659,#650,#345,.T.);
#831=EDGE_CURVE('',#651,#592,#346,.T.);
#832=EDGE_CURVE('',#593,#611,#347,.T.);
#833=EDGE_CURVE('',#610,#660,#348,.T.);
#834=EDGE_CURVE('',#660,#661,#349,.T.);
#835=EDGE_CURVE('',#661,#662,#350,.T.);
#836=EDGE_CURVE('',#662,#663,#351,.T.);
#837=EDGE_CURVE('',#594,#663,#352,.T.);
#838=EDGE_CURVE('',#598,#664,#353,.T.);
#839=EDGE_CURVE('',#664,#665,#354,.T.);
#840=EDGE_CURVE('',#665,#666,#355,.T.);
#841=EDGE_CURVE('',#666,#667,#356,.T.);
#842=EDGE_CURVE('',#667,#608,#357,.T.);
#843=EDGE_CURVE('',#597,#668,#358,.T.);
#844=EDGE_CURVE('',#669,#668,#359,.T.);
#845=EDGE_CURVE('',#669,#670,#360,.T.);
#846=EDGE_CURVE('',#670,#664,#361,.T.);
#847=EDGE_CURVE('',#596,#671,#362,.T.);
#848=EDGE_CURVE('',#672,#671,#363,.T.);
#849=EDGE_CURVE('',#673,#672,#364,.T.);
#850=EDGE_CURVE('',#673,#674,#365,.T.);
#851=EDGE_CURVE('',#674,#675,#366,.T.);
#852=EDGE_CURVE('',#668,#675,#367,.T.);
#853=EDGE_CURVE('',#676,#595,#368,.T.);
#854=EDGE_CURVE('',#671,#676,#369,.T.);
#855=EDGE_CURVE('',#609,#677,#370,.T.);
#856=EDGE_CURVE('',#677,#660,#371,.T.);
#857=EDGE_CURVE('',#574,#578,#372,.T.);
#858=EDGE_CURVE('',#678,#678,#42,.T.);
#859=EDGE_CURVE('',#679,#679,#43,.T.);
#860=EDGE_CURVE('',#666,#674,#373,.T.);
#861=EDGE_CURVE('',#680,#665,#374,.T.);
#862=EDGE_CURVE('',#681,#680,#375,.T.);
#863=EDGE_CURVE('',#675,#681,#376,.T.);
#864=EDGE_CURVE('',#682,#682,#44,.T.);
#865=EDGE_CURVE('',#683,#683,#45,.T.);
#866=EDGE_CURVE('',#669,#681,#377,.T.);
#867=EDGE_CURVE('',#680,#670,#378,.T.);
#868=EDGE_CURVE('',#663,#676,#379,.T.);
#869=EDGE_CURVE('',#662,#684,#380,.T.);
#870=EDGE_CURVE('',#672,#684,#381,.T.);
#871=EDGE_CURVE('',#682,#678,#382,.T.);
#872=EDGE_CURVE('',#683,#679,#383,.T.);
#873=EDGE_CURVE('',#667,#677,#384,.T.);
#874=EDGE_CURVE('',#685,#673,#385,.T.);
#875=EDGE_CURVE('',#661,#685,#386,.T.);
#876=EDGE_CURVE('',#684,#685,#387,.T.);
#877=ORIENTED_EDGE('',*,*,#686,.F.);
#878=ORIENTED_EDGE('',*,*,#687,.F.);
#879=ORIENTED_EDGE('',*,*,#688,.F.);
#880=ORIENTED_EDGE('',*,*,#689,.F.);
#881=ORIENTED_EDGE('',*,*,#690,.F.);
#882=ORIENTED_EDGE('',*,*,#691,.F.);
#883=ORIENTED_EDGE('',*,*,#692,.F.);
#884=ORIENTED_EDGE('',*,*,#693,.T.);
#885=ORIENTED_EDGE('',*,*,#694,.T.);
#886=ORIENTED_EDGE('',*,*,#693,.F.);
#887=ORIENTED_EDGE('',*,*,#694,.F.);
#888=ORIENTED_EDGE('',*,*,#695,.F.);
#889=ORIENTED_EDGE('',*,*,#696,.T.);
#890=ORIENTED_EDGE('',*,*,#697,.T.);
#891=ORIENTED_EDGE('',*,*,#696,.F.);
#892=ORIENTED_EDGE('',*,*,#697,.F.);
#893=ORIENTED_EDGE('',*,*,#698,.F.);
#894=ORIENTED_EDGE('',*,*,#699,.T.);
#895=ORIENTED_EDGE('',*,*,#700,.T.);
#896=ORIENTED_EDGE('',*,*,#699,.F.);
#897=ORIENTED_EDGE('',*,*,#700,.F.);
#898=ORIENTED_EDGE('',*,*,#701,.F.);
#899=ORIENTED_EDGE('',*,*,#702,.T.);
#900=ORIENTED_EDGE('',*,*,#703,.T.);
#901=ORIENTED_EDGE('',*,*,#702,.F.);
#902=ORIENTED_EDGE('',*,*,#703,.F.);
#903=ORIENTED_EDGE('',*,*,#704,.T.);
#904=ORIENTED_EDGE('',*,*,#705,.T.);
#905=ORIENTED_EDGE('',*,*,#706,.T.);
#906=ORIENTED_EDGE('',*,*,#707,.T.);
#907=ORIENTED_EDGE('',*,*,#708,.T.);
#908=ORIENTED_EDGE('',*,*,#709,.T.);
#909=ORIENTED_EDGE('',*,*,#710,.T.);
#910=ORIENTED_EDGE('',*,*,#711,.T.);
#911=ORIENTED_EDGE('',*,*,#712,.T.);
#912=ORIENTED_EDGE('',*,*,#713,.T.);
#913=ORIENTED_EDGE('',*,*,#714,.T.);
#914=ORIENTED_EDGE('',*,*,#715,.T.);
#915=ORIENTED_EDGE('',*,*,#710,.F.);
#916=ORIENTED_EDGE('',*,*,#716,.F.);
#917=ORIENTED_EDGE('',*,*,#707,.F.);
#918=ORIENTED_EDGE('',*,*,#717,.F.);
#919=ORIENTED_EDGE('',*,*,#718,.F.);
#920=ORIENTED_EDGE('',*,*,#719,.T.);
#921=ORIENTED_EDGE('',*,*,#712,.F.);
#922=ORIENTED_EDGE('',*,*,#720,.F.);
#923=ORIENTED_EDGE('',*,*,#721,.F.);
#924=ORIENTED_EDGE('',*,*,#722,.F.);
#925=ORIENTED_EDGE('',*,*,#714,.F.);
#926=ORIENTED_EDGE('',*,*,#723,.T.);
#927=ORIENTED_EDGE('',*,*,#724,.F.);
#928=ORIENTED_EDGE('',*,*,#723,.F.);
#929=ORIENTED_EDGE('',*,*,#713,.F.);
#930=ORIENTED_EDGE('',*,*,#719,.F.);
#931=ORIENTED_EDGE('',*,*,#725,.T.);
#932=ORIENTED_EDGE('',*,*,#726,.T.);
#933=ORIENTED_EDGE('',*,*,#720,.T.);
#934=ORIENTED_EDGE('',*,*,#717,.T.);
#935=ORIENTED_EDGE('',*,*,#706,.F.);
#936=ORIENTED_EDGE('',*,*,#727,.F.);
#937=ORIENTED_EDGE('',*,*,#711,.F.);
#938=ORIENTED_EDGE('',*,*,#715,.F.);
#939=ORIENTED_EDGE('',*,*,#722,.T.);
#940=ORIENTED_EDGE('',*,*,#728,.T.);
#941=ORIENTED_EDGE('',*,*,#729,.T.);
#942=ORIENTED_EDGE('',*,*,#730,.T.);
#943=ORIENTED_EDGE('',*,*,#731,.T.);
#944=ORIENTED_EDGE('',*,*,#732,.T.);
#945=ORIENTED_EDGE('',*,*,#733,.T.);
#946=ORIENTED_EDGE('',*,*,#734,.T.);
#947=ORIENTED_EDGE('',*,*,#735,.T.);
#948=ORIENTED_EDGE('',*,*,#736,.T.);
#949=ORIENTED_EDGE('',*,*,#737,.T.);
#950=ORIENTED_EDGE('',*,*,#689,.T.);
#951=ORIENTED_EDGE('',*,*,#692,.T.);
#952=ORIENTED_EDGE('',*,*,#695,.T.);
#953=ORIENTED_EDGE('',*,*,#698,.T.);
#954=ORIENTED_EDGE('',*,*,#701,.T.);
#955=ORIENTED_EDGE('',*,*,#738,.F.);
#956=ORIENTED_EDGE('',*,*,#739,.F.);
#957=ORIENTED_EDGE('',*,*,#740,.T.);
#958=ORIENTED_EDGE('',*,*,#741,.T.);
#959=ORIENTED_EDGE('',*,*,#742,.T.);
#960=ORIENTED_EDGE('',*,*,#743,.T.);
#961=ORIENTED_EDGE('',*,*,#744,.T.);
#962=ORIENTED_EDGE('',*,*,#739,.T.);
#963=ORIENTED_EDGE('',*,*,#745,.T.);
#964=ORIENTED_EDGE('',*,*,#746,.T.);
#965=ORIENTED_EDGE('',*,*,#747,.T.);
#966=ORIENTED_EDGE('',*,*,#748,.T.);
#967=ORIENTED_EDGE('',*,*,#725,.F.);
#968=ORIENTED_EDGE('',*,*,#688,.T.);
#969=ORIENTED_EDGE('',*,*,#738,.T.);
#970=ORIENTED_EDGE('',*,*,#749,.T.);
#971=ORIENTED_EDGE('',*,*,#691,.T.);
#972=ORIENTED_EDGE('',*,*,#750,.F.);
#973=ORIENTED_EDGE('',*,*,#751,.T.);
#974=ORIENTED_EDGE('',*,*,#752,.T.);
#975=ORIENTED_EDGE('',*,*,#753,.F.);
#976=ORIENTED_EDGE('',*,*,#754,.T.);
#977=ORIENTED_EDGE('',*,*,#755,.T.);
#978=ORIENTED_EDGE('',*,*,#756,.F.);
#979=ORIENTED_EDGE('',*,*,#757,.T.);
#980=ORIENTED_EDGE('',*,*,#758,.T.);
#981=ORIENTED_EDGE('',*,*,#759,.F.);
#982=ORIENTED_EDGE('',*,*,#760,.T.);
#983=ORIENTED_EDGE('',*,*,#761,.T.);
#984=ORIENTED_EDGE('',*,*,#745,.F.);
#985=ORIENTED_EDGE('',*,*,#762,.T.);
#986=ORIENTED_EDGE('',*,*,#760,.F.);
#987=ORIENTED_EDGE('',*,*,#763,.F.);
#988=ORIENTED_EDGE('',*,*,#764,.T.);
#989=ORIENTED_EDGE('',*,*,#765,.T.);
#990=ORIENTED_EDGE('',*,*,#766,.T.);
#991=ORIENTED_EDGE('',*,*,#718,.T.);
#992=ORIENTED_EDGE('',*,*,#726,.F.);
#993=ORIENTED_EDGE('',*,*,#748,.F.);
#994=ORIENTED_EDGE('',*,*,#767,.T.);
#995=ORIENTED_EDGE('',*,*,#763,.T.);
#996=ORIENTED_EDGE('',*,*,#759,.T.);
#997=ORIENTED_EDGE('',*,*,#768,.T.);
#998=ORIENTED_EDGE('',*,*,#769,.T.);
#999=ORIENTED_EDGE('',*,*,#770,.F.);
#1000=ORIENTED_EDGE('',*,*,#728,.F.);
#1001=ORIENTED_EDGE('',*,*,#721,.T.);
#1002=ORIENTED_EDGE('',*,*,#724,.T.);
#1003=ORIENTED_EDGE('',*,*,#771,.F.);
#1004=ORIENTED_EDGE('',*,*,#772,.T.);
#1005=ORIENTED_EDGE('',*,*,#773,.T.);
#1006=ORIENTED_EDGE('',*,*,#772,.F.);
#1007=ORIENTED_EDGE('',*,*,#773,.F.);
#1008=ORIENTED_EDGE('',*,*,#774,.F.);
#1009=ORIENTED_EDGE('',*,*,#775,.T.);
#1010=ORIENTED_EDGE('',*,*,#776,.T.);
#1011=ORIENTED_EDGE('',*,*,#775,.F.);
#1012=ORIENTED_EDGE('',*,*,#776,.F.);
#1013=ORIENTED_EDGE('',*,*,#777,.F.);
#1014=ORIENTED_EDGE('',*,*,#778,.T.);
#1015=ORIENTED_EDGE('',*,*,#779,.T.);
#1016=ORIENTED_EDGE('',*,*,#686,.T.);
#1017=ORIENTED_EDGE('',*,*,#749,.F.);
#1018=ORIENTED_EDGE('',*,*,#743,.F.);
#1019=ORIENTED_EDGE('',*,*,#780,.T.);
#1020=ORIENTED_EDGE('',*,*,#757,.F.);
#1021=ORIENTED_EDGE('',*,*,#781,.F.);
#1022=ORIENTED_EDGE('',*,*,#782,.T.);
#1023=ORIENTED_EDGE('',*,*,#783,.F.);
#1024=ORIENTED_EDGE('',*,*,#784,.F.);
#1025=ORIENTED_EDGE('',*,*,#785,.F.);
#1026=ORIENTED_EDGE('',*,*,#768,.F.);
#1027=ORIENTED_EDGE('',*,*,#758,.F.);
#1028=ORIENTED_EDGE('',*,*,#780,.F.);
#1029=ORIENTED_EDGE('',*,*,#785,.T.);
#1030=ORIENTED_EDGE('',*,*,#786,.T.);
#1031=ORIENTED_EDGE('',*,*,#787,.F.);
#1032=ORIENTED_EDGE('',*,*,#769,.F.);
#1033=ORIENTED_EDGE('',*,*,#784,.T.);
#1034=ORIENTED_EDGE('',*,*,#788,.T.);
#1035=ORIENTED_EDGE('',*,*,#789,.T.);
#1036=ORIENTED_EDGE('',*,*,#790,.F.);
#1037=ORIENTED_EDGE('',*,*,#786,.F.);
#1038=ORIENTED_EDGE('',*,*,#783,.T.);
#1039=ORIENTED_EDGE('',*,*,#782,.F.);
#1040=ORIENTED_EDGE('',*,*,#791,.F.);
#1041=ORIENTED_EDGE('',*,*,#792,.T.);
#1042=ORIENTED_EDGE('',*,*,#793,.T.);
#1043=ORIENTED_EDGE('',*,*,#788,.F.);
#1044=ORIENTED_EDGE('',*,*,#794,.T.);
#1045=ORIENTED_EDGE('',*,*,#794,.F.);
#1046=ORIENTED_EDGE('',*,*,#795,.T.);
#1047=ORIENTED_EDGE('',*,*,#796,.T.);
#1048=ORIENTED_EDGE('',*,*,#795,.F.);
#1049=ORIENTED_EDGE('',*,*,#796,.F.);
#1050=ORIENTED_EDGE('',*,*,#797,.T.);
#1051=ORIENTED_EDGE('',*,*,#798,.F.);
#1052=ORIENTED_EDGE('',*,*,#755,.F.);
#1053=ORIENTED_EDGE('',*,*,#799,.T.);
#1054=ORIENTED_EDGE('',*,*,#781,.T.);
#1055=ORIENTED_EDGE('',*,*,#756,.T.);
#1056=ORIENTED_EDGE('',*,*,#798,.T.);
#1057=ORIENTED_EDGE('',*,*,#800,.F.);
#1058=ORIENTED_EDGE('',*,*,#801,.F.);
#1059=ORIENTED_EDGE('',*,*,#802,.T.);
#1060=ORIENTED_EDGE('',*,*,#803,.F.);
#1061=ORIENTED_EDGE('',*,*,#729,.F.);
#1062=ORIENTED_EDGE('',*,*,#770,.T.);
#1063=ORIENTED_EDGE('',*,*,#787,.T.);
#1064=ORIENTED_EDGE('',*,*,#804,.T.);
#1065=ORIENTED_EDGE('',*,*,#805,.T.);
#1066=ORIENTED_EDGE('',*,*,#791,.T.);
#1067=ORIENTED_EDGE('',*,*,#806,.F.);
#1068=ORIENTED_EDGE('',*,*,#807,.T.);
#1069=ORIENTED_EDGE('',*,*,#808,.T.);
#1070=ORIENTED_EDGE('',*,*,#807,.F.);
#1071=ORIENTED_EDGE('',*,*,#808,.F.);
#1072=ORIENTED_EDGE('',*,*,#809,.T.);
#1073=ORIENTED_EDGE('',*,*,#810,.T.);
#1074=ORIENTED_EDGE('',*,*,#811,.F.);
#1075=ORIENTED_EDGE('',*,*,#802,.F.);
#1076=ORIENTED_EDGE('',*,*,#804,.F.);
#1077=ORIENTED_EDGE('',*,*,#790,.T.);
#1078=ORIENTED_EDGE('',*,*,#812,.T.);
#1079=ORIENTED_EDGE('',*,*,#813,.F.);
#1080=ORIENTED_EDGE('',*,*,#805,.F.);
#1081=ORIENTED_EDGE('',*,*,#813,.T.);
#1082=ORIENTED_EDGE('',*,*,#814,.T.);
#1083=ORIENTED_EDGE('',*,*,#792,.F.);
#1084=ORIENTED_EDGE('',*,*,#793,.F.);
#1085=ORIENTED_EDGE('',*,*,#814,.F.);
#1086=ORIENTED_EDGE('',*,*,#812,.F.);
#1087=ORIENTED_EDGE('',*,*,#789,.F.);
#1088=ORIENTED_EDGE('',*,*,#815,.T.);
#1089=ORIENTED_EDGE('',*,*,#764,.F.);
#1090=ORIENTED_EDGE('',*,*,#767,.F.);
#1091=ORIENTED_EDGE('',*,*,#747,.F.);
#1092=ORIENTED_EDGE('',*,*,#816,.T.);
#1093=ORIENTED_EDGE('',*,*,#817,.T.);
#1094=ORIENTED_EDGE('',*,*,#818,.F.);
#1095=ORIENTED_EDGE('',*,*,#819,.F.);
#1096=ORIENTED_EDGE('',*,*,#820,.T.);
#1097=ORIENTED_EDGE('',*,*,#766,.F.);
#1098=ORIENTED_EDGE('',*,*,#771,.T.);
#1099=ORIENTED_EDGE('',*,*,#819,.T.);
#1100=ORIENTED_EDGE('',*,*,#821,.T.);
#1101=ORIENTED_EDGE('',*,*,#817,.F.);
#1102=ORIENTED_EDGE('',*,*,#822,.F.);
#1103=ORIENTED_EDGE('',*,*,#823,.F.);
#1104=ORIENTED_EDGE('',*,*,#824,.F.);
#1105=ORIENTED_EDGE('',*,*,#777,.T.);
#1106=ORIENTED_EDGE('',*,*,#742,.F.);
#1107=ORIENTED_EDGE('',*,*,#774,.T.);
#1108=ORIENTED_EDGE('',*,*,#824,.T.);
#1109=ORIENTED_EDGE('',*,*,#825,.F.);
#1110=ORIENTED_EDGE('',*,*,#826,.T.);
#1111=ORIENTED_EDGE('',*,*,#778,.F.);
#1112=ORIENTED_EDGE('',*,*,#826,.F.);
#1113=ORIENTED_EDGE('',*,*,#827,.T.);
#1114=ORIENTED_EDGE('',*,*,#740,.F.);
#1115=ORIENTED_EDGE('',*,*,#744,.F.);
#1116=ORIENTED_EDGE('',*,*,#687,.T.);
#1117=ORIENTED_EDGE('',*,*,#779,.F.);
#1118=ORIENTED_EDGE('',*,*,#828,.F.);
#1119=ORIENTED_EDGE('',*,*,#829,.F.);
#1120=ORIENTED_EDGE('',*,*,#800,.T.);
#1121=ORIENTED_EDGE('',*,*,#797,.F.);
#1122=ORIENTED_EDGE('',*,*,#806,.T.);
#1123=ORIENTED_EDGE('',*,*,#829,.T.);
#1124=ORIENTED_EDGE('',*,*,#830,.T.);
#1125=ORIENTED_EDGE('',*,*,#809,.F.);
#1126=ORIENTED_EDGE('',*,*,#801,.T.);
#1127=ORIENTED_EDGE('',*,*,#811,.T.);
#1128=ORIENTED_EDGE('',*,*,#831,.T.);
#1129=ORIENTED_EDGE('',*,*,#730,.F.);
#1130=ORIENTED_EDGE('',*,*,#803,.T.);
#1131=ORIENTED_EDGE('',*,*,#832,.T.);
#1132=ORIENTED_EDGE('',*,*,#753,.T.);
#1133=ORIENTED_EDGE('',*,*,#833,.T.);
#1134=ORIENTED_EDGE('',*,*,#834,.T.);
#1135=ORIENTED_EDGE('',*,*,#835,.T.);
#1136=ORIENTED_EDGE('',*,*,#836,.T.);
#1137=ORIENTED_EDGE('',*,*,#837,.F.);
#1138=ORIENTED_EDGE('',*,*,#732,.F.);
#1139=ORIENTED_EDGE('',*,*,#754,.F.);
#1140=ORIENTED_EDGE('',*,*,#832,.F.);
#1141=ORIENTED_EDGE('',*,*,#731,.F.);
#1142=ORIENTED_EDGE('',*,*,#831,.F.);
#1143=ORIENTED_EDGE('',*,*,#810,.F.);
#1144=ORIENTED_EDGE('',*,*,#830,.F.);
#1145=ORIENTED_EDGE('',*,*,#828,.T.);
#1146=ORIENTED_EDGE('',*,*,#799,.F.);
#1147=ORIENTED_EDGE('',*,*,#820,.F.);
#1148=ORIENTED_EDGE('',*,*,#822,.T.);
#1149=ORIENTED_EDGE('',*,*,#816,.F.);
#1150=ORIENTED_EDGE('',*,*,#746,.F.);
#1151=ORIENTED_EDGE('',*,*,#761,.F.);
#1152=ORIENTED_EDGE('',*,*,#762,.F.);
#1153=ORIENTED_EDGE('',*,*,#818,.T.);
#1154=ORIENTED_EDGE('',*,*,#765,.F.);
#1155=ORIENTED_EDGE('',*,*,#815,.F.);
#1156=ORIENTED_EDGE('',*,*,#821,.F.);
#1157=ORIENTED_EDGE('',*,*,#823,.T.);
#1158=ORIENTED_EDGE('',*,*,#741,.F.);
#1159=ORIENTED_EDGE('',*,*,#827,.F.);
#1160=ORIENTED_EDGE('',*,*,#825,.T.);
#1161=ORIENTED_EDGE('',*,*,#690,.T.);
#1162=ORIENTED_EDGE('',*,*,#737,.F.);
#1163=ORIENTED_EDGE('',*,*,#838,.T.);
#1164=ORIENTED_EDGE('',*,*,#839,.T.);
#1165=ORIENTED_EDGE('',*,*,#840,.T.);
#1166=ORIENTED_EDGE('',*,*,#841,.T.);
#1167=ORIENTED_EDGE('',*,*,#842,.T.);
#1168=ORIENTED_EDGE('',*,*,#750,.T.);
#1169=ORIENTED_EDGE('',*,*,#843,.T.);
#1170=ORIENTED_EDGE('',*,*,#844,.F.);
#1171=ORIENTED_EDGE('',*,*,#845,.T.);
#1172=ORIENTED_EDGE('',*,*,#846,.T.);
#1173=ORIENTED_EDGE('',*,*,#838,.F.);
#1174=ORIENTED_EDGE('',*,*,#736,.F.);
#1175=ORIENTED_EDGE('',*,*,#847,.T.);
#1176=ORIENTED_EDGE('',*,*,#848,.F.);
#1177=ORIENTED_EDGE('',*,*,#849,.F.);
#1178=ORIENTED_EDGE('',*,*,#850,.T.);
#1179=ORIENTED_EDGE('',*,*,#851,.T.);
#1180=ORIENTED_EDGE('',*,*,#852,.F.);
#1181=ORIENTED_EDGE('',*,*,#843,.F.);
#1182=ORIENTED_EDGE('',*,*,#735,.F.);
#1183=ORIENTED_EDGE('',*,*,#853,.F.);
#1184=ORIENTED_EDGE('',*,*,#854,.F.);
#1185=ORIENTED_EDGE('',*,*,#847,.F.);
#1186=ORIENTED_EDGE('',*,*,#734,.F.);
#1187=ORIENTED_EDGE('',*,*,#752,.F.);
#1188=ORIENTED_EDGE('',*,*,#855,.T.);
#1189=ORIENTED_EDGE('',*,*,#856,.T.);
#1190=ORIENTED_EDGE('',*,*,#833,.F.);
#1191=ORIENTED_EDGE('',*,*,#857,.F.);
#1192=ORIENTED_EDGE('',*,*,#704,.F.);
#1193=ORIENTED_EDGE('',*,*,#716,.T.);
#1194=ORIENTED_EDGE('',*,*,#709,.F.);
#1195=ORIENTED_EDGE('',*,*,#858,.F.);
#1196=ORIENTED_EDGE('',*,*,#859,.F.);
#1197=ORIENTED_EDGE('',*,*,#860,.F.);
#1198=ORIENTED_EDGE('',*,*,#840,.F.);
#1199=ORIENTED_EDGE('',*,*,#861,.F.);
#1200=ORIENTED_EDGE('',*,*,#862,.F.);
#1201=ORIENTED_EDGE('',*,*,#863,.F.);
#1202=ORIENTED_EDGE('',*,*,#851,.F.);
#1203=ORIENTED_EDGE('',*,*,#864,.F.);
#1204=ORIENTED_EDGE('',*,*,#865,.F.);
#1205=ORIENTED_EDGE('',*,*,#863,.T.);
#1206=ORIENTED_EDGE('',*,*,#866,.F.);
#1207=ORIENTED_EDGE('',*,*,#844,.T.);
#1208=ORIENTED_EDGE('',*,*,#852,.T.);
#1209=ORIENTED_EDGE('',*,*,#862,.T.);
#1210=ORIENTED_EDGE('',*,*,#867,.T.);
#1211=ORIENTED_EDGE('',*,*,#845,.F.);
#1212=ORIENTED_EDGE('',*,*,#866,.T.);
#1213=ORIENTED_EDGE('',*,*,#861,.T.);
#1214=ORIENTED_EDGE('',*,*,#839,.F.);
#1215=ORIENTED_EDGE('',*,*,#846,.F.);
#1216=ORIENTED_EDGE('',*,*,#867,.F.);
#1217=ORIENTED_EDGE('',*,*,#854,.T.);
#1218=ORIENTED_EDGE('',*,*,#868,.F.);
#1219=ORIENTED_EDGE('',*,*,#836,.F.);
#1220=ORIENTED_EDGE('',*,*,#869,.T.);
#1221=ORIENTED_EDGE('',*,*,#870,.F.);
#1222=ORIENTED_EDGE('',*,*,#848,.T.);
#1223=ORIENTED_EDGE('',*,*,#864,.T.);
#1224=ORIENTED_EDGE('',*,*,#871,.T.);
#1225=ORIENTED_EDGE('',*,*,#858,.T.);
#1226=ORIENTED_EDGE('',*,*,#871,.F.);
#1227=ORIENTED_EDGE('',*,*,#865,.T.);
#1228=ORIENTED_EDGE('',*,*,#872,.T.);
#1229=ORIENTED_EDGE('',*,*,#859,.T.);
#1230=ORIENTED_EDGE('',*,*,#872,.F.);
#1231=ORIENTED_EDGE('',*,*,#873,.F.);
#1232=ORIENTED_EDGE('',*,*,#841,.F.);
#1233=ORIENTED_EDGE('',*,*,#860,.T.);
#1234=ORIENTED_EDGE('',*,*,#850,.F.);
#1235=ORIENTED_EDGE('',*,*,#874,.F.);
#1236=ORIENTED_EDGE('',*,*,#875,.F.);
#1237=ORIENTED_EDGE('',*,*,#834,.F.);
#1238=ORIENTED_EDGE('',*,*,#856,.F.);
#1239=ORIENTED_EDGE('',*,*,#751,.F.);
#1240=ORIENTED_EDGE('',*,*,#842,.F.);
#1241=ORIENTED_EDGE('',*,*,#873,.T.);
#1242=ORIENTED_EDGE('',*,*,#855,.F.);
#1243=ORIENTED_EDGE('',*,*,#835,.F.);
#1244=ORIENTED_EDGE('',*,*,#875,.T.);
#1245=ORIENTED_EDGE('',*,*,#876,.F.);
#1246=ORIENTED_EDGE('',*,*,#869,.F.);
#1247=ORIENTED_EDGE('',*,*,#857,.T.);
#1248=ORIENTED_EDGE('',*,*,#708,.F.);
#1249=ORIENTED_EDGE('',*,*,#727,.T.);
#1250=ORIENTED_EDGE('',*,*,#705,.F.);
#1251=ORIENTED_EDGE('',*,*,#874,.T.);
#1252=ORIENTED_EDGE('',*,*,#849,.T.);
#1253=ORIENTED_EDGE('',*,*,#870,.T.);
#1254=ORIENTED_EDGE('',*,*,#876,.T.);
#1255=ORIENTED_EDGE('',*,*,#837,.T.);
#1256=ORIENTED_EDGE('',*,*,#868,.T.);
#1257=ORIENTED_EDGE('',*,*,#853,.T.);
#1258=ORIENTED_EDGE('',*,*,#733,.F.);
#1259=PLANE('',#1401);
#1260=PLANE('',#1405);
#1261=PLANE('',#1409);
#1262=PLANE('',#1413);
#1263=PLANE('',#1417);
#1264=PLANE('',#1418);
#1265=PLANE('',#1419);
#1266=PLANE('',#1420);
#1267=PLANE('',#1421);
#1268=PLANE('',#1422);
#1269=PLANE('',#1423);
#1270=PLANE('',#1424);
#1271=PLANE('',#1425);
#1272=PLANE('',#1426);
#1273=PLANE('',#1427);
#1274=PLANE('',#1428);
#1275=PLANE('',#1429);
#1276=PLANE('',#1433);
#1277=PLANE('',#1437);
#1278=PLANE('',#1438);
#1279=PLANE('',#1439);
#1280=PLANE('',#1440);
#1281=PLANE('',#1441);
#1282=PLANE('',#1442);
#1283=PLANE('',#1443);
#1284=PLANE('',#1447);
#1285=PLANE('',#1448);
#1286=PLANE('',#1449);
#1287=PLANE('',#1453);
#1288=PLANE('',#1454);
#1289=PLANE('',#1455);
#1290=PLANE('',#1456);
#1291=PLANE('',#1457);
#1292=PLANE('',#1458);
#1293=PLANE('',#1459);
#1294=PLANE('',#1460);
#1295=PLANE('',#1461);
#1296=PLANE('',#1462);
#1297=PLANE('',#1463);
#1298=PLANE('',#1464);
#1299=PLANE('',#1465);
#1300=PLANE('',#1466);
#1301=PLANE('',#1467);
#1302=PLANE('',#1468);
#1303=PLANE('',#1469);
#1304=PLANE('',#1470);
#1305=PLANE('',#1471);
#1306=PLANE('',#1472);
#1307=PLANE('',#1473);
#1308=PLANE('',#1474);
#1309=PLANE('',#1475);
#1310=PLANE('',#1476);
#1311=PLANE('',#1477);
#1312=PLANE('',#1478);
#1313=PLANE('',#1480);
#1314=PLANE('',#1482);
#1315=PLANE('',#1485);
#1316=PLANE('',#1486);
#1317=PLANE('',#1487);
#1318=PLANE('',#1488);
#1319=PLANE('',#1491);
#1320=PLANE('',#1492);
#1321=PLANE('',#1493);
#1322=PLANE('',#1494);
#1323=PLANE('',#1495);
#1324=ADVANCED_FACE('',(#56),#1259,.F.);
#1325=ADVANCED_FACE('',(#57),#46,.F.);
#1326=ADVANCED_FACE('',(#58),#1260,.T.);
#1327=ADVANCED_FACE('',(#59),#47,.F.);
#1328=ADVANCED_FACE('',(#60),#1261,.T.);
#1329=ADVANCED_FACE('',(#61),#48,.F.);
#1330=ADVANCED_FACE('',(#62),#1262,.T.);
#1331=ADVANCED_FACE('',(#63),#49,.F.);
#1332=ADVANCED_FACE('',(#64),#1263,.T.);
#1333=ADVANCED_FACE('',(#65),#1264,.T.);
#1334=ADVANCED_FACE('',(#66),#1265,.T.);
#1335=ADVANCED_FACE('',(#67),#1266,.T.);
#1336=ADVANCED_FACE('',(#68),#1267,.F.);
#1337=ADVANCED_FACE('',(#69),#1268,.F.);
#1338=ADVANCED_FACE('',(#70),#1269,.F.);
#1339=ADVANCED_FACE('',(#71,#15,#16,#17,#18),#1270,.T.);
#1340=ADVANCED_FACE('',(#72),#1271,.T.);
#1341=ADVANCED_FACE('',(#73),#1272,.T.);
#1342=ADVANCED_FACE('',(#74),#1273,.T.);
#1343=ADVANCED_FACE('',(#75),#1274,.T.);
#1344=ADVANCED_FACE('',(#76),#1275,.T.);
#1345=ADVANCED_FACE('',(#77),#50,.F.);
#1346=ADVANCED_FACE('',(#78),#1276,.T.);
#1347=ADVANCED_FACE('',(#79),#51,.F.);
#1348=ADVANCED_FACE('',(#80),#1277,.T.);
#1349=ADVANCED_FACE('',(#81),#1278,.T.);
#1350=ADVANCED_FACE('',(#82),#1279,.T.);
#1351=ADVANCED_FACE('',(#83),#1280,.F.);
#1352=ADVANCED_FACE('',(#84),#1281,.T.);
#1353=ADVANCED_FACE('',(#85),#1282,.F.);
#1354=ADVANCED_FACE('',(#86,#19),#1283,.T.);
#1355=ADVANCED_FACE('',(#87),#52,.F.);
#1356=ADVANCED_FACE('',(#88),#1284,.T.);
#1357=ADVANCED_FACE('',(#89),#1285,.T.);
#1358=ADVANCED_FACE('',(#90),#1286,.T.);
#1359=ADVANCED_FACE('',(#91),#53,.F.);
#1360=ADVANCED_FACE('',(#92),#1287,.T.);
#1361=ADVANCED_FACE('',(#93),#1288,.T.);
#1362=ADVANCED_FACE('',(#94),#1289,.F.);
#1363=ADVANCED_FACE('',(#95),#1290,.F.);
#1364=ADVANCED_FACE('',(#96),#1291,.F.);
#1365=ADVANCED_FACE('',(#97),#1292,.T.);
#1366=ADVANCED_FACE('',(#98,#20),#1293,.T.);
#1367=ADVANCED_FACE('',(#99),#1294,.F.);
#1368=ADVANCED_FACE('',(#100,#21),#1295,.T.);
#1369=ADVANCED_FACE('',(#101),#1296,.F.);
#1370=ADVANCED_FACE('',(#102),#1297,.T.);
#1371=ADVANCED_FACE('',(#103,#22),#1298,.T.);
#1372=ADVANCED_FACE('',(#104),#1299,.F.);
#1373=ADVANCED_FACE('',(#105),#1300,.T.);
#1374=ADVANCED_FACE('',(#106),#1301,.T.);
#1375=ADVANCED_FACE('',(#107),#1302,.T.);
#1376=ADVANCED_FACE('',(#108),#1303,.T.);
#1377=ADVANCED_FACE('',(#109),#1304,.F.);
#1378=ADVANCED_FACE('',(#110),#1305,.F.);
#1379=ADVANCED_FACE('',(#111),#1306,.F.);
#1380=ADVANCED_FACE('',(#112),#1307,.F.);
#1381=ADVANCED_FACE('',(#113),#1308,.F.);
#1382=ADVANCED_FACE('',(#114),#1309,.F.);
#1383=ADVANCED_FACE('',(#115),#1310,.T.);
#1384=ADVANCED_FACE('',(#116),#1311,.T.);
#1385=ADVANCED_FACE('',(#117),#1312,.T.);
#1386=ADVANCED_FACE('',(#118),#1313,.T.);
#1387=ADVANCED_FACE('',(#119,#23,#24),#1314,.T.);
#1388=ADVANCED_FACE('',(#120),#1315,.F.);
#1389=ADVANCED_FACE('',(#121),#1316,.F.);
#1390=ADVANCED_FACE('',(#122),#1317,.F.);
#1391=ADVANCED_FACE('',(#123),#1318,.F.);
#1392=ADVANCED_FACE('',(#124),#54,.F.);
#1393=ADVANCED_FACE('',(#125),#55,.F.);
#1394=ADVANCED_FACE('',(#126),#1319,.F.);
#1395=ADVANCED_FACE('',(#127),#1320,.F.);
#1396=ADVANCED_FACE('',(#128),#1321,.F.);
#1397=ADVANCED_FACE('',(#129,#25),#1322,.T.);
#1398=ADVANCED_FACE('',(#130),#1323,.F.);
#1399=CLOSED_SHELL('',(#1324,#1325,#1326,#1327,#1328,#1329,#1330,#1331,
#1332,#1333,#1334,#1335,#1336,#1337,#1338,#1339,#1340,#1341,#1342,#1343,
#1344,#1345,#1346,#1347,#1348,#1349,#1350,#1351,#1352,#1353,#1354,#1355,
#1356,#1357,#1358,#1359,#1360,#1361,#1362,#1363,#1364,#1365,#1366,#1367,
#1368,#1369,#1370,#1371,#1372,#1373,#1374,#1375,#1376,#1377,#1378,#1379,
#1380,#1381,#1382,#1383,#1384,#1385,#1386,#1387,#1388,#1389,#1390,#1391,
#1392,#1393,#1394,#1395,#1396,#1397,#1398));
#1400=AXIS2_PLACEMENT_3D('',#1859,#1496,#1497);
#1401=AXIS2_PLACEMENT_3D('',#1860,#1498,#1499);
#1402=AXIS2_PLACEMENT_3D('',#1873,#1506,#1507);
#1403=AXIS2_PLACEMENT_3D('',#1875,#1508,#1509);
#1404=AXIS2_PLACEMENT_3D('',#1878,#1511,#1512);
#1405=AXIS2_PLACEMENT_3D('',#1879,#1513,#1514);
#1406=AXIS2_PLACEMENT_3D('',#1880,#1515,#1516);
#1407=AXIS2_PLACEMENT_3D('',#1882,#1517,#1518);
#1408=AXIS2_PLACEMENT_3D('',#1885,#1520,#1521);
#1409=AXIS2_PLACEMENT_3D('',#1886,#1522,#1523);
#1410=AXIS2_PLACEMENT_3D('',#1887,#1524,#1525);
#1411=AXIS2_PLACEMENT_3D('',#1889,#1526,#1527);
#1412=AXIS2_PLACEMENT_3D('',#1892,#1529,#1530);
#1413=AXIS2_PLACEMENT_3D('',#1893,#1531,#1532);
#1414=AXIS2_PLACEMENT_3D('',#1894,#1533,#1534);
#1415=AXIS2_PLACEMENT_3D('',#1896,#1535,#1536);
#1416=AXIS2_PLACEMENT_3D('',#1899,#1538,#1539);
#1417=AXIS2_PLACEMENT_3D('',#1900,#1540,#1541);
#1418=AXIS2_PLACEMENT_3D('',#1901,#1542,#1543);
#1419=AXIS2_PLACEMENT_3D('',#1910,#1548,#1549);
#1420=AXIS2_PLACEMENT_3D('',#1919,#1554,#1555);
#1421=AXIS2_PLACEMENT_3D('',#1930,#1562,#1563);
#1422=AXIS2_PLACEMENT_3D('',#1936,#1567,#1568);
#1423=AXIS2_PLACEMENT_3D('',#1942,#1572,#1573);
#1424=AXIS2_PLACEMENT_3D('',#1944,#1575,#1576);
#1425=AXIS2_PLACEMENT_3D('',#1968,#1590,#1591);
#1426=AXIS2_PLACEMENT_3D('',#1981,#1598,#1599);
#1427=AXIS2_PLACEMENT_3D('',#1990,#1605,#1606);
#1428=AXIS2_PLACEMENT_3D('',#2015,#1620,#1621);
#1429=AXIS2_PLACEMENT_3D('',#2025,#1627,#1628);
#1430=AXIS2_PLACEMENT_3D('',#2032,#1633,#1634);
#1431=AXIS2_PLACEMENT_3D('',#2034,#1635,#1636);
#1432=AXIS2_PLACEMENT_3D('',#2037,#1638,#1639);
#1433=AXIS2_PLACEMENT_3D('',#2038,#1640,#1641);
#1434=AXIS2_PLACEMENT_3D('',#2039,#1642,#1643);
#1435=AXIS2_PLACEMENT_3D('',#2041,#1644,#1645);
#1436=AXIS2_PLACEMENT_3D('',#2044,#1647,#1648);
#1437=AXIS2_PLACEMENT_3D('',#2045,#1649,#1650);
#1438=AXIS2_PLACEMENT_3D('',#2046,#1651,#1652);
#1439=AXIS2_PLACEMENT_3D('',#2052,#1656,#1657);
#1440=AXIS2_PLACEMENT_3D('',#2058,#1661,#1662);
#1441=AXIS2_PLACEMENT_3D('',#2064,#1666,#1667);
#1442=AXIS2_PLACEMENT_3D('',#2068,#1670,#1671);
#1443=AXIS2_PLACEMENT_3D('',#2074,#1675,#1676);
#1444=AXIS2_PLACEMENT_3D('',#2081,#1680,#1681);
#1445=AXIS2_PLACEMENT_3D('',#2082,#1682,#1683);
#1446=AXIS2_PLACEMENT_3D('',#2085,#1685,#1686);
#1447=AXIS2_PLACEMENT_3D('',#2086,#1687,#1688);
#1448=AXIS2_PLACEMENT_3D('',#2087,#1689,#1690);
#1449=AXIS2_PLACEMENT_3D('',#2093,#1694,#1695);
#1450=AXIS2_PLACEMENT_3D('',#2104,#1702,#1703);
#1451=AXIS2_PLACEMENT_3D('',#2106,#1704,#1705);
#1452=AXIS2_PLACEMENT_3D('',#2109,#1707,#1708);
#1453=AXIS2_PLACEMENT_3D('',#2110,#1709,#1710);
#1454=AXIS2_PLACEMENT_3D('',#2111,#1711,#1712);
#1455=AXIS2_PLACEMENT_3D('',#2117,#1716,#1717);
#1456=AXIS2_PLACEMENT_3D('',#2121,#1720,#1721);
#1457=AXIS2_PLACEMENT_3D('',#2123,#1723,#1724);
#1458=AXIS2_PLACEMENT_3D('',#2124,#1725,#1726);
#1459=AXIS2_PLACEMENT_3D('',#2130,#1730,#1731);
#1460=AXIS2_PLACEMENT_3D('',#2136,#1735,#1736);
#1461=AXIS2_PLACEMENT_3D('',#2139,#1739,#1740);
#1462=AXIS2_PLACEMENT_3D('',#2143,#1743,#1744);
#1463=AXIS2_PLACEMENT_3D('',#2147,#1747,#1748);
#1464=AXIS2_PLACEMENT_3D('',#2149,#1750,#1751);
#1465=AXIS2_PLACEMENT_3D('',#2153,#1754,#1755);
#1466=AXIS2_PLACEMENT_3D('',#2155,#1757,#1758);
#1467=AXIS2_PLACEMENT_3D('',#2157,#1760,#1761);
#1468=AXIS2_PLACEMENT_3D('',#2168,#1768,#1769);
#1469=AXIS2_PLACEMENT_3D('',#2169,#1770,#1771);
#1470=AXIS2_PLACEMENT_3D('',#2170,#1772,#1773);
#1471=AXIS2_PLACEMENT_3D('',#2171,#1774,#1775);
#1472=AXIS2_PLACEMENT_3D('',#2172,#1776,#1777);
#1473=AXIS2_PLACEMENT_3D('',#2182,#1783,#1784);
#1474=AXIS2_PLACEMENT_3D('',#2190,#1789,#1790);
#1475=AXIS2_PLACEMENT_3D('',#2202,#1797,#1798);
#1476=AXIS2_PLACEMENT_3D('',#2206,#1801,#1802);
#1477=AXIS2_PLACEMENT_3D('',#2210,#1805,#1806);
#1478=AXIS2_PLACEMENT_3D('',#2212,#1808,#1809);
#1479=AXIS2_PLACEMENT_3D('',#2214,#1810,#1811);
#1480=AXIS2_PLACEMENT_3D('',#2215,#1812,#1813);
#1481=AXIS2_PLACEMENT_3D('',#2217,#1814,#1815);
#1482=AXIS2_PLACEMENT_3D('',#2218,#1816,#1817);
#1483=AXIS2_PLACEMENT_3D('',#2226,#1822,#1823);
#1484=AXIS2_PLACEMENT_3D('',#2228,#1824,#1825);
#1485=AXIS2_PLACEMENT_3D('',#2229,#1826,#1827);
#1486=AXIS2_PLACEMENT_3D('',#2231,#1829,#1830);
#1487=AXIS2_PLACEMENT_3D('',#2233,#1832,#1833);
#1488=AXIS2_PLACEMENT_3D('',#2234,#1834,#1835);
#1489=AXIS2_PLACEMENT_3D('',#2239,#1839,#1840);
#1490=AXIS2_PLACEMENT_3D('',#2241,#1842,#1843);
#1491=AXIS2_PLACEMENT_3D('',#2243,#1845,#1846);
#1492=AXIS2_PLACEMENT_3D('',#2248,#1850,#1851);
#1493=AXIS2_PLACEMENT_3D('',#2249,#1852,#1853);
#1494=AXIS2_PLACEMENT_3D('',#2251,#1855,#1856);
#1495=AXIS2_PLACEMENT_3D('',#2252,#1857,#1858);
#1496=DIRECTION('axis',(0.,0.,1.));
#1497=DIRECTION('refdir',(1.,0.,0.));
#1498=DIRECTION('center_axis',(0.,-1.,0.));
#1499=DIRECTION('ref_axis',(0.,0.,-1.));
#1500=DIRECTION('',(0.,0.,-1.));
#1501=DIRECTION('',(1.,0.,0.));
#1502=DIRECTION('',(0.,0.,-1.));
#1503=DIRECTION('',(-1.,0.,0.));
#1504=DIRECTION('',(0.,0.,1.));
#1505=DIRECTION('',(1.,0.,0.));
#1506=DIRECTION('center_axis',(0.,0.,-1.));
#1507=DIRECTION('ref_axis',(-1.,0.,0.));
#1508=DIRECTION('center_axis',(0.,0.,-1.));
#1509=DIRECTION('ref_axis',(-1.,0.,0.));
#1510=DIRECTION('',(0.,0.,-1.));
#1511=DIRECTION('center_axis',(0.,0.,-1.));
#1512=DIRECTION('ref_axis',(-1.,0.,0.));
#1513=DIRECTION('center_axis',(0.,0.,1.));
#1514=DIRECTION('ref_axis',(-1.,0.,0.));
#1515=DIRECTION('center_axis',(0.,0.,-1.));
#1516=DIRECTION('ref_axis',(-1.,0.,0.));
#1517=DIRECTION('center_axis',(0.,0.,-1.));
#1518=DIRECTION('ref_axis',(-1.,0.,0.));
#1519=DIRECTION('',(0.,0.,-1.));
#1520=DIRECTION('center_axis',(0.,0.,-1.));
#1521=DIRECTION('ref_axis',(-1.,0.,0.));
#1522=DIRECTION('center_axis',(0.,0.,1.));
#1523=DIRECTION('ref_axis',(-1.,0.,0.));
#1524=DIRECTION('center_axis',(0.,0.,-1.));
#1525=DIRECTION('ref_axis',(-1.,0.,0.));
#1526=DIRECTION('center_axis',(0.,0.,-1.));
#1527=DIRECTION('ref_axis',(-1.,0.,0.));
#1528=DIRECTION('',(0.,0.,-1.));
#1529=DIRECTION('center_axis',(0.,0.,-1.));
#1530=DIRECTION('ref_axis',(-1.,0.,0.));
#1531=DIRECTION('center_axis',(0.,0.,1.));
#1532=DIRECTION('ref_axis',(-1.,0.,0.));
#1533=DIRECTION('center_axis',(0.,0.,-1.));
#1534=DIRECTION('ref_axis',(-1.,0.,0.));
#1535=DIRECTION('center_axis',(0.,0.,-1.));
#1536=DIRECTION('ref_axis',(-1.,0.,0.));
#1537=DIRECTION('',(0.,0.,-1.));
#1538=DIRECTION('center_axis',(0.,0.,-1.));
#1539=DIRECTION('ref_axis',(-1.,0.,0.));
#1540=DIRECTION('center_axis',(0.,0.,1.));
#1541=DIRECTION('ref_axis',(-1.,0.,0.));
#1542=DIRECTION('center_axis',(-1.,0.,0.));
#1543=DIRECTION('ref_axis',(0.,0.,1.));
#1544=DIRECTION('',(0.,-1.,0.));
#1545=DIRECTION('',(0.,0.,1.));
#1546=DIRECTION('',(0.,1.,0.));
#1547=DIRECTION('',(0.,0.,-1.));
#1548=DIRECTION('center_axis',(1.,0.,0.));
#1549=DIRECTION('ref_axis',(0.,0.,-1.));
#1550=DIRECTION('',(0.,0.,-1.));
#1551=DIRECTION('',(0.,1.,0.));
#1552=DIRECTION('',(0.,0.,1.));
#1553=DIRECTION('',(0.,-1.,0.));
#1554=DIRECTION('center_axis',(0.,1.,0.));
#1555=DIRECTION('ref_axis',(0.,0.,1.));
#1556=DIRECTION('',(0.,0.,-1.));
#1557=DIRECTION('',(1.,0.,0.));
#1558=DIRECTION('',(0.,0.,1.));
#1559=DIRECTION('',(1.,0.,0.));
#1560=DIRECTION('',(1.,0.,0.));
#1561=DIRECTION('',(-1.,0.,0.));
#1562=DIRECTION('center_axis',(-1.,0.,0.));
#1563=DIRECTION('ref_axis',(0.,0.,-1.));
#1564=DIRECTION('',(0.,0.,1.));
#1565=DIRECTION('',(0.,1.,0.));
#1566=DIRECTION('',(0.,1.,0.));
#1567=DIRECTION('center_axis',(1.,0.,0.));
#1568=DIRECTION('ref_axis',(0.,0.,1.));
#1569=DIRECTION('',(0.,0.,-1.));
#1570=DIRECTION('',(0.,-1.,0.));
#1571=DIRECTION('',(0.,-1.,0.));
#1572=DIRECTION('center_axis',(0.,0.,-1.));
#1573=DIRECTION('ref_axis',(1.,0.,0.));
#1574=DIRECTION('',(-1.,0.,0.));
#1575=DIRECTION('center_axis',(0.,0.,1.));
#1576=DIRECTION('ref_axis',(1.,0.,0.));
#1577=DIRECTION('',(0.,1.,0.));
#1578=DIRECTION('',(1.,0.,0.));
#1579=DIRECTION('',(-1.,0.,0.));
#1580=DIRECTION('',(1.,0.,0.));
#1581=DIRECTION('',(0.,-1.,0.));
#1582=DIRECTION('',(-1.,0.,0.));
#1583=DIRECTION('',(0.,-1.,0.));
#1584=DIRECTION('',(-1.,0.,0.));
#1585=DIRECTION('',(0.,1.,0.));
#1586=DIRECTION('',(-1.,0.,0.));
#1587=DIRECTION('',(1.44328993201269E-15,1.,0.));
#1588=DIRECTION('',(1.,0.,0.));
#1589=DIRECTION('',(0.,1.,0.));
#1590=DIRECTION('center_axis',(0.,1.,0.));
#1591=DIRECTION('ref_axis',(0.,0.,1.));
#1592=DIRECTION('',(1.,0.,0.));
#1593=DIRECTION('',(0.,0.,-1.));
#1594=DIRECTION('',(1.,0.,0.));
#1595=DIRECTION('',(0.,0.,-1.));
#1596=DIRECTION('',(1.,0.,0.));
#1597=DIRECTION('',(0.,0.,-1.));
#1598=DIRECTION('center_axis',(1.,0.,0.));
#1599=DIRECTION('ref_axis',(0.,1.,0.));
#1600=DIRECTION('',(0.,1.,0.));
#1601=DIRECTION('',(0.,1.,0.));
#1602=DIRECTION('',(0.,0.,1.));
#1603=DIRECTION('',(0.,1.,0.));
#1604=DIRECTION('',(0.,0.,1.));
#1605=DIRECTION('center_axis',(0.,0.,1.));
#1606=DIRECTION('ref_axis',(0.,-1.,0.));
#1607=DIRECTION('',(0.,-1.,0.));
#1608=DIRECTION('',(0.,1.,0.));
#1609=DIRECTION('',(1.,0.,0.));
#1610=DIRECTION('',(0.,-1.,0.));
#1611=DIRECTION('',(-1.,0.,0.));
#1612=DIRECTION('',(0.,1.,0.));
#1613=DIRECTION('',(1.,0.,0.));
#1614=DIRECTION('',(0.,-1.,0.));
#1615=DIRECTION('',(-1.,0.,0.));
#1616=DIRECTION('',(0.,1.,0.));
#1617=DIRECTION('',(1.,0.,0.));
#1618=DIRECTION('',(0.,-1.,0.));
#1619=DIRECTION('',(-1.,0.,0.));
#1620=DIRECTION('center_axis',(1.,0.,0.));
#1621=DIRECTION('ref_axis',(0.,0.,-1.));
#1622=DIRECTION('',(0.,0.,-1.));
#1623=DIRECTION('',(0.,0.,-1.));
#1624=DIRECTION('',(0.,-1.,0.));
#1625=DIRECTION('',(0.,0.,-1.));
#1626=DIRECTION('',(0.,-1.,0.));
#1627=DIRECTION('center_axis',(0.,-1.,0.));
#1628=DIRECTION('ref_axis',(1.,0.,0.));
#1629=DIRECTION('',(1.,0.,0.));
#1630=DIRECTION('',(0.,0.,1.));
#1631=DIRECTION('',(1.,0.,0.));
#1632=DIRECTION('',(0.,0.,-1.));
#1633=DIRECTION('center_axis',(0.,0.,-1.));
#1634=DIRECTION('ref_axis',(-1.,9.88002061470652E-32,0.));
#1635=DIRECTION('center_axis',(0.,0.,-1.));
#1636=DIRECTION('ref_axis',(-1.,9.88002061470652E-32,0.));
#1637=DIRECTION('',(0.,0.,-1.));
#1638=DIRECTION('center_axis',(-2.85037631769311E-32,-3.46944695195361E-18,
-1.));
#1639=DIRECTION('ref_axis',(-1.,9.88002061470652E-32,2.85037631769311E-32));
#1640=DIRECTION('center_axis',(2.85037631769311E-32,3.46944695195361E-18,
1.));
#1641=DIRECTION('ref_axis',(-1.,9.88002061470652E-32,2.85037631769311E-32));
#1642=DIRECTION('center_axis',(0.,0.,-1.));
#1643=DIRECTION('ref_axis',(-1.,9.88002061470652E-32,0.));
#1644=DIRECTION('center_axis',(0.,0.,-1.));
#1645=DIRECTION('ref_axis',(-1.,9.88002061470652E-32,0.));
#1646=DIRECTION('',(0.,0.,-1.));
#1647=DIRECTION('center_axis',(-2.85037631769311E-32,-3.46944695195361E-18,
-1.));
#1648=DIRECTION('ref_axis',(-1.,9.88002061470652E-32,2.85037631769311E-32));
#1649=DIRECTION('center_axis',(2.85037631769311E-32,3.46944695195361E-18,
1.));
#1650=DIRECTION('ref_axis',(-1.,9.88002061470652E-32,2.85037631769311E-32));
#1651=DIRECTION('center_axis',(1.,0.,0.));
#1652=DIRECTION('ref_axis',(0.,0.,-1.));
#1653=DIRECTION('',(0.,1.,0.));
#1654=DIRECTION('',(0.,0.,1.));
#1655=DIRECTION('',(0.,-1.,0.));
#1656=DIRECTION('center_axis',(0.,-1.,0.));
#1657=DIRECTION('ref_axis',(0.,0.,-1.));
#1658=DIRECTION('',(0.,0.,-1.));
#1659=DIRECTION('',(0.,0.,-1.));
#1660=DIRECTION('',(-1.,0.,0.));
#1661=DIRECTION('center_axis',(1.,0.,0.));
#1662=DIRECTION('ref_axis',(0.,0.,-1.));
#1663=DIRECTION('',(0.,-1.,0.));
#1664=DIRECTION('',(0.,0.,-1.));
#1665=DIRECTION('',(0.,-1.,0.));
#1666=DIRECTION('center_axis',(0.,0.,1.));
#1667=DIRECTION('ref_axis',(1.,0.,0.));
#1668=DIRECTION('',(1.,0.,0.));
#1669=DIRECTION('',(0.,-1.,0.));
#1670=DIRECTION('center_axis',(0.,1.,0.));
#1671=DIRECTION('ref_axis',(1.,0.,0.));
#1672=DIRECTION('',(1.,0.,0.));
#1673=DIRECTION('',(0.,0.,1.));
#1674=DIRECTION('',(1.,0.,0.));
#1675=DIRECTION('center_axis',(0.,0.,1.));
#1676=DIRECTION('ref_axis',(1.,0.,0.));
#1677=DIRECTION('',(0.,-1.,0.));
#1678=DIRECTION('',(1.,0.,0.));
#1679=DIRECTION('',(0.,1.,0.));
#1680=DIRECTION('center_axis',(0.,0.,-1.));
#1681=DIRECTION('ref_axis',(-1.,9.88002061470652E-32,0.));
#1682=DIRECTION('center_axis',(0.,0.,-1.));
#1683=DIRECTION('ref_axis',(-1.,9.88002061470652E-32,0.));
#1684=DIRECTION('',(0.,0.,-1.));
#1685=DIRECTION('center_axis',(-2.85037631769311E-32,-3.46944695195361E-18,
-1.));
#1686=DIRECTION('ref_axis',(-1.,9.88002061470652E-32,2.85037631769311E-32));
#1687=DIRECTION('center_axis',(2.85037631769311E-32,3.46944695195361E-18,
1.));
#1688=DIRECTION('ref_axis',(-1.,9.88002061470652E-32,2.85037631769311E-32));
#1689=DIRECTION('center_axis',(0.,1.,0.));
#1690=DIRECTION('ref_axis',(0.,0.,1.));
#1691=DIRECTION('',(1.,0.,0.));
#1692=DIRECTION('',(0.,0.,1.));
#1693=DIRECTION('',(0.,0.,1.));
#1694=DIRECTION('center_axis',(-1.,0.,0.));
#1695=DIRECTION('ref_axis',(0.,-1.,0.));
#1696=DIRECTION('',(0.,1.,0.));
#1697=DIRECTION('',(0.,0.,-1.));
#1698=DIRECTION('',(0.,-1.,0.));
#1699=DIRECTION('',(0.,0.,-1.));
#1700=DIRECTION('',(0.,-1.,0.));
#1701=DIRECTION('',(0.,0.,-1.));
#1702=DIRECTION('center_axis',(0.,0.,-1.));
#1703=DIRECTION('ref_axis',(-1.,9.88002061470652E-32,0.));
#1704=DIRECTION('center_axis',(0.,0.,-1.));
#1705=DIRECTION('ref_axis',(-1.,9.88002061470652E-32,0.));
#1706=DIRECTION('',(0.,0.,-1.));
#1707=DIRECTION('center_axis',(-2.85037631769311E-32,-3.46944695195361E-18,
-1.));
#1708=DIRECTION('ref_axis',(-1.,9.88002061470652E-32,2.85037631769311E-32));
#1709=DIRECTION('center_axis',(2.85037631769311E-32,3.46944695195361E-18,
1.));
#1710=DIRECTION('ref_axis',(-1.,9.88002061470652E-32,2.85037631769311E-32));
#1711=DIRECTION('center_axis',(0.,0.,1.));
#1712=DIRECTION('ref_axis',(1.,0.,0.));
#1713=DIRECTION('',(-1.,0.,0.));
#1714=DIRECTION('',(0.,-1.,0.));
#1715=DIRECTION('',(-1.,0.,0.));
#1716=DIRECTION('center_axis',(0.,0.,1.));
#1717=DIRECTION('ref_axis',(0.,-1.,0.));
#1718=DIRECTION('',(0.,-1.,0.));
#1719=DIRECTION('',(1.,0.,0.));
#1720=DIRECTION('center_axis',(0.,-1.,0.));
#1721=DIRECTION('ref_axis',(0.,0.,-1.));
#1722=DIRECTION('',(0.,0.,-1.));
#1723=DIRECTION('center_axis',(1.,0.,0.));
#1724=DIRECTION('ref_axis',(0.,0.,-1.));
#1725=DIRECTION('center_axis',(0.,0.,1.));
#1726=DIRECTION('ref_axis',(1.,0.,0.));
#1727=DIRECTION('',(1.,0.,0.));
#1728=DIRECTION('',(1.,0.,0.));
#1729=DIRECTION('',(0.,1.,0.));
#1730=DIRECTION('center_axis',(0.,0.,1.));
#1731=DIRECTION('ref_axis',(1.,0.,0.));
#1732=DIRECTION('',(1.,0.,0.));
#1733=DIRECTION('',(0.,1.,0.));
#1734=DIRECTION('',(1.,0.,0.));
#1735=DIRECTION('center_axis',(-1.,0.,0.));
#1736=DIRECTION('ref_axis',(0.,1.,0.));
#1737=DIRECTION('',(0.,0.,1.));
#1738=DIRECTION('',(0.,0.,1.));
#1739=DIRECTION('center_axis',(0.,0.,1.));
#1740=DIRECTION('ref_axis',(1.,0.,0.));
#1741=DIRECTION('',(0.,1.,0.));
#1742=DIRECTION('',(-1.,0.,0.));
#1743=DIRECTION('center_axis',(0.,-1.,0.));
#1744=DIRECTION('ref_axis',(-1.,0.,0.));
#1745=DIRECTION('',(0.,0.,-1.));
#1746=DIRECTION('',(1.,0.,0.));
#1747=DIRECTION('center_axis',(0.,0.,1.));
#1748=DIRECTION('ref_axis',(1.,0.,0.));
#1749=DIRECTION('',(0.,1.,0.));
#1750=DIRECTION('center_axis',(0.,0.,1.));
#1751=DIRECTION('ref_axis',(1.,0.,0.));
#1752=DIRECTION('',(0.,1.,0.));
#1753=DIRECTION('',(-1.,0.,0.));
#1754=DIRECTION('center_axis',(0.,-1.,0.));
#1755=DIRECTION('ref_axis',(-1.,0.,0.));
#1756=DIRECTION('',(0.,0.,1.));
#1757=DIRECTION('center_axis',(0.,1.,0.));
#1758=DIRECTION('ref_axis',(-1.,0.,0.));
#1759=DIRECTION('',(0.,0.,1.));
#1760=DIRECTION('center_axis',(0.,1.,0.));
#1761=DIRECTION('ref_axis',(0.,0.,-1.));
#1762=DIRECTION('',(0.,0.,-1.));
#1763=DIRECTION('',(0.,0.,1.));
#1764=DIRECTION('',(1.,0.,4.41274375182365E-29));
#1765=DIRECTION('',(1.55431350502455E-15,0.,1.));
#1766=DIRECTION('',(-1.,0.,-4.41274375182365E-29));
#1767=DIRECTION('',(0.,0.,-1.));
#1768=DIRECTION('center_axis',(-1.,0.,0.));
#1769=DIRECTION('ref_axis',(0.,0.,1.));
#1770=DIRECTION('center_axis',(0.,-1.,0.));
#1771=DIRECTION('ref_axis',(0.,0.,-1.));
#1772=DIRECTION('center_axis',(0.,1.,0.));
#1773=DIRECTION('ref_axis',(1.,0.,0.));
#1774=DIRECTION('center_axis',(-1.,0.,0.));
#1775=DIRECTION('ref_axis',(0.,1.,0.));
#1776=DIRECTION('center_axis',(-1.,0.,0.));
#1777=DIRECTION('ref_axis',(0.,0.,-1.));
#1778=DIRECTION('',(0.,0.,-1.));
#1779=DIRECTION('',(0.,-1.,0.));
#1780=DIRECTION('',(0.,6.35486638084127E-15,-1.));
#1781=DIRECTION('',(0.,-1.,-4.440892098501E-15));
#1782=DIRECTION('',(0.,0.,-1.));
#1783=DIRECTION('center_axis',(0.,1.,0.));
#1784=DIRECTION('ref_axis',(1.,0.,0.));
#1785=DIRECTION('',(-2.5458564335844E-16,-7.78243658165071E-15,-1.));
#1786=DIRECTION('',(-1.,-6.2459804479615E-16,0.));
#1787=DIRECTION('',(0.,0.,-1.));
#1788=DIRECTION('',(1.,0.,0.));
#1789=DIRECTION('center_axis',(-1.,1.44328993201269E-15,1.55431350502455E-15));
#1790=DIRECTION('ref_axis',(-1.55431350502454E-15,6.35486616908303E-15,
-1.));
#1791=DIRECTION('',(0.,0.,-1.));
#1792=DIRECTION('',(8.88178419700124E-15,1.,4.44089209850062E-15));
#1793=DIRECTION('',(1.55431350502455E-15,0.,1.));
#1794=DIRECTION('',(8.88178419700124E-15,1.,4.44089209850062E-15));
#1795=DIRECTION('',(0.,0.,1.));
#1796=DIRECTION('',(1.16328056898099E-15,-1.,0.));
#1797=DIRECTION('center_axis',(0.,-1.,-5.63564987119374E-15));
#1798=DIRECTION('ref_axis',(0.,5.63564987119374E-15,-1.));
#1799=DIRECTION('',(0.,-5.63564987119374E-15,1.));
#1800=DIRECTION('',(1.,2.31714592000713E-28,-4.1115860157514E-14));
#1801=DIRECTION('center_axis',(1.,0.,0.));
#1802=DIRECTION('ref_axis',(0.,0.,-1.));
#1803=DIRECTION('',(0.,0.,1.));
#1804=DIRECTION('',(0.,-1.,-6.34413156928691E-15));
#1805=DIRECTION('center_axis',(0.,0.,-1.));
#1806=DIRECTION('ref_axis',(-1.,0.,0.));
#1807=DIRECTION('',(1.,0.,0.));
#1808=DIRECTION('center_axis',(0.,-1.,0.));
#1809=DIRECTION('ref_axis',(0.,0.,-1.));
#1810=DIRECTION('center_axis',(0.,1.,0.));
#1811=DIRECTION('ref_axis',(1.,-1.44328993201269E-15,-1.55431350502455E-15));
#1812=DIRECTION('center_axis',(0.,-1.,0.));
#1813=DIRECTION('ref_axis',(0.,0.,-1.));
#1814=DIRECTION('center_axis',(0.,1.,0.));
#1815=DIRECTION('ref_axis',(1.,-1.44328993201269E-15,-1.55431350502455E-15));
#1816=DIRECTION('center_axis',(-7.28922866461336E-15,-1.,-6.35486638084128E-15));
#1817=DIRECTION('ref_axis',(1.,-7.28922866461336E-15,5.02370179889104E-29));
#1818=DIRECTION('',(-1.,1.41553435639679E-15,4.30737582602528E-14));
#1819=DIRECTION('',(1.,-7.28922866461336E-15,0.));
#1820=DIRECTION('',(-1.55431223447522E-15,6.35486638084129E-15,-1.));
#1821=DIRECTION('',(1.,-7.28922866461336E-15,0.));
#1822=DIRECTION('center_axis',(-7.28922866461336E-15,-1.,-6.35486638084128E-15));
#1823=DIRECTION('ref_axis',(1.,0.,-1.55431350502455E-15));
#1824=DIRECTION('center_axis',(-7.28922866461336E-15,-1.,-6.35486638084128E-15));
#1825=DIRECTION('ref_axis',(1.,0.,-1.55431350502455E-15));
#1826=DIRECTION('center_axis',(0.,0.,-1.));
#1827=DIRECTION('ref_axis',(1.16328056898099E-15,-1.,0.));
#1828=DIRECTION('',(-5.645201820128E-15,-1.,0.));
#1829=DIRECTION('center_axis',(-1.,5.645201820128E-15,1.55431223447525E-15));
#1830=DIRECTION('ref_axis',(-5.64520182012801E-15,-1.,-6.35486595732479E-15));
#1831=DIRECTION('',(0.,1.,0.));
#1832=DIRECTION('center_axis',(0.,0.,-1.));
#1833=DIRECTION('ref_axis',(-1.,0.,0.));
#1834=DIRECTION('center_axis',(4.1115860157514E-14,-6.34413156928689E-15,
1.));
#1835=DIRECTION('ref_axis',(-1.,7.2892286646131E-15,4.1115860157514E-14));
#1836=DIRECTION('',(0.,1.,6.34413156928661E-15));
#1837=DIRECTION('',(-1.4432899320127E-15,-1.,-6.35602681597902E-15));
#1838=DIRECTION('',(1.,0.,-1.55431350502454E-15));
#1839=DIRECTION('center_axis',(0.,1.,0.));
#1840=DIRECTION('ref_axis',(1.,0.,-1.55431350502455E-15));
#1841=DIRECTION('',(0.,1.,0.));
#1842=DIRECTION('center_axis',(0.,1.,0.));
#1843=DIRECTION('ref_axis',(1.,0.,-1.55431350502455E-15));
#1844=DIRECTION('',(0.,1.,0.));
#1845=DIRECTION('center_axis',(-4.30737582602528E-14,6.34413156928691E-15,
-1.));
#1846=DIRECTION('ref_axis',(1.,-1.41553435639679E-15,-4.30737582602528E-14));
#1847=DIRECTION('',(1.,0.,0.));
#1848=DIRECTION('',(-1.,0.,1.55431350502454E-15));
#1849=DIRECTION('',(-1.4432899320127E-15,-1.,-6.35602681597902E-15));
#1850=DIRECTION('center_axis',(0.,-1.,0.));
#1851=DIRECTION('ref_axis',(-1.,0.,0.));
#1852=DIRECTION('center_axis',(1.,-1.44328993201269E-15,-1.55431350502455E-15));
#1853=DIRECTION('ref_axis',(1.55431350502454E-15,-6.35486616908303E-15,
1.));
#1854=DIRECTION('',(-1.55431350502455E-15,0.,-1.));
#1855=DIRECTION('center_axis',(0.,-1.,0.));
#1856=DIRECTION('ref_axis',(0.,0.,-1.));
#1857=DIRECTION('center_axis',(-1.,0.,0.));
#1858=DIRECTION('ref_axis',(0.,0.,-1.));
#1859=CARTESIAN_POINT('',(0.,0.,0.));
#1860=CARTESIAN_POINT('Origin',(49.5,-23.3,0.));
#1861=CARTESIAN_POINT('',(-37.5000005960464,-23.3,-2.00000000000001));
#1862=CARTESIAN_POINT('',(-37.5000005960464,-23.3,-27.5));
#1863=CARTESIAN_POINT('',(-37.5000005960464,-23.3,-13.75));
#1864=CARTESIAN_POINT('',(-49.5,-23.3,-2.00000000000001));
#1865=CARTESIAN_POINT('',(5.24999970197678,-23.3,-2.00000000000001));
#1866=CARTESIAN_POINT('',(-49.5,-23.3,6.495));
#1867=CARTESIAN_POINT('',(-49.5,-23.3,-1.705));
#1868=CARTESIAN_POINT('',(31.4010993610349,-23.3,6.495));
#1869=CARTESIAN_POINT('',(24.75,-23.3,6.495));
#1870=CARTESIAN_POINT('',(31.4010993610349,-23.3,-27.5));
#1871=CARTESIAN_POINT('',(31.4010993610349,-23.3,-1.90062745322236));
#1872=CARTESIAN_POINT('',(0.,-23.3,-27.5));
#1873=CARTESIAN_POINT('Origin',(-53.0000007897615,27.0000004023314,6.495));
#1874=CARTESIAN_POINT('',(-50.6500007897615,27.0000004023314,6.495));
#1875=CARTESIAN_POINT('Origin',(-53.0000007897615,27.0000004023314,6.495));
#1876=CARTESIAN_POINT('',(-50.6500007897615,27.0000004023314,1.495));
#1877=CARTESIAN_POINT('',(-50.6500007897615,27.0000004023314,6.495));
#1878=CARTESIAN_POINT('Origin',(-53.0000007897615,27.0000004023314,1.495));
#1879=CARTESIAN_POINT('Origin',(-53.0000007897615,27.0000004023314,1.495));
#1880=CARTESIAN_POINT('Origin',(52.0000007748604,-34.0000005066395,6.495));
#1881=CARTESIAN_POINT('',(54.3500007748604,-34.0000005066395,6.495));
#1882=CARTESIAN_POINT('Origin',(52.0000007748604,-34.0000005066395,6.495));
#1883=CARTESIAN_POINT('',(54.3500007748604,-34.0000005066395,1.495));
#1884=CARTESIAN_POINT('',(54.3500007748604,-34.0000005066395,6.495));
#1885=CARTESIAN_POINT('Origin',(52.0000007748604,-34.0000005066395,1.495));
#1886=CARTESIAN_POINT('Origin',(52.0000007748604,-34.0000005066395,1.495));
#1887=CARTESIAN_POINT('Origin',(53.0000007897615,27.0000004023314,6.495));
#1888=CARTESIAN_POINT('',(55.3500007897615,27.0000004023314,6.495));
#1889=CARTESIAN_POINT('Origin',(53.0000007897615,27.0000004023314,6.495));
#1890=CARTESIAN_POINT('',(55.3500007897615,27.0000004023314,1.495));
#1891=CARTESIAN_POINT('',(55.3500007897615,27.0000004023314,6.495));
#1892=CARTESIAN_POINT('Origin',(53.0000007897615,27.0000004023314,1.495));
#1893=CARTESIAN_POINT('Origin',(53.0000007897615,27.0000004023314,1.495));
#1894=CARTESIAN_POINT('Origin',(-50.0000007450581,-34.0000005066395,6.495));
#1895=CARTESIAN_POINT('',(-47.6500007450581,-34.0000005066395,6.495));
#1896=CARTESIAN_POINT('Origin',(-50.0000007450581,-34.0000005066395,6.495));
#1897=CARTESIAN_POINT('',(-47.6500007450581,-34.0000005066395,1.495));
#1898=CARTESIAN_POINT('',(-47.6500007450581,-34.0000005066395,6.495));
#1899=CARTESIAN_POINT('Origin',(-50.0000007450581,-34.0000005066395,1.495));
#1900=CARTESIAN_POINT('Origin',(-50.0000007450581,-34.0000005066395,1.495));
#1901=CARTESIAN_POINT('Origin',(-57.5,29.5,0.));
#1902=CARTESIAN_POINT('',(-57.5,31.,-29.5));
#1903=CARTESIAN_POINT('',(-57.5,-39.5,-29.5));
#1904=CARTESIAN_POINT('',(-57.5,-29.5,-29.5));
#1905=CARTESIAN_POINT('',(-57.5,-39.5,6.495));
#1906=CARTESIAN_POINT('',(-57.5,-39.5,-26.5));
#1907=CARTESIAN_POINT('',(-57.5,31.,6.495));
#1908=CARTESIAN_POINT('',(-57.5,29.5,6.495));
#1909=CARTESIAN_POINT('',(-57.5,31.,-26.5));
#1910=CARTESIAN_POINT('Origin',(57.5,-29.5,0.));
#1911=CARTESIAN_POINT('',(57.5,-39.5,6.495));
#1912=CARTESIAN_POINT('',(57.5,-39.5,-29.5));
#1913=CARTESIAN_POINT('',(57.5,-39.5,-27.5));
#1914=CARTESIAN_POINT('',(57.5,31.,-29.5));
#1915=CARTESIAN_POINT('',(57.5,29.5,-29.5));
#1916=CARTESIAN_POINT('',(57.5,31.,6.495));
#1917=CARTESIAN_POINT('',(57.5,31.,0.));
#1918=CARTESIAN_POINT('',(57.5,-14.75,6.495));
#1919=CARTESIAN_POINT('Origin',(56.,31.,0.));
#1920=CARTESIAN_POINT('',(-15.0000002235174,31.,6.495));
#1921=CARTESIAN_POINT('',(-15.0000002235174,31.,-2.5000000372529));
#1922=CARTESIAN_POINT('',(-15.0000002235174,31.,4.00000005960464));
#1923=CARTESIAN_POINT('',(7.00000010430813,31.,-2.5000000372529));
#1924=CARTESIAN_POINT('',(20.4999998882413,31.,-2.5000000372529));
#1925=CARTESIAN_POINT('',(7.00000010430813,31.,6.495));
#1926=CARTESIAN_POINT('',(7.00000010430813,31.,-1.25000001862645));
#1927=CARTESIAN_POINT('',(28.,31.,6.495));
#1928=CARTESIAN_POINT('',(56.,31.,-29.5));
#1929=CARTESIAN_POINT('',(-56.,31.,6.495));
#1930=CARTESIAN_POINT('Origin',(-15.0000002235174,29.5,8.00000011920929));
#1931=CARTESIAN_POINT('',(-15.0000002235174,25.,-2.5000000372529));
#1932=CARTESIAN_POINT('',(-15.0000002235174,25.,6.495));
#1933=CARTESIAN_POINT('',(-15.0000002235174,25.,4.00000005960464));
#1934=CARTESIAN_POINT('',(-15.0000002235174,29.5,-2.5000000372529));
#1935=CARTESIAN_POINT('',(-15.0000002235174,29.5,6.495));
#1936=CARTESIAN_POINT('Origin',(7.00000010430813,29.5,-2.5000000372529));
#1937=CARTESIAN_POINT('',(7.00000010430813,25.,6.495));
#1938=CARTESIAN_POINT('',(7.00000010430813,25.,-2.5000000372529));
#1939=CARTESIAN_POINT('',(7.00000010430813,25.,-1.25000001862645));
#1940=CARTESIAN_POINT('',(7.00000010430813,14.75,6.495));
#1941=CARTESIAN_POINT('',(7.00000010430813,29.5,-2.5000000372529));
#1942=CARTESIAN_POINT('Origin',(-15.0000002235174,29.5,-2.5000000372529));
#1943=CARTESIAN_POINT('',(-32.2500001117587,25.,-2.5000000372529));
#1944=CARTESIAN_POINT('Origin',(0.,0.,6.495));
#1945=CARTESIAN_POINT('',(-49.5,25.,6.495));
#1946=CARTESIAN_POINT('',(-49.5,-11.5,6.495));
#1947=CARTESIAN_POINT('',(-24.75,25.,6.495));
#1948=CARTESIAN_POINT('',(-56.,-39.5,6.495));
#1949=CARTESIAN_POINT('',(49.5,25.,6.495));
#1950=CARTESIAN_POINT('',(-24.75,25.,6.495));
#1951=CARTESIAN_POINT('',(49.5,-23.,6.495));
#1952=CARTESIAN_POINT('',(49.5,11.5,6.495));
#1953=CARTESIAN_POINT('',(37.29999916628,-22.9999994859099,6.495));
#1954=CARTESIAN_POINT('',(24.75,-23.,6.495));
#1955=CARTESIAN_POINT('',(37.29999916628,-36.9427812984587,6.495));
#1956=CARTESIAN_POINT('',(37.29999916628,-36.9427812984587,6.495));
#1957=CARTESIAN_POINT('',(31.4010993610349,-36.9427812984587,6.495));
#1958=CARTESIAN_POINT('',(19.2375937907802,-36.9427812984587,6.495));
#1959=CARTESIAN_POINT('',(31.4010993610349,-36.9425625969174,6.495));
#1960=CARTESIAN_POINT('',(31.4010993610349,-14.75,6.495));
#1961=CARTESIAN_POINT('',(-36.9890125066041,-36.9425625969175,6.49499999999995));
#1962=CARTESIAN_POINT('',(-14.9395062533021,-36.9425625969173,6.495));
#1963=CARTESIAN_POINT('',(-36.9890125066041,-32.0000004768372,6.49499999999995));
#1964=CARTESIAN_POINT('',(-36.9890125066041,-17.1927812984586,6.495));
#1965=CARTESIAN_POINT('',(31.4010993610349,-32.0000004768372,6.495));
#1966=CARTESIAN_POINT('',(-14.9395062533021,-32.0000004768372,6.495));
#1967=CARTESIAN_POINT('',(31.4010993610349,-14.75,6.495));
#1968=CARTESIAN_POINT('Origin',(-40.0000005960464,-10.5000001937151,-27.5));
#1969=CARTESIAN_POINT('',(-49.5,-10.5000001937151,-27.5));
#1970=CARTESIAN_POINT('',(-37.5000005960464,-10.5000001937151,-27.5));
#1971=CARTESIAN_POINT('',(-44.7500002980232,-10.5000001937151,-27.5));
#1972=CARTESIAN_POINT('',(-49.5,-10.5000001937151,-2.00000000000001));
#1973=CARTESIAN_POINT('',(-49.5,-10.5000001937151,-13.75));
#1974=CARTESIAN_POINT('',(-48.2999989204109,-10.5000001937151,-2.00000000000001));
#1975=CARTESIAN_POINT('',(-42.3750004470348,-10.5000001937151,-2.00000000000001));
#1976=CARTESIAN_POINT('',(-48.2999989204109,-10.5000001937151,-3.60000000000001));
#1977=CARTESIAN_POINT('',(-48.2999989204109,-10.5000001937151,-3.50000000000001));
#1978=CARTESIAN_POINT('',(-37.5000005960464,-10.5000001937151,-3.60000000000001));
#1979=CARTESIAN_POINT('',(-39.0000005960464,-10.5000001937151,-3.60000000000001));
#1980=CARTESIAN_POINT('',(-37.5000005960464,-10.5000001937151,-27.5));
#1981=CARTESIAN_POINT('Origin',(-49.5,-23.,0.));
#1982=CARTESIAN_POINT('',(-49.5,-18.0000000968575,-2.00000000000001));
#1983=CARTESIAN_POINT('',(-49.5,12.5000002086163,-27.5));
#1984=CARTESIAN_POINT('',(-49.5,1.,-27.5));
#1985=CARTESIAN_POINT('',(-49.5,12.5000002086163,-2.00000000000001));
#1986=CARTESIAN_POINT('',(-49.5,12.5000002086163,-1.75));
#1987=CARTESIAN_POINT('',(-49.5,25.,-2.00000000000001));
#1988=CARTESIAN_POINT('',(-49.5,-1.74999994784593,-2.00000000000001));
#1989=CARTESIAN_POINT('',(-49.5,25.,-1.705));
#1990=CARTESIAN_POINT('Origin',(-49.5,25.,-27.5));
#1991=CARTESIAN_POINT('',(-37.5000005960464,5.99999990314245,-27.5));
#1992=CARTESIAN_POINT('',(31.4010993610349,-34.3855625969173,-27.5));
#1993=CARTESIAN_POINT('',(31.4010993610349,-26.25,-27.5));
#1994=CARTESIAN_POINT('',(35.9011883645432,-34.3855625969173,-27.5));
#1995=CARTESIAN_POINT('',(-9.04940581772843,-34.3855625969173,-27.5));
#1996=CARTESIAN_POINT('',(35.9011883645432,-36.9427812984587,-27.5));
#1997=CARTESIAN_POINT('',(35.9011883645431,-7.25,-27.5));
#1998=CARTESIAN_POINT('',(37.3000005811453,-36.9427812984587,-27.5));
#1999=CARTESIAN_POINT('',(38.4751875815604,-36.9427812984587,-27.5));
#2000=CARTESIAN_POINT('',(37.3000005811453,-11.0000001937151,-27.5));
#2001=CARTESIAN_POINT('',(37.3000005811453,5.99999990314245,-27.5));
#2002=CARTESIAN_POINT('',(49.5,-11.0000001937151,-27.5));
#2003=CARTESIAN_POINT('',(-1.33226762955019E-14,-11.0000001937151,-27.5));
#2004=CARTESIAN_POINT('',(49.5,11.7733106049456,-27.5));
#2005=CARTESIAN_POINT('',(49.5,24.,-27.5));
#2006=CARTESIAN_POINT('',(38.4481479670221,11.7733106049456,-27.5));
#2007=CARTESIAN_POINT('',(-5.52592601648894,11.7733106049456,-27.5));
#2008=CARTESIAN_POINT('',(38.4481479670221,25.,-27.5));
#2009=CARTESIAN_POINT('',(38.4481479670221,25.,-27.5));
#2010=CARTESIAN_POINT('',(-36.0000005811453,25.,-27.5));
#2011=CARTESIAN_POINT('',(37.4481479670221,25.,-27.5));
#2012=CARTESIAN_POINT('',(-36.0000005811453,12.5000002086163,-27.5));
#2013=CARTESIAN_POINT('',(-36.0000005811453,19.5000001043081,-27.5));
#2014=CARTESIAN_POINT('',(-43.7500002905727,12.5000002086163,-27.5));
#2015=CARTESIAN_POINT('Origin',(-36.0000005811453,14.0000002086163,-27.5));
#2016=CARTESIAN_POINT('',(-36.0000005811453,12.5000002086163,-3.60000000000001));
#2017=CARTESIAN_POINT('',(-36.0000005811453,12.5000002086163,-5.10000000000001));
#2018=CARTESIAN_POINT('',(-36.0000005811453,25.,-2.00000000000001));
#2019=CARTESIAN_POINT('',(-36.0000005811453,25.,-13.75));
#2020=CARTESIAN_POINT('',(-36.0000005811453,22.6381861366861,-2.00000000000001));
#2021=CARTESIAN_POINT('',(-36.0000005811453,16.7500001564622,-2.00000000000001));
#2022=CARTESIAN_POINT('',(-36.0000005811453,22.6381861366861,-3.60000000000001));
#2023=CARTESIAN_POINT('',(-36.0000005811453,22.6381861366861,-3.50000000000001));
#2024=CARTESIAN_POINT('',(-36.0000005811453,16.1595466906337,-3.60000000000001));
#2025=CARTESIAN_POINT('Origin',(-49.5,25.,0.));
#2026=CARTESIAN_POINT('',(-43.2500002905726,25.,-2.00000000000001));
#2027=CARTESIAN_POINT('',(38.4481479670221,25.,-2.00000000000001));
#2028=CARTESIAN_POINT('',(38.4481479670221,25.,-1.75));
#2029=CARTESIAN_POINT('',(49.5,25.,-2.00000000000001));
#2030=CARTESIAN_POINT('',(-2.76296300824448,25.,-2.00000000000001));
#2031=CARTESIAN_POINT('',(49.5,25.,2.5));
#2032=CARTESIAN_POINT('Origin',(-41.1080205039267,17.3643169041425,-1.87599539351559));
#2033=CARTESIAN_POINT('',(-37.8080205039267,17.3643169041425,-3.60000000000001));
#2034=CARTESIAN_POINT('Origin',(-41.1080205039267,17.3643169041425,-3.60000000000001));
#2035=CARTESIAN_POINT('',(-37.8080205039267,17.3643169041425,-8.87599539351559));
#2036=CARTESIAN_POINT('',(-37.8080205039267,17.3643169041425,-1.87599539351559));
#2037=CARTESIAN_POINT('Origin',(-41.1080205039267,17.3643169041425,-8.87599539351559));
#2038=CARTESIAN_POINT('Origin',(-41.1080205039267,17.3643169041425,-8.87599539351559));
#2039=CARTESIAN_POINT('Origin',(-42.6080205039267,-15.6356830958576,-1.87599539351559));
#2040=CARTESIAN_POINT('',(-39.3080205039267,-15.6356830958576,-3.60000000000001));
#2041=CARTESIAN_POINT('Origin',(-42.6080205039267,-15.6356830958576,-3.60000000000001));
#2042=CARTESIAN_POINT('',(-39.3080205039267,-15.6356830958576,-8.87599539351559));
#2043=CARTESIAN_POINT('',(-39.3080205039267,-15.6356830958576,-1.87599539351559));
#2044=CARTESIAN_POINT('Origin',(-42.6080205039267,-15.6356830958576,-8.87599539351559));
#2045=CARTESIAN_POINT('Origin',(-42.6080205039267,-15.6356830958576,-8.87599539351559));
#2046=CARTESIAN_POINT('Origin',(-37.5000005960464,-23.,-27.5));
#2047=CARTESIAN_POINT('',(-37.5000005960464,-20.8999995328486,-3.60000000000001));
#2048=CARTESIAN_POINT('',(-37.5000005960464,-13.0000001937151,-3.60000000000001));
#2049=CARTESIAN_POINT('',(-37.5000005960464,-20.8999995328486,-2.00000000000001));
#2050=CARTESIAN_POINT('',(-37.5000005960464,-20.8999995328486,-15.5));
#2051=CARTESIAN_POINT('',(-37.5000005960464,-20.5000000484288,-2.00000000000001));
#2052=CARTESIAN_POINT('Origin',(38.4481479670221,11.7733106049456,-27.5));
#2053=CARTESIAN_POINT('',(38.4481479670221,11.7733106049456,-3.60000000000001));
#2054=CARTESIAN_POINT('',(38.4481479670221,11.7733106049456,-27.5));
#2055=CARTESIAN_POINT('',(49.5,11.7733106049456,-3.60000000000001));
#2056=CARTESIAN_POINT('',(49.5,11.7733106049456,-13.75));
#2057=CARTESIAN_POINT('',(43.3861993540046,11.7733106049456,-3.60000000000001));
#2058=CARTESIAN_POINT('Origin',(38.4481479670221,25.,-27.5));
#2059=CARTESIAN_POINT('',(38.4481479670221,22.6614686806046,-3.60000000000001));
#2060=CARTESIAN_POINT('',(38.4481479670221,21.3586948213876,-3.60000000000001));
#2061=CARTESIAN_POINT('',(38.4481479670221,22.6614686806046,-2.00000000000001));
#2062=CARTESIAN_POINT('',(38.4481479670221,22.6614686806046,-15.5));
#2063=CARTESIAN_POINT('',(38.4481479670221,21.9433276512364,-2.00000000000001));
#2064=CARTESIAN_POINT('Origin',(43.9740739835111,18.8866553024728,-2.00000000000001));
#2065=CARTESIAN_POINT('',(49.5,22.6614686806046,-2.00000000000001));
#2066=CARTESIAN_POINT('',(41.2111109752666,22.6614686806046,-2.00000000000001));
#2067=CARTESIAN_POINT('',(49.5,20.9433276512364,-2.00000000000001));
#2068=CARTESIAN_POINT('Origin',(38.4481479670221,22.6614686806046,-3.50000000000001));
#2069=CARTESIAN_POINT('',(49.5002507409871,22.6614686806046,-3.60000000000001));
#2070=CARTESIAN_POINT('',(40.9171736605134,22.6614686806046,-3.60000000000001));
#2071=CARTESIAN_POINT('',(49.5002507409871,22.6614686806046,-2.00000000000001));
#2072=CARTESIAN_POINT('',(49.5002507409871,22.6614686806046,-3.50000000000001));
#2073=CARTESIAN_POINT('',(49.3242507409871,22.6614686806046,-2.00000000000001));
#2074=CARTESIAN_POINT('Origin',(43.3861993540046,17.7173896427751,-3.60000000000001));
#2075=CARTESIAN_POINT('',(49.5,12.7733106049456,-3.60000000000001));
#2076=CARTESIAN_POINT('',(49.5,17.8866553024728,-3.60000000000001));
#2077=CARTESIAN_POINT('',(49.5002507409871,12.7733106049456,-3.60000000000001));
#2078=CARTESIAN_POINT('',(49.3242507409871,12.7733106049456,-3.60000000000001));
#2079=CARTESIAN_POINT('',(49.5002507409871,20.1894291616899,-3.60000000000001));
#2080=CARTESIAN_POINT('',(47.1919794960733,16.8643169041425,-3.60000000000001));
#2081=CARTESIAN_POINT('Origin',(43.8919794960733,16.8643169041425,-3.60000000000001));
#2082=CARTESIAN_POINT('Origin',(43.8919794960733,16.8643169041425,-1.87599539351559));
#2083=CARTESIAN_POINT('',(47.1919794960733,16.8643169041425,-8.87599539351559));
#2084=CARTESIAN_POINT('',(47.1919794960733,16.8643169041425,-1.87599539351559));
#2085=CARTESIAN_POINT('Origin',(43.8919794960733,16.8643169041425,-8.87599539351559));
#2086=CARTESIAN_POINT('Origin',(43.8919794960733,16.8643169041425,-8.87599539351559));
#2087=CARTESIAN_POINT('Origin',(49.5,-11.0000001937151,-27.5));
#2088=CARTESIAN_POINT('',(37.3000005811453,-11.0000001937151,-3.60000000000001));
#2089=CARTESIAN_POINT('',(49.499998922646,-11.0000001937151,-3.60000000000001));
#2090=CARTESIAN_POINT('',(48.849999461323,-11.0000001937151,-3.60000000000001));
#2091=CARTESIAN_POINT('',(49.5,-11.0000001937151,-13.75));
#2092=CARTESIAN_POINT('',(37.3000005811453,-11.0000001937151,-5.10000000000001));
#2093=CARTESIAN_POINT('Origin',(49.5,23.,0.));
#2094=CARTESIAN_POINT('',(49.499998922646,-20.8999995328486,-3.60000000000001));
#2095=CARTESIAN_POINT('',(49.499998922646,-14.9000000301749,-3.60000000000001));
#2096=CARTESIAN_POINT('',(49.499998922646,-20.8999995328486,-1.95000000000001));
#2097=CARTESIAN_POINT('',(49.499998922646,-20.8999995328486,-3.50000000000001));
#2098=CARTESIAN_POINT('',(49.5,-23.,-1.95000000000001));
#2099=CARTESIAN_POINT('',(49.5,2.49999995157123,-1.95000000000001));
#2100=CARTESIAN_POINT('',(49.5,-23.,2.5));
#2101=CARTESIAN_POINT('',(49.5,12.7733106049456,-2.00000000000001));
#2102=CARTESIAN_POINT('',(49.5,20.9433276512364,-2.00000000000001));
#2103=CARTESIAN_POINT('',(49.5,12.7733106049456,-13.75));
#2104=CARTESIAN_POINT('Origin',(43.3919794960733,-15.6356830958576,-1.87599539351559));
#2105=CARTESIAN_POINT('',(46.6919794960733,-15.6356830958576,-3.60000000000001));
#2106=CARTESIAN_POINT('Origin',(43.3919794960733,-15.6356830958576,-3.60000000000001));
#2107=CARTESIAN_POINT('',(46.6919794960733,-15.6356830958576,-8.87599539351559));
#2108=CARTESIAN_POINT('',(46.6919794960733,-15.6356830958576,-1.87599539351559));
#2109=CARTESIAN_POINT('Origin',(43.3919794960733,-15.6356830958576,-8.87599539351559));
#2110=CARTESIAN_POINT('Origin',(43.3919794960733,-15.6356830958576,-8.87599539351559));
#2111=CARTESIAN_POINT('Origin',(44.2500002905726,-18.0000000968575,-1.95000000000001));
#2112=CARTESIAN_POINT('',(37.2999991282821,-20.8999995328486,-1.95000000000001));
#2113=CARTESIAN_POINT('',(46.2249996066093,-20.8999995328486,-1.95000000000001));
#2114=CARTESIAN_POINT('',(37.29999916628,-22.9999994859099,-1.95000000000001));
#2115=CARTESIAN_POINT('',(37.3000005811453,-23.,-1.95000000000001));
#2116=CARTESIAN_POINT('',(46.8750001452863,-23.,-1.95000000000001));
#2117=CARTESIAN_POINT('Origin',(49.3242507409871,22.6614686806046,-2.00000000000001));
#2118=CARTESIAN_POINT('',(49.5002507409871,12.7733106049456,-2.00000000000001));
#2119=CARTESIAN_POINT('',(49.5002507409871,20.7740619915387,-2.00000000000001));
#2120=CARTESIAN_POINT('',(49.3242507409871,12.7733106049456,-2.00000000000001));
#2121=CARTESIAN_POINT('Origin',(49.3242507409871,12.7733106049456,-2.));
#2122=CARTESIAN_POINT('',(49.5002507409871,12.7733106049456,-15.5));
#2123=CARTESIAN_POINT('Origin',(49.5002507409871,22.6614686806046,-3.50000000000001));
#2124=CARTESIAN_POINT('Origin',(-44.2500002905727,19.5000001043081,-2.00000000000001));
#2125=CARTESIAN_POINT('',(-48.2966951100833,22.6381861366861,-2.00000000000001));
#2126=CARTESIAN_POINT('',(-46.273347700328,22.6381861366861,-2.00000000000001));
#2127=CARTESIAN_POINT('',(-48.2966951100833,12.5000002086163,-2.00000000000001));
#2128=CARTESIAN_POINT('',(-46.8750001452863,12.5000002086163,-2.00000000000001));
#2129=CARTESIAN_POINT('',(-48.2966951100833,16.7500001564622,-2.00000000000001));
#2130=CARTESIAN_POINT('Origin',(-43.6483478456143,18.3190931726512,-3.60000000000001));
#2131=CARTESIAN_POINT('',(-48.2966951100833,22.6381861366861,-3.60000000000001));
#2132=CARTESIAN_POINT('',(-45.9725214778488,22.6381861366861,-3.60000000000001));
#2133=CARTESIAN_POINT('',(-48.2966951100833,12.5000002086163,-3.60000000000001));
#2134=CARTESIAN_POINT('',(-48.2966951100833,16.1595466906337,-3.60000000000001));
#2135=CARTESIAN_POINT('',(-38.0000005811453,12.5000002086163,-3.60000000000001));
#2136=CARTESIAN_POINT('Origin',(-48.2966951100833,14.0000002086163,-3.50000000000001));
#2137=CARTESIAN_POINT('',(-48.2966951100833,22.6381861366861,-3.50000000000001));
#2138=CARTESIAN_POINT('',(-48.2966951100833,12.5000002086163,-15.5));
#2139=CARTESIAN_POINT('Origin',(-44.1499997582287,-16.9499998632818,-3.60000000000001));
#2140=CARTESIAN_POINT('',(-48.2999989204109,-20.8999995328486,-3.60000000000001));
#2141=CARTESIAN_POINT('',(-48.2999989204109,-13.0000001937151,-3.60000000000001));
#2142=CARTESIAN_POINT('',(-42.0750001771376,-20.8999995328486,-3.60000000000001));
#2143=CARTESIAN_POINT('Origin',(-40.0000005960464,-20.8999995328486,-3.50000000000001));
#2144=CARTESIAN_POINT('',(-48.2999989204109,-20.8999995328486,-2.00000000000001));
#2145=CARTESIAN_POINT('',(-48.2999989204109,-20.8999995328486,-3.50000000000001));
#2146=CARTESIAN_POINT('',(-39.0000005960464,-20.8999995328486,-2.00000000000001));
#2147=CARTESIAN_POINT('Origin',(-44.7500002980232,-18.0000000968575,-2.00000000000001));
#2148=CARTESIAN_POINT('',(-48.2999989204109,-19.4499998148531,-2.00000000000001));
#2149=CARTESIAN_POINT('Origin',(43.5999997518957,-16.7999998666346,-3.60000000000001));
#2150=CARTESIAN_POINT('',(37.2999991282821,-20.8999995328486,-3.60000000000001));
#2151=CARTESIAN_POINT('',(37.3000005811453,-13.0000001937151,-3.60000000000001));
#2152=CARTESIAN_POINT('',(45.8999993372709,-20.8999995328486,-3.60000000000001));
#2153=CARTESIAN_POINT('Origin',(48.199998922646,-20.8999995328486,-3.50000000000001));
#2154=CARTESIAN_POINT('',(37.2999991282821,-20.8999995328486,-3.50000000000001));
#2155=CARTESIAN_POINT('Origin',(49.5,-23.,0.));
#2156=CARTESIAN_POINT('',(37.29999916628,-22.9999994859099,-3.50000000000001));
#2157=CARTESIAN_POINT('Origin',(38.4751875815604,-36.9427812984587,12.295));
#2158=CARTESIAN_POINT('',(37.3000005811453,-36.9427812984587,4.3975));
#2159=CARTESIAN_POINT('',(35.9011883645432,-36.9427812984587,-26.2374640861151));
#2160=CARTESIAN_POINT('',(35.9011883645432,-36.9427812984587,-6.3612320430576));
#2161=CARTESIAN_POINT('',(36.1609874933958,-36.9427812984587,-26.2374640861152));
#2162=CARTESIAN_POINT('',(3.7002920517902,-36.9427812984587,-26.2374640861151));
#2163=CARTESIAN_POINT('',(36.1609874933958,-36.9427812984587,-5.1574640861152));
#2164=CARTESIAN_POINT('',(36.1609874933958,-36.9427812984587,-6.97123204305758));
#2165=CARTESIAN_POINT('',(31.4010993610349,-36.9427812984587,-5.15746408611509));
#2166=CARTESIAN_POINT('',(3.70029205179022,-36.9427812984587,-5.15746408611509));
#2167=CARTESIAN_POINT('',(31.4010993610349,-36.9427812984587,4.24687254677764));
#2168=CARTESIAN_POINT('Origin',(37.2999991282821,-13.0000001937151,-27.5));
#2169=CARTESIAN_POINT('Origin',(-49.5,12.5000002086163,-27.5));
#2170=CARTESIAN_POINT('Origin',(-48.2966951100833,22.6381861366861,-3.50000000000001));
#2171=CARTESIAN_POINT('Origin',(-48.2999989204109,-20.8999995328486,-3.50000000000001));
#2172=CARTESIAN_POINT('Origin',(31.4010993610349,-29.5,-3.80125490644472));
#2173=CARTESIAN_POINT('',(31.4010993610349,-32.0000004768372,-26.237));
#2174=CARTESIAN_POINT('',(31.4010993610349,-32.0000004768372,4.24687254677764));
#2175=CARTESIAN_POINT('',(31.4010993610349,-33.0655625969174,-26.237));
#2176=CARTESIAN_POINT('',(31.4010993610349,-31.3463907684386,-26.237));
#2177=CARTESIAN_POINT('',(31.4010993610349,-33.0655625969175,-26.2374640861151));
#2178=CARTESIAN_POINT('',(31.4010993610349,-33.0655625969176,-9.74935949627992));
#2179=CARTESIAN_POINT('',(31.4010993610349,-34.3855625969175,-26.2374640861151));
#2180=CARTESIAN_POINT('',(31.4010993610349,-31.9427812984585,-26.2374640861178));
#2181=CARTESIAN_POINT('',(31.4010993610349,-34.3855625969174,-15.6506274532224));
#2182=CARTESIAN_POINT('Origin',(-29.8790125066041,-32.0000004768372,12.295));
#2183=CARTESIAN_POINT('',(-36.9890125066041,-32.0000004768373,-5.14645486514468));
#2184=CARTESIAN_POINT('',(-36.9890125066041,-32.0000004768372,16.5374866578622));
#2185=CARTESIAN_POINT('',(-29.8790125066041,-32.0000004768373,-5.14645486514468));
#2186=CARTESIAN_POINT('',(-29.8790125066041,-32.0000004768373,-5.14645486514468));
#2187=CARTESIAN_POINT('',(-29.8790125066041,-32.0000004768372,-26.237));
#2188=CARTESIAN_POINT('',(-29.8790125066041,-32.0000004768372,12.295));
#2189=CARTESIAN_POINT('',(31.000000461936,-32.0000004768372,-26.237));
#2190=CARTESIAN_POINT('Origin',(-36.9890125066042,-34.3855625969172,-5.15746408611507));
#2191=CARTESIAN_POINT('',(-36.9890125066039,-36.9425625969172,-5.15746408611509));
#2192=CARTESIAN_POINT('',(-36.9890125066041,-36.9425625969175,-5.14645486514468));
#2193=CARTESIAN_POINT('',(-36.9890125066042,-39.5,-5.1574640861151));
#2194=CARTESIAN_POINT('',(-36.9890125066042,-34.3855625969172,-5.15746408611507));
#2195=CARTESIAN_POINT('',(-36.9890125066042,-39.5,-26.2374640861151));
#2196=CARTESIAN_POINT('',(-36.9890125066042,-39.5,-2.57873204305755));
#2197=CARTESIAN_POINT('',(-36.9890125066042,-33.0655625969171,-26.2374640861151));
#2198=CARTESIAN_POINT('',(-36.9890125066042,-34.3855625969171,-26.2374640861151));
#2199=CARTESIAN_POINT('',(-36.9890125066039,-33.0655625969172,-5.14645486514468));
#2200=CARTESIAN_POINT('',(-36.9890125066039,-33.0655625969172,-5.15746408611509));
#2201=CARTESIAN_POINT('',(-36.9890125066041,-32.0000004768373,-5.14645486514468));
#2202=CARTESIAN_POINT('Origin',(-29.8790125066042,-36.9425625969172,-6.80746408611509));
#2203=CARTESIAN_POINT('',(31.4010993610349,-36.9425625969173,-5.15746408611509));
#2204=CARTESIAN_POINT('',(31.4010993610349,-36.9425625969172,-5.30435949627993));
#2205=CARTESIAN_POINT('',(-29.9097595728303,-36.9425625969172,-5.15746408611514));
#2206=CARTESIAN_POINT('Origin',(35.9011883645432,-39.5,-25.0174640861152));
#2207=CARTESIAN_POINT('',(35.9011883645432,-34.3855625969175,-26.2374640861151));
#2208=CARTESIAN_POINT('',(35.9011883645432,-34.3855625969173,-6.3612320430576));
#2209=CARTESIAN_POINT('',(35.9011883645432,-36.9427812984585,-26.2374640861178));
#2210=CARTESIAN_POINT('Origin',(0.,0.,-29.5));
#2211=CARTESIAN_POINT('',(56.,-39.5,-29.5));
#2212=CARTESIAN_POINT('Origin',(-56.,-29.566,0.));
#2213=CARTESIAN_POINT('',(-35.8290125066042,-29.5659999999999,-23.8274640861151));
#2214=CARTESIAN_POINT('Origin',(-34.5790125066042,-29.5659999999999,-23.8274640861151));
#2215=CARTESIAN_POINT('Origin',(-56.,-29.566,0.));
#2216=CARTESIAN_POINT('',(-35.8290125066042,-29.566,-7.5674640861151));
#2217=CARTESIAN_POINT('Origin',(-34.5790125066042,-29.566,-7.56746408611507));
#2218=CARTESIAN_POINT('Origin',(-30.5075550585182,-33.0655625969171,-15.6974640861151));
#2219=CARTESIAN_POINT('',(-29.9405066390565,-33.0655625969171,-26.2374640861151));
#2220=CARTESIAN_POINT('',(-29.8790125066041,-33.0655625969173,-26.237));
#2221=CARTESIAN_POINT('',(-14.9735305404261,-33.0655625969172,-26.237));
#2222=CARTESIAN_POINT('',(-29.8790125066039,-33.0655625969172,-5.14645486514468));
#2223=CARTESIAN_POINT('',(-29.8790125066041,-33.0655625969172,-11.2524640861151));
#2224=CARTESIAN_POINT('',(-30.1932837825612,-33.0655625969172,-5.14645486514468));
#2225=CARTESIAN_POINT('',(-35.8290125066042,-33.0655625969171,-23.8274640861151));
#2226=CARTESIAN_POINT('Origin',(-34.5790125066042,-33.0655625969171,-23.8274640861151));
#2227=CARTESIAN_POINT('',(-35.8290125066042,-33.0655625969171,-7.56746408611507));
#2228=CARTESIAN_POINT('Origin',(-34.5790125066042,-33.0655625969171,-7.56746408611507));
#2229=CARTESIAN_POINT('Origin',(-29.8790125066041,-32.0000004768373,-5.14645486514468));
#2230=CARTESIAN_POINT('',(-29.8790125066041,-33.1927815368773,-5.14645486514468));
#2231=CARTESIAN_POINT('Origin',(-29.8790125066041,-34.3855625969172,-6.80746408611508));
#2232=CARTESIAN_POINT('',(-29.8790125066041,-32.0000004768372,-26.237));
#2233=CARTESIAN_POINT('Origin',(0.560493977665941,-33.1927815368772,-26.237));
#2234=CARTESIAN_POINT('Origin',(-29.9405066390565,-34.3855625969172,-5.15746408611512));
#2235=CARTESIAN_POINT('',(31.4010993610349,-31.9427812984586,-5.15746408611506));
#2236=CARTESIAN_POINT('',(36.1609874933958,-39.5,-5.15746408611521));
#2237=CARTESIAN_POINT('',(36.1609874933959,-34.3855625969173,-5.15746408611518));
#2238=CARTESIAN_POINT('',(-9.91950625330208,-39.5,-5.15746408611514));
#2239=CARTESIAN_POINT('Origin',(-34.5790125066042,-33.3859999999999,-23.8274640861151));
#2240=CARTESIAN_POINT('',(-35.8290125066042,-33.3859999999999,-23.8274640861151));
#2241=CARTESIAN_POINT('Origin',(-34.5790125066042,-33.386,-7.56746408611507));
#2242=CARTESIAN_POINT('',(-35.8290125066042,-33.386,-7.56746408611507));
#2243=CARTESIAN_POINT('Origin',(-31.07460347798,-34.3855625969171,-26.2374640861151));
#2244=CARTESIAN_POINT('',(31.4011883645431,-34.3855625969175,-26.2374640861151));
#2245=CARTESIAN_POINT('',(36.1609874933958,-39.5,-26.2374640861152));
#2246=CARTESIAN_POINT('',(-46.4945062533021,-39.5,-26.2374640861151));
#2247=CARTESIAN_POINT('',(36.1609874933958,-34.3855625969172,-26.2374640861152));
#2248=CARTESIAN_POINT('Origin',(31.000000461936,-34.3855625969173,12.295));
#2249=CARTESIAN_POINT('Origin',(36.1609874933958,-34.3855625969172,-26.2374640861152));
#2250=CARTESIAN_POINT('',(36.1609874933958,-39.5,-13.1187320430577));
#2251=CARTESIAN_POINT('Origin',(-56.,-39.5,0.));
#2252=CARTESIAN_POINT('Origin',(31.4010993610349,-29.5,-3.80125490644472));
#2253=UNCERTAINTY_MEASURE_WITH_UNIT(LENGTH_MEASURE(0.01),#2257,
'DISTANCE_ACCURACY_VALUE',
'Maximum model space distance between geometric entities at asserted c
onnectivities');
#2254=UNCERTAINTY_MEASURE_WITH_UNIT(LENGTH_MEASURE(0.01),#2257,
'DISTANCE_ACCURACY_VALUE',
'Maximum model space distance between geometric entities at asserted c
onnectivities');
#2255=(
GEOMETRIC_REPRESENTATION_CONTEXT(3)
GLOBAL_UNCERTAINTY_ASSIGNED_CONTEXT((#2253))
GLOBAL_UNIT_ASSIGNED_CONTEXT((#2257,#2258,#2259))
REPRESENTATION_CONTEXT('','3D')
);
#2256=(
GEOMETRIC_REPRESENTATION_CONTEXT(3)
GLOBAL_UNCERTAINTY_ASSIGNED_CONTEXT((#2254))
GLOBAL_UNIT_ASSIGNED_CONTEXT((#2257,#2258,#2259))
REPRESENTATION_CONTEXT('','3D')
);
#2257=(
LENGTH_UNIT()
NAMED_UNIT(*)
SI_UNIT(.MILLI.,.METRE.)
);
#2258=(
NAMED_UNIT(*)
PLANE_ANGLE_UNIT()
SI_UNIT($,.RADIAN.)
);
#2259=(
NAMED_UNIT(*)
SI_UNIT($,.STERADIAN.)
SOLID_ANGLE_UNIT()
);
#2260=SHAPE_DEFINITION_REPRESENTATION(#2261,#2262);
#2261=PRODUCT_DEFINITION_SHAPE('',$,#2264);
#2262=SHAPE_REPRESENTATION('',(#1400),#2255);
#2263=PRODUCT_DEFINITION_CONTEXT('part definition',#2268,'design');
#2264=PRODUCT_DEFINITION('my-alarm-clock 1','my-alarm-clock-2',#2265,#2263);
#2265=PRODUCT_DEFINITION_FORMATION('',$,#2270);
#2266=PRODUCT_RELATED_PRODUCT_CATEGORY('my-alarm-clock-2',
'my-alarm-clock-2',(#2270));
#2267=APPLICATION_PROTOCOL_DEFINITION('international standard',
'automotive_design',2009,#2268);
#2268=APPLICATION_CONTEXT(
'Core Data for Automotive Mechanical Design Process');
#2269=PRODUCT_CONTEXT('part definition',#2268,'mechanical');
#2270=PRODUCT('my-alarm-clock 1','my-alarm-clock-2',
'KiCad electronic assembly',(#2269));
#2271=PRESENTATION_STYLE_ASSIGNMENT((#2272));
#2272=SURFACE_STYLE_USAGE(.BOTH.,#2273);
#2273=SURFACE_SIDE_STYLE('',(#2274));
#2274=SURFACE_STYLE_FILL_AREA(#2275);
#2275=FILL_AREA_STYLE('Stal \X2\2014\X0\ satynowa',(#2276));
#2276=FILL_AREA_STYLE_COLOUR('Stal \X2\2014\X0\ satynowa',#2277);
#2277=COLOUR_RGB('Stal \X2\2014\X0\ satynowa',0.627450980392157,0.627450980392157,
0.627450980392157);
ENDSEC;
END-ISO-10303-21;
