ISO-10303-21;
HEADER;
/* Generated by software containing ST-Developer
 * from STEP Tools, Inc. (www.steptools.com) 
 */

FILE_DESCRIPTION(
/* description */ ('KiCad electronic assembly'),
/* implementation_level */ '2;1');

FILE_NAME(
/* name */ 'top.step',
/* time_stamp */ '2026-09-20T15:52:56+02:00',
/* author */ (''),
/* organization */ (''),
/* preprocessor_version */ 'ST-DEVELOPER v20.1',
/* originating_system */ 'Autodesk Translation Framework v15.8.0.0',
/* authorisation */ '');

FILE_SCHEMA (('AUTOMOTIVE_DESIGN { 1 0 10303 214 3 1 1 }'));
ENDSEC;

DATA;
#10=MECHANICAL_DESIGN_GEOMETRIC_PRESENTATION_REPRESENTATION('',(#13),#1678);
#11=SHAPE_REPRESENTATION_RELATIONSHIP('SRR','None',#1684,#12);
#12=ADVANCED_BREP_SHAPE_REPRESENTATION('',(#14),#1677);
#13=STYLED_ITEM('',(#1693),#14);
#14=MANIFOLD_SOLID_BREP('Bry\X2\0142\X0\a4',#1050);
#15=CYLINDRICAL_SURFACE('',#1081,3.35);
#16=CYLINDRICAL_SURFACE('',#1085,3.35);
#17=CYLINDRICAL_SURFACE('',#1089,3.35);
#18=CYLINDRICAL_SURFACE('',#1093,3.35);
#19=CYLINDRICAL_SURFACE('',#1097,2.35);
#20=CYLINDRICAL_SURFACE('',#1098,2.35);
#21=CYLINDRICAL_SURFACE('',#1099,2.35);
#22=CYLINDRICAL_SURFACE('',#1100,2.35);
#23=FACE_BOUND('',#127,.T.);
#24=FACE_BOUND('',#128,.T.);
#25=FACE_BOUND('',#129,.T.);
#26=FACE_BOUND('',#130,.T.);
#27=FACE_BOUND('',#134,.T.);
#28=FACE_BOUND('',#135,.T.);
#29=FACE_BOUND('',#136,.T.);
#30=FACE_BOUND('',#137,.T.);
#31=FACE_BOUND('',#138,.T.);
#32=FACE_BOUND('',#139,.T.);
#33=FACE_BOUND('',#140,.T.);
#34=FACE_BOUND('',#141,.T.);
#35=FACE_BOUND('',#147,.T.);
#36=FACE_BOUND('',#150,.T.);
#37=FACE_BOUND('',#153,.T.);
#38=FACE_BOUND('',#156,.T.);
#39=FACE_BOUND('',#180,.T.);
#40=FACE_BOUND('',#181,.T.);
#41=FACE_BOUND('',#182,.T.);
#42=FACE_BOUND('',#183,.T.);
#43=CIRCLE('',#1067,2.35);
#44=CIRCLE('',#1068,2.35);
#45=CIRCLE('',#1069,2.35);
#46=CIRCLE('',#1070,2.35);
#47=CIRCLE('',#1074,3.35);
#48=CIRCLE('',#1075,3.35);
#49=CIRCLE('',#1076,3.35);
#50=CIRCLE('',#1077,3.35);
#51=CIRCLE('',#1082,3.35);
#52=CIRCLE('',#1084,2.35);
#53=CIRCLE('',#1086,3.35);
#54=CIRCLE('',#1088,2.35);
#55=CIRCLE('',#1090,3.35);
#56=CIRCLE('',#1092,2.35);
#57=CIRCLE('',#1094,3.35);
#58=CIRCLE('',#1096,2.35);
#59=FACE_OUTER_BOUND('',#112,.T.);
#60=FACE_OUTER_BOUND('',#113,.T.);
#61=FACE_OUTER_BOUND('',#114,.T.);
#62=FACE_OUTER_BOUND('',#115,.T.);
#63=FACE_OUTER_BOUND('',#116,.T.);
#64=FACE_OUTER_BOUND('',#117,.T.);
#65=FACE_OUTER_BOUND('',#118,.T.);
#66=FACE_OUTER_BOUND('',#119,.T.);
#67=FACE_OUTER_BOUND('',#120,.T.);
#68=FACE_OUTER_BOUND('',#121,.T.);
#69=FACE_OUTER_BOUND('',#122,.T.);
#70=FACE_OUTER_BOUND('',#123,.T.);
#71=FACE_OUTER_BOUND('',#124,.T.);
#72=FACE_OUTER_BOUND('',#125,.T.);
#73=FACE_OUTER_BOUND('',#126,.T.);
#74=FACE_OUTER_BOUND('',#131,.T.);
#75=FACE_OUTER_BOUND('',#132,.T.);
#76=FACE_OUTER_BOUND('',#133,.T.);
#77=FACE_OUTER_BOUND('',#142,.T.);
#78=FACE_OUTER_BOUND('',#143,.T.);
#79=FACE_OUTER_BOUND('',#144,.T.);
#80=FACE_OUTER_BOUND('',#145,.T.);
#81=FACE_OUTER_BOUND('',#146,.T.);
#82=FACE_OUTER_BOUND('',#148,.T.);
#83=FACE_OUTER_BOUND('',#149,.T.);
#84=FACE_OUTER_BOUND('',#151,.T.);
#85=FACE_OUTER_BOUND('',#152,.T.);
#86=FACE_OUTER_BOUND('',#154,.T.);
#87=FACE_OUTER_BOUND('',#155,.T.);
#88=FACE_OUTER_BOUND('',#157,.T.);
#89=FACE_OUTER_BOUND('',#158,.T.);
#90=FACE_OUTER_BOUND('',#159,.T.);
#91=FACE_OUTER_BOUND('',#160,.T.);
#92=FACE_OUTER_BOUND('',#161,.T.);
#93=FACE_OUTER_BOUND('',#162,.T.);
#94=FACE_OUTER_BOUND('',#163,.T.);
#95=FACE_OUTER_BOUND('',#164,.T.);
#96=FACE_OUTER_BOUND('',#165,.T.);
#97=FACE_OUTER_BOUND('',#166,.T.);
#98=FACE_OUTER_BOUND('',#167,.T.);
#99=FACE_OUTER_BOUND('',#168,.T.);
#100=FACE_OUTER_BOUND('',#169,.T.);
#101=FACE_OUTER_BOUND('',#170,.T.);
#102=FACE_OUTER_BOUND('',#171,.T.);
#103=FACE_OUTER_BOUND('',#172,.T.);
#104=FACE_OUTER_BOUND('',#173,.T.);
#105=FACE_OUTER_BOUND('',#174,.T.);
#106=FACE_OUTER_BOUND('',#175,.T.);
#107=FACE_OUTER_BOUND('',#176,.T.);
#108=FACE_OUTER_BOUND('',#177,.T.);
#109=FACE_OUTER_BOUND('',#178,.T.);
#110=FACE_OUTER_BOUND('',#179,.T.);
#111=FACE_OUTER_BOUND('',#184,.T.);
#112=EDGE_LOOP('',(#670,#671,#672,#673));
#113=EDGE_LOOP('',(#674,#675,#676,#677));
#114=EDGE_LOOP('',(#678,#679,#680,#681));
#115=EDGE_LOOP('',(#682,#683,#684,#685));
#116=EDGE_LOOP('',(#686,#687,#688,#689));
#117=EDGE_LOOP('',(#690,#691,#692,#693));
#118=EDGE_LOOP('',(#694,#695,#696,#697));
#119=EDGE_LOOP('',(#698,#699,#700,#701));
#120=EDGE_LOOP('',(#702,#703,#704,#705));
#121=EDGE_LOOP('',(#706,#707,#708,#709));
#122=EDGE_LOOP('',(#710,#711,#712,#713));
#123=EDGE_LOOP('',(#714,#715,#716,#717));
#124=EDGE_LOOP('',(#718,#719,#720,#721));
#125=EDGE_LOOP('',(#722,#723,#724,#725));
#126=EDGE_LOOP('',(#726,#727,#728,#729,#730,#731,#732,#733,#734,#735,#736,
#737,#738,#739,#740,#741,#742,#743,#744,#745,#746,#747));
#127=EDGE_LOOP('',(#748));
#128=EDGE_LOOP('',(#749));
#129=EDGE_LOOP('',(#750));
#130=EDGE_LOOP('',(#751));
#131=EDGE_LOOP('',(#752,#753,#754,#755,#756,#757,#758,#759));
#132=EDGE_LOOP('',(#760,#761,#762,#763));
#133=EDGE_LOOP('',(#764,#765,#766,#767));
#134=EDGE_LOOP('',(#768,#769,#770,#771));
#135=EDGE_LOOP('',(#772));
#136=EDGE_LOOP('',(#773));
#137=EDGE_LOOP('',(#774));
#138=EDGE_LOOP('',(#775));
#139=EDGE_LOOP('',(#776,#777,#778,#779));
#140=EDGE_LOOP('',(#780,#781,#782,#783));
#141=EDGE_LOOP('',(#784,#785,#786,#787));
#142=EDGE_LOOP('',(#788,#789,#790,#791));
#143=EDGE_LOOP('',(#792,#793,#794,#795));
#144=EDGE_LOOP('',(#796,#797,#798,#799));
#145=EDGE_LOOP('',(#800,#801,#802,#803));
#146=EDGE_LOOP('',(#804));
#147=EDGE_LOOP('',(#805));
#148=EDGE_LOOP('',(#806,#807,#808,#809));
#149=EDGE_LOOP('',(#810));
#150=EDGE_LOOP('',(#811));
#151=EDGE_LOOP('',(#812,#813,#814,#815));
#152=EDGE_LOOP('',(#816));
#153=EDGE_LOOP('',(#817));
#154=EDGE_LOOP('',(#818,#819,#820,#821));
#155=EDGE_LOOP('',(#822));
#156=EDGE_LOOP('',(#823));
#157=EDGE_LOOP('',(#824,#825,#826,#827));
#158=EDGE_LOOP('',(#828,#829,#830,#831));
#159=EDGE_LOOP('',(#832,#833,#834,#835));
#160=EDGE_LOOP('',(#836,#837,#838,#839));
#161=EDGE_LOOP('',(#840,#841,#842,#843));
#162=EDGE_LOOP('',(#844,#845,#846,#847));
#163=EDGE_LOOP('',(#848,#849,#850,#851,#852,#853));
#164=EDGE_LOOP('',(#854,#855,#856,#857));
#165=EDGE_LOOP('',(#858,#859,#860,#861,#862,#863));
#166=EDGE_LOOP('',(#864,#865,#866,#867));
#167=EDGE_LOOP('',(#868,#869,#870,#871));
#168=EDGE_LOOP('',(#872,#873,#874,#875));
#169=EDGE_LOOP('',(#876,#877,#878,#879));
#170=EDGE_LOOP('',(#880,#881,#882,#883));
#171=EDGE_LOOP('',(#884,#885,#886,#887));
#172=EDGE_LOOP('',(#888,#889,#890,#891));
#173=EDGE_LOOP('',(#892,#893,#894,#895));
#174=EDGE_LOOP('',(#896,#897,#898,#899));
#175=EDGE_LOOP('',(#900,#901,#902,#903));
#176=EDGE_LOOP('',(#904,#905,#906,#907));
#177=EDGE_LOOP('',(#908,#909,#910,#911));
#178=EDGE_LOOP('',(#912,#913,#914,#915));
#179=EDGE_LOOP('',(#916,#917,#918,#919,#920,#921,#922,#923,#924,#925,#926,
#927,#928,#929,#930,#931));
#180=EDGE_LOOP('',(#932,#933,#934,#935));
#181=EDGE_LOOP('',(#936,#937,#938,#939));
#182=EDGE_LOOP('',(#940,#941,#942,#943));
#183=EDGE_LOOP('',(#944,#945,#946,#947));
#184=EDGE_LOOP('',(#948,#949,#950,#951));
#185=LINE('',#1390,#310);
#186=LINE('',#1392,#311);
#187=LINE('',#1394,#312);
#188=LINE('',#1395,#313);
#189=LINE('',#1398,#314);
#190=LINE('',#1400,#315);
#191=LINE('',#1401,#316);
#192=LINE('',#1404,#317);
#193=LINE('',#1406,#318);
#194=LINE('',#1407,#319);
#195=LINE('',#1409,#320);
#196=LINE('',#1410,#321);
#197=LINE('',#1414,#322);
#198=LINE('',#1416,#323);
#199=LINE('',#1418,#324);
#200=LINE('',#1419,#325);
#201=LINE('',#1422,#326);
#202=LINE('',#1424,#327);
#203=LINE('',#1425,#328);
#204=LINE('',#1428,#329);
#205=LINE('',#1430,#330);
#206=LINE('',#1431,#331);
#207=LINE('',#1433,#332);
#208=LINE('',#1434,#333);
#209=LINE('',#1438,#334);
#210=LINE('',#1440,#335);
#211=LINE('',#1442,#336);
#212=LINE('',#1443,#337);
#213=LINE('',#1446,#338);
#214=LINE('',#1448,#339);
#215=LINE('',#1449,#340);
#216=LINE('',#1452,#341);
#217=LINE('',#1454,#342);
#218=LINE('',#1455,#343);
#219=LINE('',#1457,#344);
#220=LINE('',#1458,#345);
#221=LINE('',#1462,#346);
#222=LINE('',#1464,#347);
#223=LINE('',#1466,#348);
#224=LINE('',#1467,#349);
#225=LINE('',#1471,#350);
#226=LINE('',#1472,#351);
#227=LINE('',#1473,#352);
#228=LINE('',#1477,#353);
#229=LINE('',#1479,#354);
#230=LINE('',#1481,#355);
#231=LINE('',#1483,#356);
#232=LINE('',#1485,#357);
#233=LINE('',#1486,#358);
#234=LINE('',#1488,#359);
#235=LINE('',#1490,#360);
#236=LINE('',#1492,#361);
#237=LINE('',#1494,#362);
#238=LINE('',#1496,#363);
#239=LINE('',#1498,#364);
#240=LINE('',#1500,#365);
#241=LINE('',#1502,#366);
#242=LINE('',#1504,#367);
#243=LINE('',#1506,#368);
#244=LINE('',#1508,#369);
#245=LINE('',#1510,#370);
#246=LINE('',#1512,#371);
#247=LINE('',#1514,#372);
#248=LINE('',#1515,#373);
#249=LINE('',#1525,#374);
#250=LINE('',#1527,#375);
#251=LINE('',#1529,#376);
#252=LINE('',#1530,#377);
#253=LINE('',#1534,#378);
#254=LINE('',#1536,#379);
#255=LINE('',#1538,#380);
#256=LINE('',#1539,#381);
#257=LINE('',#1543,#382);
#258=LINE('',#1544,#383);
#259=LINE('',#1545,#384);
#260=LINE('',#1547,#385);
#261=LINE('',#1549,#386);
#262=LINE('',#1550,#387);
#263=LINE('',#1562,#388);
#264=LINE('',#1563,#389);
#265=LINE('',#1564,#390);
#266=LINE('',#1566,#391);
#267=LINE('',#1568,#392);
#268=LINE('',#1571,#393);
#269=LINE('',#1578,#394);
#270=LINE('',#1585,#395);
#271=LINE('',#1592,#396);
#272=LINE('',#1598,#397);
#273=LINE('',#1600,#398);
#274=LINE('',#1602,#399);
#275=LINE('',#1604,#400);
#276=LINE('',#1606,#401);
#277=LINE('',#1608,#402);
#278=LINE('',#1612,#403);
#279=LINE('',#1613,#404);
#280=LINE('',#1614,#405);
#281=LINE('',#1617,#406);
#282=LINE('',#1618,#407);
#283=LINE('',#1621,#408);
#284=LINE('',#1622,#409);
#285=LINE('',#1625,#410);
#286=LINE('',#1626,#411);
#287=LINE('',#1629,#412);
#288=LINE('',#1630,#413);
#289=LINE('',#1633,#414);
#290=LINE('',#1635,#415);
#291=LINE('',#1636,#416);
#292=LINE('',#1639,#417);
#293=LINE('',#1640,#418);
#294=LINE('',#1642,#419);
#295=LINE('',#1645,#420);
#296=LINE('',#1646,#421);
#297=LINE('',#1649,#422);
#298=LINE('',#1650,#423);
#299=LINE('',#1653,#424);
#300=LINE('',#1654,#425);
#301=LINE('',#1657,#426);
#302=LINE('',#1658,#427);
#303=LINE('',#1661,#428);
#304=LINE('',#1662,#429);
#305=LINE('',#1665,#430);
#306=LINE('',#1666,#431);
#307=LINE('',#1669,#432);
#308=LINE('',#1670,#433);
#309=LINE('',#1672,#434);
#310=VECTOR('',#1125,10.);
#311=VECTOR('',#1126,10.);
#312=VECTOR('',#1127,10.);
#313=VECTOR('',#1128,10.);
#314=VECTOR('',#1131,10.);
#315=VECTOR('',#1132,10.);
#316=VECTOR('',#1133,10.);
#317=VECTOR('',#1136,10.);
#318=VECTOR('',#1137,10.);
#319=VECTOR('',#1138,10.);
#320=VECTOR('',#1141,10.);
#321=VECTOR('',#1142,10.);
#322=VECTOR('',#1145,10.);
#323=VECTOR('',#1146,10.);
#324=VECTOR('',#1147,10.);
#325=VECTOR('',#1148,10.);
#326=VECTOR('',#1151,10.);
#327=VECTOR('',#1152,10.);
#328=VECTOR('',#1153,10.);
#329=VECTOR('',#1156,10.);
#330=VECTOR('',#1157,10.);
#331=VECTOR('',#1158,10.);
#332=VECTOR('',#1161,10.);
#333=VECTOR('',#1162,10.);
#334=VECTOR('',#1165,10.);
#335=VECTOR('',#1166,10.);
#336=VECTOR('',#1167,10.);
#337=VECTOR('',#1168,10.);
#338=VECTOR('',#1171,10.);
#339=VECTOR('',#1172,10.);
#340=VECTOR('',#1173,10.);
#341=VECTOR('',#1176,10.);
#342=VECTOR('',#1177,10.);
#343=VECTOR('',#1178,10.);
#344=VECTOR('',#1181,10.);
#345=VECTOR('',#1182,10.);
#346=VECTOR('',#1185,10.);
#347=VECTOR('',#1186,10.);
#348=VECTOR('',#1187,10.);
#349=VECTOR('',#1188,10.);
#350=VECTOR('',#1191,10.);
#351=VECTOR('',#1192,10.);
#352=VECTOR('',#1193,10.);
#353=VECTOR('',#1196,10.);
#354=VECTOR('',#1197,10.);
#355=VECTOR('',#1198,10.);
#356=VECTOR('',#1199,10.);
#357=VECTOR('',#1200,10.);
#358=VECTOR('',#1201,10.);
#359=VECTOR('',#1202,10.);
#360=VECTOR('',#1203,10.);
#361=VECTOR('',#1204,10.);
#362=VECTOR('',#1205,10.);
#363=VECTOR('',#1206,10.);
#364=VECTOR('',#1207,10.);
#365=VECTOR('',#1208,10.);
#366=VECTOR('',#1209,10.);
#367=VECTOR('',#1210,10.);
#368=VECTOR('',#1211,10.);
#369=VECTOR('',#1212,10.);
#370=VECTOR('',#1213,10.);
#371=VECTOR('',#1214,10.);
#372=VECTOR('',#1215,10.);
#373=VECTOR('',#1216,10.);
#374=VECTOR('',#1227,10.);
#375=VECTOR('',#1228,10.);
#376=VECTOR('',#1229,10.);
#377=VECTOR('',#1230,10.);
#378=VECTOR('',#1233,10.);
#379=VECTOR('',#1234,10.);
#380=VECTOR('',#1235,10.);
#381=VECTOR('',#1236,10.);
#382=VECTOR('',#1239,10.);
#383=VECTOR('',#1240,10.);
#384=VECTOR('',#1241,10.);
#385=VECTOR('',#1242,10.);
#386=VECTOR('',#1243,10.);
#387=VECTOR('',#1244,10.);
#388=VECTOR('',#1255,10.);
#389=VECTOR('',#1256,10.);
#390=VECTOR('',#1257,10.);
#391=VECTOR('',#1260,10.);
#392=VECTOR('',#1263,10.);
#393=VECTOR('',#1266,3.35);
#394=VECTOR('',#1275,3.35);
#395=VECTOR('',#1284,3.35);
#396=VECTOR('',#1293,3.35);
#397=VECTOR('',#1302,2.35);
#398=VECTOR('',#1305,2.35);
#399=VECTOR('',#1308,2.35);
#400=VECTOR('',#1311,2.35);
#401=VECTOR('',#1314,10.);
#402=VECTOR('',#1317,10.);
#403=VECTOR('',#1320,10.);
#404=VECTOR('',#1321,10.);
#405=VECTOR('',#1322,10.);
#406=VECTOR('',#1325,10.);
#407=VECTOR('',#1326,10.);
#408=VECTOR('',#1329,10.);
#409=VECTOR('',#1330,10.);
#410=VECTOR('',#1333,10.);
#411=VECTOR('',#1334,10.);
#412=VECTOR('',#1337,10.);
#413=VECTOR('',#1338,10.);
#414=VECTOR('',#1341,10.);
#415=VECTOR('',#1342,10.);
#416=VECTOR('',#1343,10.);
#417=VECTOR('',#1346,10.);
#418=VECTOR('',#1347,10.);
#419=VECTOR('',#1350,10.);
#420=VECTOR('',#1353,10.);
#421=VECTOR('',#1354,10.);
#422=VECTOR('',#1357,10.);
#423=VECTOR('',#1358,10.);
#424=VECTOR('',#1361,10.);
#425=VECTOR('',#1362,10.);
#426=VECTOR('',#1365,10.);
#427=VECTOR('',#1366,10.);
#428=VECTOR('',#1369,10.);
#429=VECTOR('',#1370,10.);
#430=VECTOR('',#1373,10.);
#431=VECTOR('',#1374,10.);
#432=VECTOR('',#1377,10.);
#433=VECTOR('',#1378,10.);
#434=VECTOR('',#1381,10.);
#435=VERTEX_POINT('',#1388);
#436=VERTEX_POINT('',#1389);
#437=VERTEX_POINT('',#1391);
#438=VERTEX_POINT('',#1393);
#439=VERTEX_POINT('',#1397);
#440=VERTEX_POINT('',#1399);
#441=VERTEX_POINT('',#1403);
#442=VERTEX_POINT('',#1405);
#443=VERTEX_POINT('',#1412);
#444=VERTEX_POINT('',#1413);
#445=VERTEX_POINT('',#1415);
#446=VERTEX_POINT('',#1417);
#447=VERTEX_POINT('',#1421);
#448=VERTEX_POINT('',#1423);
#449=VERTEX_POINT('',#1427);
#450=VERTEX_POINT('',#1429);
#451=VERTEX_POINT('',#1436);
#452=VERTEX_POINT('',#1437);
#453=VERTEX_POINT('',#1439);
#454=VERTEX_POINT('',#1441);
#455=VERTEX_POINT('',#1445);
#456=VERTEX_POINT('',#1447);
#457=VERTEX_POINT('',#1451);
#458=VERTEX_POINT('',#1453);
#459=VERTEX_POINT('',#1460);
#460=VERTEX_POINT('',#1461);
#461=VERTEX_POINT('',#1463);
#462=VERTEX_POINT('',#1465);
#463=VERTEX_POINT('',#1469);
#464=VERTEX_POINT('',#1470);
#465=VERTEX_POINT('',#1475);
#466=VERTEX_POINT('',#1476);
#467=VERTEX_POINT('',#1478);
#468=VERTEX_POINT('',#1480);
#469=VERTEX_POINT('',#1482);
#470=VERTEX_POINT('',#1484);
#471=VERTEX_POINT('',#1487);
#472=VERTEX_POINT('',#1489);
#473=VERTEX_POINT('',#1491);
#474=VERTEX_POINT('',#1493);
#475=VERTEX_POINT('',#1495);
#476=VERTEX_POINT('',#1497);
#477=VERTEX_POINT('',#1499);
#478=VERTEX_POINT('',#1501);
#479=VERTEX_POINT('',#1503);
#480=VERTEX_POINT('',#1505);
#481=VERTEX_POINT('',#1507);
#482=VERTEX_POINT('',#1509);
#483=VERTEX_POINT('',#1511);
#484=VERTEX_POINT('',#1513);
#485=VERTEX_POINT('',#1516);
#486=VERTEX_POINT('',#1518);
#487=VERTEX_POINT('',#1520);
#488=VERTEX_POINT('',#1522);
#489=VERTEX_POINT('',#1526);
#490=VERTEX_POINT('',#1528);
#491=VERTEX_POINT('',#1532);
#492=VERTEX_POINT('',#1533);
#493=VERTEX_POINT('',#1535);
#494=VERTEX_POINT('',#1537);
#495=VERTEX_POINT('',#1541);
#496=VERTEX_POINT('',#1542);
#497=VERTEX_POINT('',#1546);
#498=VERTEX_POINT('',#1548);
#499=VERTEX_POINT('',#1551);
#500=VERTEX_POINT('',#1553);
#501=VERTEX_POINT('',#1555);
#502=VERTEX_POINT('',#1557);
#503=VERTEX_POINT('',#1560);
#504=VERTEX_POINT('',#1561);
#505=VERTEX_POINT('',#1570);
#506=VERTEX_POINT('',#1574);
#507=VERTEX_POINT('',#1577);
#508=VERTEX_POINT('',#1581);
#509=VERTEX_POINT('',#1584);
#510=VERTEX_POINT('',#1588);
#511=VERTEX_POINT('',#1591);
#512=VERTEX_POINT('',#1595);
#513=VERTEX_POINT('',#1610);
#514=VERTEX_POINT('',#1611);
#515=VERTEX_POINT('',#1616);
#516=VERTEX_POINT('',#1620);
#517=VERTEX_POINT('',#1624);
#518=VERTEX_POINT('',#1628);
#519=VERTEX_POINT('',#1632);
#520=VERTEX_POINT('',#1634);
#521=VERTEX_POINT('',#1638);
#522=VERTEX_POINT('',#1644);
#523=VERTEX_POINT('',#1648);
#524=VERTEX_POINT('',#1652);
#525=VERTEX_POINT('',#1656);
#526=VERTEX_POINT('',#1660);
#527=VERTEX_POINT('',#1664);
#528=VERTEX_POINT('',#1668);
#529=EDGE_CURVE('',#435,#436,#185,.T.);
#530=EDGE_CURVE('',#437,#435,#186,.T.);
#531=EDGE_CURVE('',#438,#437,#187,.T.);
#532=EDGE_CURVE('',#438,#436,#188,.T.);
#533=EDGE_CURVE('',#436,#439,#189,.T.);
#534=EDGE_CURVE('',#440,#438,#190,.T.);
#535=EDGE_CURVE('',#440,#439,#191,.T.);
#536=EDGE_CURVE('',#439,#441,#192,.T.);
#537=EDGE_CURVE('',#442,#440,#193,.T.);
#538=EDGE_CURVE('',#442,#441,#194,.T.);
#539=EDGE_CURVE('',#441,#435,#195,.T.);
#540=EDGE_CURVE('',#437,#442,#196,.T.);
#541=EDGE_CURVE('',#443,#444,#197,.T.);
#542=EDGE_CURVE('',#445,#443,#198,.T.);
#543=EDGE_CURVE('',#446,#445,#199,.T.);
#544=EDGE_CURVE('',#446,#444,#200,.T.);
#545=EDGE_CURVE('',#444,#447,#201,.T.);
#546=EDGE_CURVE('',#448,#446,#202,.T.);
#547=EDGE_CURVE('',#448,#447,#203,.T.);
#548=EDGE_CURVE('',#447,#449,#204,.T.);
#549=EDGE_CURVE('',#450,#448,#205,.T.);
#550=EDGE_CURVE('',#450,#449,#206,.T.);
#551=EDGE_CURVE('',#449,#443,#207,.T.);
#552=EDGE_CURVE('',#445,#450,#208,.T.);
#553=EDGE_CURVE('',#451,#452,#209,.T.);
#554=EDGE_CURVE('',#453,#451,#210,.T.);
#555=EDGE_CURVE('',#454,#453,#211,.T.);
#556=EDGE_CURVE('',#454,#452,#212,.T.);
#557=EDGE_CURVE('',#452,#455,#213,.T.);
#558=EDGE_CURVE('',#456,#454,#214,.T.);
#559=EDGE_CURVE('',#456,#455,#215,.T.);
#560=EDGE_CURVE('',#455,#457,#216,.T.);
#561=EDGE_CURVE('',#458,#456,#217,.T.);
#562=EDGE_CURVE('',#458,#457,#218,.T.);
#563=EDGE_CURVE('',#457,#451,#219,.T.);
#564=EDGE_CURVE('',#453,#458,#220,.T.);
#565=EDGE_CURVE('',#459,#460,#221,.T.);
#566=EDGE_CURVE('',#461,#459,#222,.T.);
#567=EDGE_CURVE('',#461,#462,#223,.T.);
#568=EDGE_CURVE('',#460,#462,#224,.T.);
#569=EDGE_CURVE('',#463,#464,#225,.T.);
#570=EDGE_CURVE('',#462,#463,#226,.T.);
#571=EDGE_CURVE('',#464,#461,#227,.T.);
#572=EDGE_CURVE('',#465,#466,#228,.T.);
#573=EDGE_CURVE('',#467,#466,#229,.T.);
#574=EDGE_CURVE('',#468,#467,#230,.T.);
#575=EDGE_CURVE('',#468,#469,#231,.T.);
#576=EDGE_CURVE('',#470,#469,#232,.T.);
#577=EDGE_CURVE('',#459,#470,#233,.T.);
#578=EDGE_CURVE('',#460,#471,#234,.T.);
#579=EDGE_CURVE('',#472,#471,#235,.T.);
#580=EDGE_CURVE('',#472,#473,#236,.T.);
#581=EDGE_CURVE('',#473,#474,#237,.T.);
#582=EDGE_CURVE('',#474,#475,#238,.T.);
#583=EDGE_CURVE('',#475,#476,#239,.T.);
#584=EDGE_CURVE('',#476,#477,#240,.T.);
#585=EDGE_CURVE('',#477,#478,#241,.T.);
#586=EDGE_CURVE('',#478,#479,#242,.T.);
#587=EDGE_CURVE('',#479,#480,#243,.T.);
#588=EDGE_CURVE('',#480,#481,#244,.T.);
#589=EDGE_CURVE('',#481,#482,#245,.T.);
#590=EDGE_CURVE('',#482,#483,#246,.T.);
#591=EDGE_CURVE('',#483,#484,#247,.T.);
#592=EDGE_CURVE('',#484,#465,#248,.T.);
#593=EDGE_CURVE('',#485,#485,#43,.T.);
#594=EDGE_CURVE('',#486,#486,#44,.T.);
#595=EDGE_CURVE('',#487,#487,#45,.T.);
#596=EDGE_CURVE('',#488,#488,#46,.T.);
#597=EDGE_CURVE('',#466,#464,#249,.T.);
#598=EDGE_CURVE('',#489,#470,#250,.T.);
#599=EDGE_CURVE('',#490,#489,#251,.T.);
#600=EDGE_CURVE('',#490,#467,#252,.T.);
#601=EDGE_CURVE('',#491,#492,#253,.T.);
#602=EDGE_CURVE('',#493,#491,#254,.T.);
#603=EDGE_CURVE('',#494,#493,#255,.T.);
#604=EDGE_CURVE('',#492,#494,#256,.T.);
#605=EDGE_CURVE('',#495,#496,#257,.T.);
#606=EDGE_CURVE('',#495,#490,#258,.T.);
#607=EDGE_CURVE('',#496,#489,#259,.T.);
#608=EDGE_CURVE('',#497,#494,#260,.T.);
#609=EDGE_CURVE('',#493,#498,#261,.T.);
#610=EDGE_CURVE('',#498,#497,#262,.T.);
#611=EDGE_CURVE('',#499,#499,#47,.T.);
#612=EDGE_CURVE('',#500,#500,#48,.T.);
#613=EDGE_CURVE('',#501,#501,#49,.T.);
#614=EDGE_CURVE('',#502,#502,#50,.T.);
#615=EDGE_CURVE('',#503,#504,#263,.T.);
#616=EDGE_CURVE('',#497,#503,#264,.T.);
#617=EDGE_CURVE('',#504,#498,#265,.T.);
#618=EDGE_CURVE('',#492,#503,#266,.T.);
#619=EDGE_CURVE('',#504,#491,#267,.T.);
#620=EDGE_CURVE('',#502,#505,#268,.T.);
#621=EDGE_CURVE('',#505,#505,#51,.T.);
#622=EDGE_CURVE('',#506,#506,#52,.T.);
#623=EDGE_CURVE('',#501,#507,#269,.T.);
#624=EDGE_CURVE('',#507,#507,#53,.T.);
#625=EDGE_CURVE('',#508,#508,#54,.T.);
#626=EDGE_CURVE('',#500,#509,#270,.T.);
#627=EDGE_CURVE('',#509,#509,#55,.T.);
#628=EDGE_CURVE('',#510,#510,#56,.T.);
#629=EDGE_CURVE('',#499,#511,#271,.T.);
#630=EDGE_CURVE('',#511,#511,#57,.T.);
#631=EDGE_CURVE('',#512,#512,#58,.T.);
#632=EDGE_CURVE('',#508,#488,#272,.T.);
#633=EDGE_CURVE('',#510,#487,#273,.T.);
#634=EDGE_CURVE('',#512,#486,#274,.T.);
#635=EDGE_CURVE('',#506,#485,#275,.T.);
#636=EDGE_CURVE('',#469,#496,#276,.T.);
#637=EDGE_CURVE('',#495,#468,#277,.T.);
#638=EDGE_CURVE('',#513,#514,#278,.T.);
#639=EDGE_CURVE('',#471,#513,#279,.T.);
#640=EDGE_CURVE('',#514,#463,#280,.T.);
#641=EDGE_CURVE('',#472,#515,#281,.T.);
#642=EDGE_CURVE('',#515,#513,#282,.T.);
#643=EDGE_CURVE('',#516,#465,#283,.T.);
#644=EDGE_CURVE('',#514,#516,#284,.T.);
#645=EDGE_CURVE('',#517,#515,#285,.T.);
#646=EDGE_CURVE('',#473,#517,#286,.T.);
#647=EDGE_CURVE('',#484,#518,#287,.T.);
#648=EDGE_CURVE('',#516,#518,#288,.T.);
#649=EDGE_CURVE('',#481,#519,#289,.T.);
#650=EDGE_CURVE('',#520,#519,#290,.T.);
#651=EDGE_CURVE('',#482,#520,#291,.T.);
#652=EDGE_CURVE('',#521,#520,#292,.T.);
#653=EDGE_CURVE('',#483,#521,#293,.T.);
#654=EDGE_CURVE('',#518,#521,#294,.T.);
#655=EDGE_CURVE('',#522,#517,#295,.T.);
#656=EDGE_CURVE('',#474,#522,#296,.T.);
#657=EDGE_CURVE('',#523,#522,#297,.T.);
#658=EDGE_CURVE('',#475,#523,#298,.T.);
#659=EDGE_CURVE('',#524,#523,#299,.T.);
#660=EDGE_CURVE('',#476,#524,#300,.T.);
#661=EDGE_CURVE('',#525,#524,#301,.T.);
#662=EDGE_CURVE('',#477,#525,#302,.T.);
#663=EDGE_CURVE('',#526,#525,#303,.T.);
#664=EDGE_CURVE('',#478,#526,#304,.T.);
#665=EDGE_CURVE('',#527,#526,#305,.T.);
#666=EDGE_CURVE('',#479,#527,#306,.T.);
#667=EDGE_CURVE('',#528,#527,#307,.T.);
#668=EDGE_CURVE('',#480,#528,#308,.T.);
#669=EDGE_CURVE('',#519,#528,#309,.T.);
#670=ORIENTED_EDGE('',*,*,#529,.F.);
#671=ORIENTED_EDGE('',*,*,#530,.F.);
#672=ORIENTED_EDGE('',*,*,#531,.F.);
#673=ORIENTED_EDGE('',*,*,#532,.T.);
#674=ORIENTED_EDGE('',*,*,#533,.F.);
#675=ORIENTED_EDGE('',*,*,#532,.F.);
#676=ORIENTED_EDGE('',*,*,#534,.F.);
#677=ORIENTED_EDGE('',*,*,#535,.T.);
#678=ORIENTED_EDGE('',*,*,#536,.F.);
#679=ORIENTED_EDGE('',*,*,#535,.F.);
#680=ORIENTED_EDGE('',*,*,#537,.F.);
#681=ORIENTED_EDGE('',*,*,#538,.T.);
#682=ORIENTED_EDGE('',*,*,#539,.F.);
#683=ORIENTED_EDGE('',*,*,#538,.F.);
#684=ORIENTED_EDGE('',*,*,#540,.F.);
#685=ORIENTED_EDGE('',*,*,#530,.T.);
#686=ORIENTED_EDGE('',*,*,#541,.F.);
#687=ORIENTED_EDGE('',*,*,#542,.F.);
#688=ORIENTED_EDGE('',*,*,#543,.F.);
#689=ORIENTED_EDGE('',*,*,#544,.T.);
#690=ORIENTED_EDGE('',*,*,#545,.F.);
#691=ORIENTED_EDGE('',*,*,#544,.F.);
#692=ORIENTED_EDGE('',*,*,#546,.F.);
#693=ORIENTED_EDGE('',*,*,#547,.T.);
#694=ORIENTED_EDGE('',*,*,#548,.F.);
#695=ORIENTED_EDGE('',*,*,#547,.F.);
#696=ORIENTED_EDGE('',*,*,#549,.F.);
#697=ORIENTED_EDGE('',*,*,#550,.T.);
#698=ORIENTED_EDGE('',*,*,#551,.F.);
#699=ORIENTED_EDGE('',*,*,#550,.F.);
#700=ORIENTED_EDGE('',*,*,#552,.F.);
#701=ORIENTED_EDGE('',*,*,#542,.T.);
#702=ORIENTED_EDGE('',*,*,#553,.F.);
#703=ORIENTED_EDGE('',*,*,#554,.F.);
#704=ORIENTED_EDGE('',*,*,#555,.F.);
#705=ORIENTED_EDGE('',*,*,#556,.T.);
#706=ORIENTED_EDGE('',*,*,#557,.F.);
#707=ORIENTED_EDGE('',*,*,#556,.F.);
#708=ORIENTED_EDGE('',*,*,#558,.F.);
#709=ORIENTED_EDGE('',*,*,#559,.T.);
#710=ORIENTED_EDGE('',*,*,#560,.F.);
#711=ORIENTED_EDGE('',*,*,#559,.F.);
#712=ORIENTED_EDGE('',*,*,#561,.F.);
#713=ORIENTED_EDGE('',*,*,#562,.T.);
#714=ORIENTED_EDGE('',*,*,#563,.F.);
#715=ORIENTED_EDGE('',*,*,#562,.F.);
#716=ORIENTED_EDGE('',*,*,#564,.F.);
#717=ORIENTED_EDGE('',*,*,#554,.T.);
#718=ORIENTED_EDGE('',*,*,#565,.F.);
#719=ORIENTED_EDGE('',*,*,#566,.F.);
#720=ORIENTED_EDGE('',*,*,#567,.T.);
#721=ORIENTED_EDGE('',*,*,#568,.F.);
#722=ORIENTED_EDGE('',*,*,#569,.F.);
#723=ORIENTED_EDGE('',*,*,#570,.F.);
#724=ORIENTED_EDGE('',*,*,#567,.F.);
#725=ORIENTED_EDGE('',*,*,#571,.F.);
#726=ORIENTED_EDGE('',*,*,#572,.T.);
#727=ORIENTED_EDGE('',*,*,#573,.F.);
#728=ORIENTED_EDGE('',*,*,#574,.F.);
#729=ORIENTED_EDGE('',*,*,#575,.T.);
#730=ORIENTED_EDGE('',*,*,#576,.F.);
#731=ORIENTED_EDGE('',*,*,#577,.F.);
#732=ORIENTED_EDGE('',*,*,#565,.T.);
#733=ORIENTED_EDGE('',*,*,#578,.T.);
#734=ORIENTED_EDGE('',*,*,#579,.F.);
#735=ORIENTED_EDGE('',*,*,#580,.T.);
#736=ORIENTED_EDGE('',*,*,#581,.T.);
#737=ORIENTED_EDGE('',*,*,#582,.T.);
#738=ORIENTED_EDGE('',*,*,#583,.T.);
#739=ORIENTED_EDGE('',*,*,#584,.T.);
#740=ORIENTED_EDGE('',*,*,#585,.T.);
#741=ORIENTED_EDGE('',*,*,#586,.T.);
#742=ORIENTED_EDGE('',*,*,#587,.T.);
#743=ORIENTED_EDGE('',*,*,#588,.T.);
#744=ORIENTED_EDGE('',*,*,#589,.T.);
#745=ORIENTED_EDGE('',*,*,#590,.T.);
#746=ORIENTED_EDGE('',*,*,#591,.T.);
#747=ORIENTED_EDGE('',*,*,#592,.T.);
#748=ORIENTED_EDGE('',*,*,#593,.T.);
#749=ORIENTED_EDGE('',*,*,#594,.T.);
#750=ORIENTED_EDGE('',*,*,#595,.T.);
#751=ORIENTED_EDGE('',*,*,#596,.T.);
#752=ORIENTED_EDGE('',*,*,#597,.T.);
#753=ORIENTED_EDGE('',*,*,#571,.T.);
#754=ORIENTED_EDGE('',*,*,#566,.T.);
#755=ORIENTED_EDGE('',*,*,#577,.T.);
#756=ORIENTED_EDGE('',*,*,#598,.F.);
#757=ORIENTED_EDGE('',*,*,#599,.F.);
#758=ORIENTED_EDGE('',*,*,#600,.T.);
#759=ORIENTED_EDGE('',*,*,#573,.T.);
#760=ORIENTED_EDGE('',*,*,#601,.F.);
#761=ORIENTED_EDGE('',*,*,#602,.F.);
#762=ORIENTED_EDGE('',*,*,#603,.F.);
#763=ORIENTED_EDGE('',*,*,#604,.F.);
#764=ORIENTED_EDGE('',*,*,#605,.F.);
#765=ORIENTED_EDGE('',*,*,#606,.T.);
#766=ORIENTED_EDGE('',*,*,#599,.T.);
#767=ORIENTED_EDGE('',*,*,#607,.F.);
#768=ORIENTED_EDGE('',*,*,#608,.T.);
#769=ORIENTED_EDGE('',*,*,#603,.T.);
#770=ORIENTED_EDGE('',*,*,#609,.T.);
#771=ORIENTED_EDGE('',*,*,#610,.T.);
#772=ORIENTED_EDGE('',*,*,#611,.T.);
#773=ORIENTED_EDGE('',*,*,#612,.T.);
#774=ORIENTED_EDGE('',*,*,#613,.T.);
#775=ORIENTED_EDGE('',*,*,#614,.T.);
#776=ORIENTED_EDGE('',*,*,#560,.T.);
#777=ORIENTED_EDGE('',*,*,#563,.T.);
#778=ORIENTED_EDGE('',*,*,#553,.T.);
#779=ORIENTED_EDGE('',*,*,#557,.T.);
#780=ORIENTED_EDGE('',*,*,#548,.T.);
#781=ORIENTED_EDGE('',*,*,#551,.T.);
#782=ORIENTED_EDGE('',*,*,#541,.T.);
#783=ORIENTED_EDGE('',*,*,#545,.T.);
#784=ORIENTED_EDGE('',*,*,#536,.T.);
#785=ORIENTED_EDGE('',*,*,#539,.T.);
#786=ORIENTED_EDGE('',*,*,#529,.T.);
#787=ORIENTED_EDGE('',*,*,#533,.T.);
#788=ORIENTED_EDGE('',*,*,#615,.F.);
#789=ORIENTED_EDGE('',*,*,#616,.F.);
#790=ORIENTED_EDGE('',*,*,#610,.F.);
#791=ORIENTED_EDGE('',*,*,#617,.F.);
#792=ORIENTED_EDGE('',*,*,#618,.F.);
#793=ORIENTED_EDGE('',*,*,#604,.T.);
#794=ORIENTED_EDGE('',*,*,#608,.F.);
#795=ORIENTED_EDGE('',*,*,#616,.T.);
#796=ORIENTED_EDGE('',*,*,#619,.F.);
#797=ORIENTED_EDGE('',*,*,#617,.T.);
#798=ORIENTED_EDGE('',*,*,#609,.F.);
#799=ORIENTED_EDGE('',*,*,#602,.T.);
#800=ORIENTED_EDGE('',*,*,#614,.F.);
#801=ORIENTED_EDGE('',*,*,#620,.T.);
#802=ORIENTED_EDGE('',*,*,#621,.T.);
#803=ORIENTED_EDGE('',*,*,#620,.F.);
#804=ORIENTED_EDGE('',*,*,#621,.F.);
#805=ORIENTED_EDGE('',*,*,#622,.F.);
#806=ORIENTED_EDGE('',*,*,#613,.F.);
#807=ORIENTED_EDGE('',*,*,#623,.T.);
#808=ORIENTED_EDGE('',*,*,#624,.T.);
#809=ORIENTED_EDGE('',*,*,#623,.F.);
#810=ORIENTED_EDGE('',*,*,#624,.F.);
#811=ORIENTED_EDGE('',*,*,#625,.F.);
#812=ORIENTED_EDGE('',*,*,#612,.F.);
#813=ORIENTED_EDGE('',*,*,#626,.T.);
#814=ORIENTED_EDGE('',*,*,#627,.T.);
#815=ORIENTED_EDGE('',*,*,#626,.F.);
#816=ORIENTED_EDGE('',*,*,#627,.F.);
#817=ORIENTED_EDGE('',*,*,#628,.F.);
#818=ORIENTED_EDGE('',*,*,#611,.F.);
#819=ORIENTED_EDGE('',*,*,#629,.T.);
#820=ORIENTED_EDGE('',*,*,#630,.T.);
#821=ORIENTED_EDGE('',*,*,#629,.F.);
#822=ORIENTED_EDGE('',*,*,#630,.F.);
#823=ORIENTED_EDGE('',*,*,#631,.F.);
#824=ORIENTED_EDGE('',*,*,#625,.T.);
#825=ORIENTED_EDGE('',*,*,#632,.T.);
#826=ORIENTED_EDGE('',*,*,#596,.F.);
#827=ORIENTED_EDGE('',*,*,#632,.F.);
#828=ORIENTED_EDGE('',*,*,#628,.T.);
#829=ORIENTED_EDGE('',*,*,#633,.T.);
#830=ORIENTED_EDGE('',*,*,#595,.F.);
#831=ORIENTED_EDGE('',*,*,#633,.F.);
#832=ORIENTED_EDGE('',*,*,#631,.T.);
#833=ORIENTED_EDGE('',*,*,#634,.T.);
#834=ORIENTED_EDGE('',*,*,#594,.F.);
#835=ORIENTED_EDGE('',*,*,#634,.F.);
#836=ORIENTED_EDGE('',*,*,#622,.T.);
#837=ORIENTED_EDGE('',*,*,#635,.T.);
#838=ORIENTED_EDGE('',*,*,#593,.F.);
#839=ORIENTED_EDGE('',*,*,#635,.F.);
#840=ORIENTED_EDGE('',*,*,#576,.T.);
#841=ORIENTED_EDGE('',*,*,#636,.T.);
#842=ORIENTED_EDGE('',*,*,#607,.T.);
#843=ORIENTED_EDGE('',*,*,#598,.T.);
#844=ORIENTED_EDGE('',*,*,#574,.T.);
#845=ORIENTED_EDGE('',*,*,#600,.F.);
#846=ORIENTED_EDGE('',*,*,#606,.F.);
#847=ORIENTED_EDGE('',*,*,#637,.T.);
#848=ORIENTED_EDGE('',*,*,#638,.F.);
#849=ORIENTED_EDGE('',*,*,#639,.F.);
#850=ORIENTED_EDGE('',*,*,#578,.F.);
#851=ORIENTED_EDGE('',*,*,#568,.T.);
#852=ORIENTED_EDGE('',*,*,#570,.T.);
#853=ORIENTED_EDGE('',*,*,#640,.F.);
#854=ORIENTED_EDGE('',*,*,#641,.F.);
#855=ORIENTED_EDGE('',*,*,#579,.T.);
#856=ORIENTED_EDGE('',*,*,#639,.T.);
#857=ORIENTED_EDGE('',*,*,#642,.F.);
#858=ORIENTED_EDGE('',*,*,#643,.F.);
#859=ORIENTED_EDGE('',*,*,#644,.F.);
#860=ORIENTED_EDGE('',*,*,#640,.T.);
#861=ORIENTED_EDGE('',*,*,#569,.T.);
#862=ORIENTED_EDGE('',*,*,#597,.F.);
#863=ORIENTED_EDGE('',*,*,#572,.F.);
#864=ORIENTED_EDGE('',*,*,#641,.T.);
#865=ORIENTED_EDGE('',*,*,#645,.F.);
#866=ORIENTED_EDGE('',*,*,#646,.F.);
#867=ORIENTED_EDGE('',*,*,#580,.F.);
#868=ORIENTED_EDGE('',*,*,#643,.T.);
#869=ORIENTED_EDGE('',*,*,#592,.F.);
#870=ORIENTED_EDGE('',*,*,#647,.T.);
#871=ORIENTED_EDGE('',*,*,#648,.F.);
#872=ORIENTED_EDGE('',*,*,#589,.F.);
#873=ORIENTED_EDGE('',*,*,#649,.T.);
#874=ORIENTED_EDGE('',*,*,#650,.F.);
#875=ORIENTED_EDGE('',*,*,#651,.F.);
#876=ORIENTED_EDGE('',*,*,#590,.F.);
#877=ORIENTED_EDGE('',*,*,#651,.T.);
#878=ORIENTED_EDGE('',*,*,#652,.F.);
#879=ORIENTED_EDGE('',*,*,#653,.F.);
#880=ORIENTED_EDGE('',*,*,#591,.F.);
#881=ORIENTED_EDGE('',*,*,#653,.T.);
#882=ORIENTED_EDGE('',*,*,#654,.F.);
#883=ORIENTED_EDGE('',*,*,#647,.F.);
#884=ORIENTED_EDGE('',*,*,#581,.F.);
#885=ORIENTED_EDGE('',*,*,#646,.T.);
#886=ORIENTED_EDGE('',*,*,#655,.F.);
#887=ORIENTED_EDGE('',*,*,#656,.F.);
#888=ORIENTED_EDGE('',*,*,#582,.F.);
#889=ORIENTED_EDGE('',*,*,#656,.T.);
#890=ORIENTED_EDGE('',*,*,#657,.F.);
#891=ORIENTED_EDGE('',*,*,#658,.F.);
#892=ORIENTED_EDGE('',*,*,#583,.F.);
#893=ORIENTED_EDGE('',*,*,#658,.T.);
#894=ORIENTED_EDGE('',*,*,#659,.F.);
#895=ORIENTED_EDGE('',*,*,#660,.F.);
#896=ORIENTED_EDGE('',*,*,#584,.F.);
#897=ORIENTED_EDGE('',*,*,#660,.T.);
#898=ORIENTED_EDGE('',*,*,#661,.F.);
#899=ORIENTED_EDGE('',*,*,#662,.F.);
#900=ORIENTED_EDGE('',*,*,#585,.F.);
#901=ORIENTED_EDGE('',*,*,#662,.T.);
#902=ORIENTED_EDGE('',*,*,#663,.F.);
#903=ORIENTED_EDGE('',*,*,#664,.F.);
#904=ORIENTED_EDGE('',*,*,#586,.F.);
#905=ORIENTED_EDGE('',*,*,#664,.T.);
#906=ORIENTED_EDGE('',*,*,#665,.F.);
#907=ORIENTED_EDGE('',*,*,#666,.F.);
#908=ORIENTED_EDGE('',*,*,#587,.F.);
#909=ORIENTED_EDGE('',*,*,#666,.T.);
#910=ORIENTED_EDGE('',*,*,#667,.F.);
#911=ORIENTED_EDGE('',*,*,#668,.F.);
#912=ORIENTED_EDGE('',*,*,#588,.F.);
#913=ORIENTED_EDGE('',*,*,#668,.T.);
#914=ORIENTED_EDGE('',*,*,#669,.F.);
#915=ORIENTED_EDGE('',*,*,#649,.F.);
#916=ORIENTED_EDGE('',*,*,#644,.T.);
#917=ORIENTED_EDGE('',*,*,#648,.T.);
#918=ORIENTED_EDGE('',*,*,#654,.T.);
#919=ORIENTED_EDGE('',*,*,#652,.T.);
#920=ORIENTED_EDGE('',*,*,#650,.T.);
#921=ORIENTED_EDGE('',*,*,#669,.T.);
#922=ORIENTED_EDGE('',*,*,#667,.T.);
#923=ORIENTED_EDGE('',*,*,#665,.T.);
#924=ORIENTED_EDGE('',*,*,#663,.T.);
#925=ORIENTED_EDGE('',*,*,#661,.T.);
#926=ORIENTED_EDGE('',*,*,#659,.T.);
#927=ORIENTED_EDGE('',*,*,#657,.T.);
#928=ORIENTED_EDGE('',*,*,#655,.T.);
#929=ORIENTED_EDGE('',*,*,#645,.T.);
#930=ORIENTED_EDGE('',*,*,#642,.T.);
#931=ORIENTED_EDGE('',*,*,#638,.T.);
#932=ORIENTED_EDGE('',*,*,#537,.T.);
#933=ORIENTED_EDGE('',*,*,#534,.T.);
#934=ORIENTED_EDGE('',*,*,#531,.T.);
#935=ORIENTED_EDGE('',*,*,#540,.T.);
#936=ORIENTED_EDGE('',*,*,#549,.T.);
#937=ORIENTED_EDGE('',*,*,#546,.T.);
#938=ORIENTED_EDGE('',*,*,#543,.T.);
#939=ORIENTED_EDGE('',*,*,#552,.T.);
#940=ORIENTED_EDGE('',*,*,#561,.T.);
#941=ORIENTED_EDGE('',*,*,#558,.T.);
#942=ORIENTED_EDGE('',*,*,#555,.T.);
#943=ORIENTED_EDGE('',*,*,#564,.T.);
#944=ORIENTED_EDGE('',*,*,#618,.T.);
#945=ORIENTED_EDGE('',*,*,#615,.T.);
#946=ORIENTED_EDGE('',*,*,#619,.T.);
#947=ORIENTED_EDGE('',*,*,#601,.T.);
#948=ORIENTED_EDGE('',*,*,#575,.F.);
#949=ORIENTED_EDGE('',*,*,#637,.F.);
#950=ORIENTED_EDGE('',*,*,#605,.T.);
#951=ORIENTED_EDGE('',*,*,#636,.F.);
#952=PLANE('',#1052);
#953=PLANE('',#1053);
#954=PLANE('',#1054);
#955=PLANE('',#1055);
#956=PLANE('',#1056);
#957=PLANE('',#1057);
#958=PLANE('',#1058);
#959=PLANE('',#1059);
#960=PLANE('',#1060);
#961=PLANE('',#1061);
#962=PLANE('',#1062);
#963=PLANE('',#1063);
#964=PLANE('',#1064);
#965=PLANE('',#1065);
#966=PLANE('',#1066);
#967=PLANE('',#1071);
#968=PLANE('',#1072);
#969=PLANE('',#1073);
#970=PLANE('',#1078);
#971=PLANE('',#1079);
#972=PLANE('',#1080);
#973=PLANE('',#1083);
#974=PLANE('',#1087);
#975=PLANE('',#1091);
#976=PLANE('',#1095);
#977=PLANE('',#1101);
#978=PLANE('',#1102);
#979=PLANE('',#1103);
#980=PLANE('',#1104);
#981=PLANE('',#1105);
#982=PLANE('',#1106);
#983=PLANE('',#1107);
#984=PLANE('',#1108);
#985=PLANE('',#1109);
#986=PLANE('',#1110);
#987=PLANE('',#1111);
#988=PLANE('',#1112);
#989=PLANE('',#1113);
#990=PLANE('',#1114);
#991=PLANE('',#1115);
#992=PLANE('',#1116);
#993=PLANE('',#1117);
#994=PLANE('',#1118);
#995=PLANE('',#1119);
#996=PLANE('',#1120);
#997=ADVANCED_FACE('',(#59),#952,.F.);
#998=ADVANCED_FACE('',(#60),#953,.F.);
#999=ADVANCED_FACE('',(#61),#954,.F.);
#1000=ADVANCED_FACE('',(#62),#955,.F.);
#1001=ADVANCED_FACE('',(#63),#956,.F.);
#1002=ADVANCED_FACE('',(#64),#957,.F.);
#1003=ADVANCED_FACE('',(#65),#958,.F.);
#1004=ADVANCED_FACE('',(#66),#959,.F.);
#1005=ADVANCED_FACE('',(#67),#960,.F.);
#1006=ADVANCED_FACE('',(#68),#961,.F.);
#1007=ADVANCED_FACE('',(#69),#962,.F.);
#1008=ADVANCED_FACE('',(#70),#963,.F.);
#1009=ADVANCED_FACE('',(#71),#964,.F.);
#1010=ADVANCED_FACE('',(#72),#965,.F.);
#1011=ADVANCED_FACE('',(#73,#23,#24,#25,#26),#966,.F.);
#1012=ADVANCED_FACE('',(#74),#967,.T.);
#1013=ADVANCED_FACE('',(#75),#968,.F.);
#1014=ADVANCED_FACE('',(#76,#27,#28,#29,#30,#31,#32,#33,#34),#969,.T.);
#1015=ADVANCED_FACE('',(#77),#970,.F.);
#1016=ADVANCED_FACE('',(#78),#971,.F.);
#1017=ADVANCED_FACE('',(#79),#972,.F.);
#1018=ADVANCED_FACE('',(#80),#15,.F.);
#1019=ADVANCED_FACE('',(#81,#35),#973,.T.);
#1020=ADVANCED_FACE('',(#82),#16,.F.);
#1021=ADVANCED_FACE('',(#83,#36),#974,.T.);
#1022=ADVANCED_FACE('',(#84),#17,.F.);
#1023=ADVANCED_FACE('',(#85,#37),#975,.T.);
#1024=ADVANCED_FACE('',(#86),#18,.F.);
#1025=ADVANCED_FACE('',(#87,#38),#976,.T.);
#1026=ADVANCED_FACE('',(#88),#19,.F.);
#1027=ADVANCED_FACE('',(#89),#20,.F.);
#1028=ADVANCED_FACE('',(#90),#21,.F.);
#1029=ADVANCED_FACE('',(#91),#22,.F.);
#1030=ADVANCED_FACE('',(#92),#977,.T.);
#1031=ADVANCED_FACE('',(#93),#978,.T.);
#1032=ADVANCED_FACE('',(#94),#979,.F.);
#1033=ADVANCED_FACE('',(#95),#980,.F.);
#1034=ADVANCED_FACE('',(#96),#981,.F.);
#1035=ADVANCED_FACE('',(#97),#982,.T.);
#1036=ADVANCED_FACE('',(#98),#983,.T.);
#1037=ADVANCED_FACE('',(#99),#984,.T.);
#1038=ADVANCED_FACE('',(#100),#985,.T.);
#1039=ADVANCED_FACE('',(#101),#986,.T.);
#1040=ADVANCED_FACE('',(#102),#987,.T.);
#1041=ADVANCED_FACE('',(#103),#988,.T.);
#1042=ADVANCED_FACE('',(#104),#989,.T.);
#1043=ADVANCED_FACE('',(#105),#990,.T.);
#1044=ADVANCED_FACE('',(#106),#991,.T.);
#1045=ADVANCED_FACE('',(#107),#992,.T.);
#1046=ADVANCED_FACE('',(#108),#993,.T.);
#1047=ADVANCED_FACE('',(#109),#994,.T.);
#1048=ADVANCED_FACE('',(#110,#39,#40,#41,#42),#995,.T.);
#1049=ADVANCED_FACE('',(#111),#996,.T.);
#1050=CLOSED_SHELL('',(#997,#998,#999,#1000,#1001,#1002,#1003,#1004,#1005,
#1006,#1007,#1008,#1009,#1010,#1011,#1012,#1013,#1014,#1015,#1016,#1017,
#1018,#1019,#1020,#1021,#1022,#1023,#1024,#1025,#1026,#1027,#1028,#1029,
#1030,#1031,#1032,#1033,#1034,#1035,#1036,#1037,#1038,#1039,#1040,#1041,
#1042,#1043,#1044,#1045,#1046,#1047,#1048,#1049));
#1051=AXIS2_PLACEMENT_3D('',#1386,#1121,#1122);
#1052=AXIS2_PLACEMENT_3D('',#1387,#1123,#1124);
#1053=AXIS2_PLACEMENT_3D('',#1396,#1129,#1130);
#1054=AXIS2_PLACEMENT_3D('',#1402,#1134,#1135);
#1055=AXIS2_PLACEMENT_3D('',#1408,#1139,#1140);
#1056=AXIS2_PLACEMENT_3D('',#1411,#1143,#1144);
#1057=AXIS2_PLACEMENT_3D('',#1420,#1149,#1150);
#1058=AXIS2_PLACEMENT_3D('',#1426,#1154,#1155);
#1059=AXIS2_PLACEMENT_3D('',#1432,#1159,#1160);
#1060=AXIS2_PLACEMENT_3D('',#1435,#1163,#1164);
#1061=AXIS2_PLACEMENT_3D('',#1444,#1169,#1170);
#1062=AXIS2_PLACEMENT_3D('',#1450,#1174,#1175);
#1063=AXIS2_PLACEMENT_3D('',#1456,#1179,#1180);
#1064=AXIS2_PLACEMENT_3D('',#1459,#1183,#1184);
#1065=AXIS2_PLACEMENT_3D('',#1468,#1189,#1190);
#1066=AXIS2_PLACEMENT_3D('',#1474,#1194,#1195);
#1067=AXIS2_PLACEMENT_3D('',#1517,#1217,#1218);
#1068=AXIS2_PLACEMENT_3D('',#1519,#1219,#1220);
#1069=AXIS2_PLACEMENT_3D('',#1521,#1221,#1222);
#1070=AXIS2_PLACEMENT_3D('',#1523,#1223,#1224);
#1071=AXIS2_PLACEMENT_3D('',#1524,#1225,#1226);
#1072=AXIS2_PLACEMENT_3D('',#1531,#1231,#1232);
#1073=AXIS2_PLACEMENT_3D('',#1540,#1237,#1238);
#1074=AXIS2_PLACEMENT_3D('',#1552,#1245,#1246);
#1075=AXIS2_PLACEMENT_3D('',#1554,#1247,#1248);
#1076=AXIS2_PLACEMENT_3D('',#1556,#1249,#1250);
#1077=AXIS2_PLACEMENT_3D('',#1558,#1251,#1252);
#1078=AXIS2_PLACEMENT_3D('',#1559,#1253,#1254);
#1079=AXIS2_PLACEMENT_3D('',#1565,#1258,#1259);
#1080=AXIS2_PLACEMENT_3D('',#1567,#1261,#1262);
#1081=AXIS2_PLACEMENT_3D('',#1569,#1264,#1265);
#1082=AXIS2_PLACEMENT_3D('',#1572,#1267,#1268);
#1083=AXIS2_PLACEMENT_3D('',#1573,#1269,#1270);
#1084=AXIS2_PLACEMENT_3D('',#1575,#1271,#1272);
#1085=AXIS2_PLACEMENT_3D('',#1576,#1273,#1274);
#1086=AXIS2_PLACEMENT_3D('',#1579,#1276,#1277);
#1087=AXIS2_PLACEMENT_3D('',#1580,#1278,#1279);
#1088=AXIS2_PLACEMENT_3D('',#1582,#1280,#1281);
#1089=AXIS2_PLACEMENT_3D('',#1583,#1282,#1283);
#1090=AXIS2_PLACEMENT_3D('',#1586,#1285,#1286);
#1091=AXIS2_PLACEMENT_3D('',#1587,#1287,#1288);
#1092=AXIS2_PLACEMENT_3D('',#1589,#1289,#1290);
#1093=AXIS2_PLACEMENT_3D('',#1590,#1291,#1292);
#1094=AXIS2_PLACEMENT_3D('',#1593,#1294,#1295);
#1095=AXIS2_PLACEMENT_3D('',#1594,#1296,#1297);
#1096=AXIS2_PLACEMENT_3D('',#1596,#1298,#1299);
#1097=AXIS2_PLACEMENT_3D('',#1597,#1300,#1301);
#1098=AXIS2_PLACEMENT_3D('',#1599,#1303,#1304);
#1099=AXIS2_PLACEMENT_3D('',#1601,#1306,#1307);
#1100=AXIS2_PLACEMENT_3D('',#1603,#1309,#1310);
#1101=AXIS2_PLACEMENT_3D('',#1605,#1312,#1313);
#1102=AXIS2_PLACEMENT_3D('',#1607,#1315,#1316);
#1103=AXIS2_PLACEMENT_3D('',#1609,#1318,#1319);
#1104=AXIS2_PLACEMENT_3D('',#1615,#1323,#1324);
#1105=AXIS2_PLACEMENT_3D('',#1619,#1327,#1328);
#1106=AXIS2_PLACEMENT_3D('',#1623,#1331,#1332);
#1107=AXIS2_PLACEMENT_3D('',#1627,#1335,#1336);
#1108=AXIS2_PLACEMENT_3D('',#1631,#1339,#1340);
#1109=AXIS2_PLACEMENT_3D('',#1637,#1344,#1345);
#1110=AXIS2_PLACEMENT_3D('',#1641,#1348,#1349);
#1111=AXIS2_PLACEMENT_3D('',#1643,#1351,#1352);
#1112=AXIS2_PLACEMENT_3D('',#1647,#1355,#1356);
#1113=AXIS2_PLACEMENT_3D('',#1651,#1359,#1360);
#1114=AXIS2_PLACEMENT_3D('',#1655,#1363,#1364);
#1115=AXIS2_PLACEMENT_3D('',#1659,#1367,#1368);
#1116=AXIS2_PLACEMENT_3D('',#1663,#1371,#1372);
#1117=AXIS2_PLACEMENT_3D('',#1667,#1375,#1376);
#1118=AXIS2_PLACEMENT_3D('',#1671,#1379,#1380);
#1119=AXIS2_PLACEMENT_3D('',#1673,#1382,#1383);
#1120=AXIS2_PLACEMENT_3D('',#1674,#1384,#1385);
#1121=DIRECTION('axis',(0.,0.,1.));
#1122=DIRECTION('refdir',(1.,0.,0.));
#1123=DIRECTION('center_axis',(1.,-9.88002061470652E-32,0.));
#1124=DIRECTION('ref_axis',(9.88002061470652E-32,1.,-3.46944695195361E-18));
#1125=DIRECTION('',(-9.88002061470652E-32,-1.,0.));
#1126=DIRECTION('',(0.,0.,1.));
#1127=DIRECTION('',(9.88002061470652E-32,1.,0.));
#1128=DIRECTION('',(0.,0.,1.));
#1129=DIRECTION('center_axis',(-9.88002061470652E-32,-1.,0.));
#1130=DIRECTION('ref_axis',(1.,-9.88002061470652E-32,-2.46519032881566E-32));
#1131=DIRECTION('',(-1.,9.88002061470652E-32,0.));
#1132=DIRECTION('',(1.,-9.88002061470652E-32,0.));
#1133=DIRECTION('',(0.,0.,1.));
#1134=DIRECTION('center_axis',(-1.,9.88002061470652E-32,0.));
#1135=DIRECTION('ref_axis',(-9.88002061470652E-32,-1.,3.46944695195361E-18));
#1136=DIRECTION('',(9.88002061470652E-32,1.,0.));
#1137=DIRECTION('',(-9.88002061470652E-32,-1.,0.));
#1138=DIRECTION('',(0.,0.,1.));
#1139=DIRECTION('center_axis',(9.88002061470652E-32,1.,0.));
#1140=DIRECTION('ref_axis',(-1.,9.88002061470652E-32,2.46519032881566E-32));
#1141=DIRECTION('',(1.,-9.88002061470652E-32,0.));
#1142=DIRECTION('',(-1.,9.88002061470652E-32,0.));
#1143=DIRECTION('center_axis',(-9.88002061470652E-32,-1.,0.));
#1144=DIRECTION('ref_axis',(1.,-9.88002061470652E-32,-2.46519032881566E-32));
#1145=DIRECTION('',(-1.,9.88002061470652E-32,0.));
#1146=DIRECTION('',(0.,0.,1.));
#1147=DIRECTION('',(1.,-9.88002061470652E-32,0.));
#1148=DIRECTION('',(0.,0.,1.));
#1149=DIRECTION('center_axis',(-1.,9.88002061470652E-32,0.));
#1150=DIRECTION('ref_axis',(-9.88002061470652E-32,-1.,3.46944695195361E-18));
#1151=DIRECTION('',(9.88002061470652E-32,1.,0.));
#1152=DIRECTION('',(-9.88002061470652E-32,-1.,0.));
#1153=DIRECTION('',(0.,0.,1.));
#1154=DIRECTION('center_axis',(9.88002061470652E-32,1.,0.));
#1155=DIRECTION('ref_axis',(-1.,9.88002061470652E-32,2.46519032881566E-32));
#1156=DIRECTION('',(1.,-9.88002061470652E-32,0.));
#1157=DIRECTION('',(-1.,9.88002061470652E-32,0.));
#1158=DIRECTION('',(0.,0.,1.));
#1159=DIRECTION('center_axis',(1.,-9.88002061470652E-32,0.));
#1160=DIRECTION('ref_axis',(9.88002061470652E-32,1.,-3.46944695195361E-18));
#1161=DIRECTION('',(-9.88002061470652E-32,-1.,0.));
#1162=DIRECTION('',(9.88002061470652E-32,1.,0.));
#1163=DIRECTION('center_axis',(-9.88002061470652E-32,-1.,0.));
#1164=DIRECTION('ref_axis',(1.,-9.88002061470652E-32,-2.46519032881566E-32));
#1165=DIRECTION('',(-1.,9.88002061470652E-32,0.));
#1166=DIRECTION('',(0.,0.,1.));
#1167=DIRECTION('',(1.,-9.88002061470652E-32,0.));
#1168=DIRECTION('',(0.,0.,1.));
#1169=DIRECTION('center_axis',(-1.,9.88002061470652E-32,0.));
#1170=DIRECTION('ref_axis',(-9.88002061470652E-32,-1.,3.46944695195361E-18));
#1171=DIRECTION('',(9.88002061470652E-32,1.,0.));
#1172=DIRECTION('',(-9.88002061470652E-32,-1.,0.));
#1173=DIRECTION('',(0.,0.,1.));
#1174=DIRECTION('center_axis',(9.88002061470652E-32,1.,0.));
#1175=DIRECTION('ref_axis',(-1.,9.88002061470652E-32,2.46519032881566E-32));
#1176=DIRECTION('',(1.,-9.88002061470652E-32,0.));
#1177=DIRECTION('',(-1.,9.88002061470652E-32,0.));
#1178=DIRECTION('',(0.,0.,1.));
#1179=DIRECTION('center_axis',(1.,-9.88002061470652E-32,0.));
#1180=DIRECTION('ref_axis',(9.88002061470652E-32,1.,-3.46944695195361E-18));
#1181=DIRECTION('',(-9.88002061470652E-32,-1.,0.));
#1182=DIRECTION('',(9.88002061470652E-32,1.,0.));
#1183=DIRECTION('center_axis',(-1.,-1.7080353618077E-16,0.));
#1184=DIRECTION('ref_axis',(1.7080353618077E-16,-1.,0.));
#1185=DIRECTION('',(1.7080353618077E-16,-1.,0.));
#1186=DIRECTION('',(0.,0.,-1.));
#1187=DIRECTION('',(1.7080353618077E-16,-1.,0.));
#1188=DIRECTION('',(0.,0.,1.));
#1189=DIRECTION('center_axis',(0.,0.,1.));
#1190=DIRECTION('ref_axis',(1.,0.,0.));
#1191=DIRECTION('',(0.,1.,0.));
#1192=DIRECTION('',(1.,0.,0.));
#1193=DIRECTION('',(-1.,0.,0.));
#1194=DIRECTION('center_axis',(0.,0.,1.));
#1195=DIRECTION('ref_axis',(-1.,0.,0.));
#1196=DIRECTION('',(0.,1.,0.));
#1197=DIRECTION('',(-1.,0.,0.));
#1198=DIRECTION('',(0.,1.,0.));
#1199=DIRECTION('',(-1.,0.,0.));
#1200=DIRECTION('',(0.,-1.,0.));
#1201=DIRECTION('',(-1.,0.,0.));
#1202=DIRECTION('',(-1.,0.,0.));
#1203=DIRECTION('',(0.,-1.,0.));
#1204=DIRECTION('',(-1.,0.,0.));
#1205=DIRECTION('',(0.,-1.,0.));
#1206=DIRECTION('',(1.,0.,0.));
#1207=DIRECTION('',(0.,-1.,0.));
#1208=DIRECTION('',(-1.,-5.19477682048007E-16,0.));
#1209=DIRECTION('',(0.,-1.,0.));
#1210=DIRECTION('',(1.,1.62336775640002E-15,0.));
#1211=DIRECTION('',(0.,-1.,0.));
#1212=DIRECTION('',(1.,0.,0.));
#1213=DIRECTION('',(0.,1.,0.));
#1214=DIRECTION('',(1.,0.,0.));
#1215=DIRECTION('',(1.85037170770859E-16,1.,0.));
#1216=DIRECTION('',(-1.,0.,0.));
#1217=DIRECTION('center_axis',(0.,0.,1.));
#1218=DIRECTION('ref_axis',(-1.,0.,0.));
#1219=DIRECTION('center_axis',(0.,0.,1.));
#1220=DIRECTION('ref_axis',(-1.,0.,0.));
#1221=DIRECTION('center_axis',(0.,0.,1.));
#1222=DIRECTION('ref_axis',(-1.,0.,0.));
#1223=DIRECTION('center_axis',(0.,0.,1.));
#1224=DIRECTION('ref_axis',(-1.,0.,0.));
#1225=DIRECTION('center_axis',(0.,1.,0.));
#1226=DIRECTION('ref_axis',(0.,0.,1.));
#1227=DIRECTION('',(0.,0.,1.));
#1228=DIRECTION('',(0.,0.,-1.));
#1229=DIRECTION('',(-1.,0.,0.));
#1230=DIRECTION('',(0.,0.,-1.));
#1231=DIRECTION('center_axis',(-1.,0.,0.));
#1232=DIRECTION('ref_axis',(0.,0.,1.));
#1233=DIRECTION('',(0.,-1.,0.));
#1234=DIRECTION('',(0.,0.,-1.));
#1235=DIRECTION('',(0.,1.,0.));
#1236=DIRECTION('',(0.,0.,1.));
#1237=DIRECTION('center_axis',(0.,0.,1.));
#1238=DIRECTION('ref_axis',(1.,0.,0.));
#1239=DIRECTION('',(-1.,0.,0.));
#1240=DIRECTION('',(0.,1.,0.));
#1241=DIRECTION('',(0.,1.,0.));
#1242=DIRECTION('',(-1.,0.,0.));
#1243=DIRECTION('',(1.,0.,0.));
#1244=DIRECTION('',(0.,-1.,0.));
#1245=DIRECTION('center_axis',(0.,0.,-1.));
#1246=DIRECTION('ref_axis',(-1.,0.,0.));
#1247=DIRECTION('center_axis',(0.,0.,-1.));
#1248=DIRECTION('ref_axis',(-1.,0.,0.));
#1249=DIRECTION('center_axis',(0.,0.,-1.));
#1250=DIRECTION('ref_axis',(-1.,0.,0.));
#1251=DIRECTION('center_axis',(0.,0.,-1.));
#1252=DIRECTION('ref_axis',(-1.,0.,0.));
#1253=DIRECTION('center_axis',(1.,0.,0.));
#1254=DIRECTION('ref_axis',(0.,0.,-1.));
#1255=DIRECTION('',(0.,1.,0.));
#1256=DIRECTION('',(0.,0.,-1.));
#1257=DIRECTION('',(0.,0.,1.));
#1258=DIRECTION('center_axis',(0.,-1.,0.));
#1259=DIRECTION('ref_axis',(0.,0.,-1.));
#1260=DIRECTION('',(1.,0.,0.));
#1261=DIRECTION('center_axis',(0.,1.,0.));
#1262=DIRECTION('ref_axis',(1.,0.,0.));
#1263=DIRECTION('',(-1.,0.,0.));
#1264=DIRECTION('center_axis',(0.,0.,-1.));
#1265=DIRECTION('ref_axis',(-1.,0.,0.));
#1266=DIRECTION('',(0.,0.,-1.));
#1267=DIRECTION('center_axis',(0.,0.,-1.));
#1268=DIRECTION('ref_axis',(-1.,0.,0.));
#1269=DIRECTION('center_axis',(0.,0.,1.));
#1270=DIRECTION('ref_axis',(-1.,0.,0.));
#1271=DIRECTION('center_axis',(0.,0.,1.));
#1272=DIRECTION('ref_axis',(-1.,0.,0.));
#1273=DIRECTION('center_axis',(0.,0.,-1.));
#1274=DIRECTION('ref_axis',(-1.,0.,0.));
#1275=DIRECTION('',(0.,0.,-1.));
#1276=DIRECTION('center_axis',(0.,0.,-1.));
#1277=DIRECTION('ref_axis',(-1.,0.,0.));
#1278=DIRECTION('center_axis',(0.,0.,1.));
#1279=DIRECTION('ref_axis',(-1.,0.,0.));
#1280=DIRECTION('center_axis',(0.,0.,1.));
#1281=DIRECTION('ref_axis',(-1.,0.,0.));
#1282=DIRECTION('center_axis',(0.,0.,-1.));
#1283=DIRECTION('ref_axis',(-1.,0.,0.));
#1284=DIRECTION('',(0.,0.,-1.));
#1285=DIRECTION('center_axis',(0.,0.,-1.));
#1286=DIRECTION('ref_axis',(-1.,0.,0.));
#1287=DIRECTION('center_axis',(0.,0.,1.));
#1288=DIRECTION('ref_axis',(-1.,0.,0.));
#1289=DIRECTION('center_axis',(0.,0.,1.));
#1290=DIRECTION('ref_axis',(-1.,0.,0.));
#1291=DIRECTION('center_axis',(0.,0.,-1.));
#1292=DIRECTION('ref_axis',(-1.,0.,0.));
#1293=DIRECTION('',(0.,0.,-1.));
#1294=DIRECTION('center_axis',(0.,0.,-1.));
#1295=DIRECTION('ref_axis',(-1.,0.,0.));
#1296=DIRECTION('center_axis',(0.,0.,1.));
#1297=DIRECTION('ref_axis',(-1.,0.,0.));
#1298=DIRECTION('center_axis',(0.,0.,1.));
#1299=DIRECTION('ref_axis',(-1.,0.,0.));
#1300=DIRECTION('center_axis',(0.,0.,-1.));
#1301=DIRECTION('ref_axis',(-1.,0.,0.));
#1302=DIRECTION('',(0.,0.,-1.));
#1303=DIRECTION('center_axis',(0.,0.,-1.));
#1304=DIRECTION('ref_axis',(-1.,0.,0.));
#1305=DIRECTION('',(0.,0.,-1.));
#1306=DIRECTION('center_axis',(0.,0.,-1.));
#1307=DIRECTION('ref_axis',(-1.,0.,0.));
#1308=DIRECTION('',(0.,0.,-1.));
#1309=DIRECTION('center_axis',(0.,0.,-1.));
#1310=DIRECTION('ref_axis',(-1.,0.,0.));
#1311=DIRECTION('',(0.,0.,-1.));
#1312=DIRECTION('center_axis',(-1.,0.,0.));
#1313=DIRECTION('ref_axis',(0.,0.,1.));
#1314=DIRECTION('',(0.,0.,1.));
#1315=DIRECTION('center_axis',(1.,0.,0.));
#1316=DIRECTION('ref_axis',(0.,0.,-1.));
#1317=DIRECTION('',(0.,0.,-1.));
#1318=DIRECTION('center_axis',(0.,-1.,0.));
#1319=DIRECTION('ref_axis',(0.,0.,-1.));
#1320=DIRECTION('',(1.,0.,0.));
#1321=DIRECTION('',(0.,0.,-1.));
#1322=DIRECTION('',(0.,0.,1.));
#1323=DIRECTION('center_axis',(-1.,0.,0.));
#1324=DIRECTION('ref_axis',(0.,0.,-1.));
#1325=DIRECTION('',(0.,0.,-1.));
#1326=DIRECTION('',(0.,-1.,0.));
#1327=DIRECTION('center_axis',(1.,0.,0.));
#1328=DIRECTION('ref_axis',(0.,0.,1.));
#1329=DIRECTION('',(0.,0.,1.));
#1330=DIRECTION('',(0.,1.,0.));
#1331=DIRECTION('center_axis',(0.,1.,0.));
#1332=DIRECTION('ref_axis',(1.,0.,0.));
#1333=DIRECTION('',(1.,0.,0.));
#1334=DIRECTION('',(0.,0.,-1.));
#1335=DIRECTION('center_axis',(0.,1.,0.));
#1336=DIRECTION('ref_axis',(1.,0.,0.));
#1337=DIRECTION('',(0.,0.,-1.));
#1338=DIRECTION('',(1.,0.,0.));
#1339=DIRECTION('center_axis',(1.,0.,0.));
#1340=DIRECTION('ref_axis',(0.,-1.,0.));
#1341=DIRECTION('',(0.,0.,-1.));
#1342=DIRECTION('',(0.,-1.,0.));
#1343=DIRECTION('',(0.,0.,-1.));
#1344=DIRECTION('center_axis',(0.,-1.,0.));
#1345=DIRECTION('ref_axis',(-1.,0.,0.));
#1346=DIRECTION('',(-1.,0.,0.));
#1347=DIRECTION('',(0.,0.,-1.));
#1348=DIRECTION('center_axis',(1.,-1.85037170770859E-16,0.));
#1349=DIRECTION('ref_axis',(-1.85037170770859E-16,-1.,0.));
#1350=DIRECTION('',(-1.85037170770859E-16,-1.,0.));
#1351=DIRECTION('center_axis',(-1.,0.,0.));
#1352=DIRECTION('ref_axis',(0.,1.,0.));
#1353=DIRECTION('',(0.,1.,0.));
#1354=DIRECTION('',(0.,0.,-1.));
#1355=DIRECTION('center_axis',(0.,-1.,0.));
#1356=DIRECTION('ref_axis',(-1.,0.,0.));
#1357=DIRECTION('',(-1.,0.,0.));
#1358=DIRECTION('',(0.,0.,-1.));
#1359=DIRECTION('center_axis',(-1.,0.,0.));
#1360=DIRECTION('ref_axis',(0.,1.,0.));
#1361=DIRECTION('',(0.,1.,0.));
#1362=DIRECTION('',(0.,0.,-1.));
#1363=DIRECTION('center_axis',(-5.19477682048007E-16,1.,0.));
#1364=DIRECTION('ref_axis',(1.,5.19477682048007E-16,0.));
#1365=DIRECTION('',(1.,5.19477682048007E-16,0.));
#1366=DIRECTION('',(0.,0.,-1.));
#1367=DIRECTION('center_axis',(-1.,0.,0.));
#1368=DIRECTION('ref_axis',(0.,1.,0.));
#1369=DIRECTION('',(0.,1.,0.));
#1370=DIRECTION('',(0.,0.,-1.));
#1371=DIRECTION('center_axis',(1.62336775640002E-15,-1.,0.));
#1372=DIRECTION('ref_axis',(-1.,-1.62336775640002E-15,0.));
#1373=DIRECTION('',(-1.,-1.62336775640002E-15,0.));
#1374=DIRECTION('',(0.,0.,-1.));
#1375=DIRECTION('center_axis',(-1.,0.,0.));
#1376=DIRECTION('ref_axis',(0.,1.,0.));
#1377=DIRECTION('',(0.,1.,0.));
#1378=DIRECTION('',(0.,0.,-1.));
#1379=DIRECTION('center_axis',(0.,-1.,0.));
#1380=DIRECTION('ref_axis',(-1.,0.,0.));
#1381=DIRECTION('',(-1.,0.,0.));
#1382=DIRECTION('center_axis',(0.,0.,-1.));
#1383=DIRECTION('ref_axis',(-1.,0.,0.));
#1384=DIRECTION('center_axis',(0.,-1.,0.));
#1385=DIRECTION('ref_axis',(1.,0.,0.));
#1386=CARTESIAN_POINT('',(0.,0.,0.));
#1387=CARTESIAN_POINT('Origin',(32.6607748350565,11.5739976227288,-1.87599539351559));
#1388=CARTESIAN_POINT('',(32.6607748350565,13.0000001892149,9.495));
#1389=CARTESIAN_POINT('',(32.6607748350565,11.5739976227288,9.495));
#1390=CARTESIAN_POINT('',(32.6607748350565,3.28699881136441,9.495));
#1391=CARTESIAN_POINT('',(32.6607748350565,13.0000001892149,4.995));
#1392=CARTESIAN_POINT('',(32.6607748350565,13.0000001892149,-1.87599539351559));
#1393=CARTESIAN_POINT('',(32.6607748350565,11.5739976227288,4.995));
#1394=CARTESIAN_POINT('',(32.6607748350565,2.80130348674974,4.995));
#1395=CARTESIAN_POINT('',(32.6607748350565,11.5739976227288,-1.87599539351559));
#1396=CARTESIAN_POINT('Origin',(20.0000003083463,11.5739976227288,-1.87599539351559));
#1397=CARTESIAN_POINT('',(20.0000003083463,11.5739976227288,9.495));
#1398=CARTESIAN_POINT('',(10.0000001541732,11.5739976227288,9.495));
#1399=CARTESIAN_POINT('',(20.0000003083463,11.5739976227288,4.995));
#1400=CARTESIAN_POINT('',(10.0000001541732,11.5739976227288,4.995));
#1401=CARTESIAN_POINT('',(20.0000003083463,11.5739976227288,-1.87599539351559));
#1402=CARTESIAN_POINT('Origin',(20.0000003083463,13.0000001892149,-1.87599539351559));
#1403=CARTESIAN_POINT('',(20.0000003083463,13.0000001892149,9.495));
#1404=CARTESIAN_POINT('',(20.0000003083463,4.00000009460745,9.495));
#1405=CARTESIAN_POINT('',(20.0000003083463,13.0000001892149,4.995));
#1406=CARTESIAN_POINT('',(20.0000003083463,3.51430476999278,4.995));
#1407=CARTESIAN_POINT('',(20.0000003083463,13.0000001892149,-1.87599539351559));
#1408=CARTESIAN_POINT('Origin',(32.6607748350565,13.0000001892149,-1.87599539351559));
#1409=CARTESIAN_POINT('',(16.3303874175283,13.0000001892149,9.495));
#1410=CARTESIAN_POINT('',(16.3303874175283,13.0000001892149,4.995));
#1411=CARTESIAN_POINT('Origin',(20.0000003083463,15.0000002190172,-1.87599539351559));
#1412=CARTESIAN_POINT('',(32.6712205951118,15.0000002190172,9.495));
#1413=CARTESIAN_POINT('',(20.0000003083463,15.0000002190172,9.495));
#1414=CARTESIAN_POINT('',(10.0000001541732,15.0000002190172,9.495));
#1415=CARTESIAN_POINT('',(32.6712205951118,15.0000002190172,4.995));
#1416=CARTESIAN_POINT('',(32.6712205951118,15.0000002190172,-1.87599539351559));
#1417=CARTESIAN_POINT('',(20.0000003083463,15.0000002190172,4.995));
#1418=CARTESIAN_POINT('',(10.0000001541732,15.0000002190172,4.995));
#1419=CARTESIAN_POINT('',(20.0000003083463,15.0000002190172,-1.87599539351559));
#1420=CARTESIAN_POINT('Origin',(20.0000003083463,16.4317139777821,-1.87599539351559));
#1421=CARTESIAN_POINT('',(20.0000003083463,16.4317139777821,9.495));
#1422=CARTESIAN_POINT('',(20.0000003083463,5.71585698889103,9.495));
#1423=CARTESIAN_POINT('',(20.0000003083463,16.4317139777821,4.995));
#1424=CARTESIAN_POINT('',(20.0000003083463,5.23016166427636,4.995));
#1425=CARTESIAN_POINT('',(20.0000003083463,16.4317139777821,-1.87599539351559));
#1426=CARTESIAN_POINT('Origin',(32.6712205951118,16.4317139777821,-1.87599539351559));
#1427=CARTESIAN_POINT('',(32.6712205951118,16.4317139777821,9.495));
#1428=CARTESIAN_POINT('',(16.3356102975559,16.4317139777821,9.495));
#1429=CARTESIAN_POINT('',(32.6712205951118,16.4317139777821,4.995));
#1430=CARTESIAN_POINT('',(16.3356102975559,16.4317139777821,4.995));
#1431=CARTESIAN_POINT('',(32.6712205951118,16.4317139777821,-1.87599539351559));
#1432=CARTESIAN_POINT('Origin',(32.6712205951118,15.0000002190172,-1.87599539351559));
#1433=CARTESIAN_POINT('',(32.6712205951118,5.00000010950861,9.495));
#1434=CARTESIAN_POINT('',(32.6712205951118,4.51430478489394,4.995));
#1435=CARTESIAN_POINT('Origin',(20.0000003083463,18.0000002637207,-1.87599539351559));
#1436=CARTESIAN_POINT('',(32.6712205951118,18.0000002637207,9.495));
#1437=CARTESIAN_POINT('',(20.0000003083463,18.0000002637207,9.495));
#1438=CARTESIAN_POINT('',(10.0000001541732,18.0000002637207,9.495));
#1439=CARTESIAN_POINT('',(32.6712205951118,18.0000002637207,4.995));
#1440=CARTESIAN_POINT('',(32.6712205951118,18.0000002637207,-1.87599539351559));
#1441=CARTESIAN_POINT('',(20.0000003083463,18.0000002637207,4.995));
#1442=CARTESIAN_POINT('',(10.0000001541732,18.0000002637207,4.995));
#1443=CARTESIAN_POINT('',(20.0000003083463,18.0000002637207,-1.87599539351559));
#1444=CARTESIAN_POINT('Origin',(20.0000003083463,19.3967854617395,-1.87599539351559));
#1445=CARTESIAN_POINT('',(20.0000003083463,19.3967854617395,9.495));
#1446=CARTESIAN_POINT('',(20.0000003083463,7.19839273086973,9.495));
#1447=CARTESIAN_POINT('',(20.0000003083463,19.3967854617395,4.995));
#1448=CARTESIAN_POINT('',(20.0000003083463,6.71269740625506,4.995));
#1449=CARTESIAN_POINT('',(20.0000003083463,19.3967854617395,-1.87599539351559));
#1450=CARTESIAN_POINT('Origin',(32.6712205951118,19.3967854617395,-1.87599539351559));
#1451=CARTESIAN_POINT('',(32.6712205951118,19.3967854617395,9.495));
#1452=CARTESIAN_POINT('',(16.3356102975559,19.3967854617395,9.495));
#1453=CARTESIAN_POINT('',(32.6712205951118,19.3967854617395,4.995));
#1454=CARTESIAN_POINT('',(16.3356102975559,19.3967854617395,4.995));
#1455=CARTESIAN_POINT('',(32.6712205951118,19.3967854617395,-1.87599539351559));
#1456=CARTESIAN_POINT('Origin',(32.6712205951118,18.0000002637207,-1.87599539351559));
#1457=CARTESIAN_POINT('',(32.6712205951118,6.50000013186035,9.495));
#1458=CARTESIAN_POINT('',(32.6712205951118,6.01430480724568,4.995));
#1459=CARTESIAN_POINT('Origin',(-15.0000002235174,31.000000461936,6.495));
#1460=CARTESIAN_POINT('',(-15.0000002235174,31.000000461936,6.495));
#1461=CARTESIAN_POINT('',(-15.0000002235174,18.,6.495));
#1462=CARTESIAN_POINT('',(-15.0000002235174,13.000000230968,6.495));
#1463=CARTESIAN_POINT('',(-15.0000002235174,31.000000461936,7.995));
#1464=CARTESIAN_POINT('',(-15.0000002235174,31.,6.495));
#1465=CARTESIAN_POINT('',(-15.0000002235174,18.,7.995));
#1466=CARTESIAN_POINT('',(-15.0000002235174,18.,7.995));
#1467=CARTESIAN_POINT('',(-15.0000002235174,18.,6.495));
#1468=CARTESIAN_POINT('Origin',(-4.00260279515947,24.500000230968,7.995));
#1469=CARTESIAN_POINT('',(6.99479463319849,18.,7.995));
#1470=CARTESIAN_POINT('',(6.99479463319849,31.000000461936,7.995));
#1471=CARTESIAN_POINT('',(6.99479463319849,31.000000461936,7.995));
#1472=CARTESIAN_POINT('',(6.99479463319849,18.,7.995));
#1473=CARTESIAN_POINT('',(25.9986986024203,31.,7.995));
#1474=CARTESIAN_POINT('Origin',(8.88178419700125E-15,-5.,6.495));
#1475=CARTESIAN_POINT('',(6.99479463319849,25.,6.495));
#1476=CARTESIAN_POINT('',(6.99479463319849,31.000000461936,6.495));
#1477=CARTESIAN_POINT('',(6.99479463319849,6.5,6.495));
#1478=CARTESIAN_POINT('',(57.5,31.,6.495));
#1479=CARTESIAN_POINT('',(-56.,31.,6.495));
#1480=CARTESIAN_POINT('',(57.5,-39.5,6.495));
#1481=CARTESIAN_POINT('',(57.5,29.5,6.495));
#1482=CARTESIAN_POINT('',(-57.5,-39.5,6.495));
#1483=CARTESIAN_POINT('',(-56.,-39.5,6.495));
#1484=CARTESIAN_POINT('',(-57.5,31.,6.495));
#1485=CARTESIAN_POINT('',(-57.5,29.5,6.495));
#1486=CARTESIAN_POINT('',(-56.,31.,6.495));
#1487=CARTESIAN_POINT('',(-15.0068617718237,18.,6.495));
#1488=CARTESIAN_POINT('',(6.99479463319849,18.,6.495));
#1489=CARTESIAN_POINT('',(-15.0068617718237,25.,6.495));
#1490=CARTESIAN_POINT('',(-15.0068617718237,25.,6.495));
#1491=CARTESIAN_POINT('',(-49.5,25.,6.495));
#1492=CARTESIAN_POINT('',(-24.75,25.,6.495));
#1493=CARTESIAN_POINT('',(-49.5,-23.,6.495));
#1494=CARTESIAN_POINT('',(-49.5,-14.,6.495));
#1495=CARTESIAN_POINT('',(31.4010993610349,-23.,6.495));
#1496=CARTESIAN_POINT('',(15.7005496805175,-23.,6.495));
#1497=CARTESIAN_POINT('',(31.4010993610349,-32.0000004768372,6.495));
#1498=CARTESIAN_POINT('',(31.4010993610349,-18.5000002384186,6.495));
#1499=CARTESIAN_POINT('',(-36.9890125066041,-32.0000004768372,6.495));
#1500=CARTESIAN_POINT('',(-18.4945062533021,-32.0000004768372,6.495));
#1501=CARTESIAN_POINT('',(-36.9890125066041,-36.9425625969175,6.495));
#1502=CARTESIAN_POINT('',(-36.9890125066041,-20.9712812984588,6.495));
#1503=CARTESIAN_POINT('',(31.4010993610349,-36.9425625969174,6.495));
#1504=CARTESIAN_POINT('',(15.7005496805175,-36.9425625969174,6.495));
#1505=CARTESIAN_POINT('',(31.4010993610349,-36.9427812984587,6.495));
#1506=CARTESIAN_POINT('',(31.4010993610349,-20.9713906492293,6.495));
#1507=CARTESIAN_POINT('',(38.4751875815604,-36.9427812984587,6.495));
#1508=CARTESIAN_POINT('',(19.2375937907802,-36.9427812984587,6.495));
#1509=CARTESIAN_POINT('',(38.4751875815604,-23.,6.495));
#1510=CARTESIAN_POINT('',(38.4751875815604,-14.,6.495));
#1511=CARTESIAN_POINT('',(49.5,-23.,6.495));
#1512=CARTESIAN_POINT('',(24.75,-23.,6.495));
#1513=CARTESIAN_POINT('',(49.5,25.,6.495));
#1514=CARTESIAN_POINT('',(49.5,10.,6.495));
#1515=CARTESIAN_POINT('',(-24.75,25.,6.495));
#1516=CARTESIAN_POINT('',(-47.6500007450581,-34.0000005066395,6.495));
#1517=CARTESIAN_POINT('Origin',(-50.0000007450581,-34.0000005066395,6.495));
#1518=CARTESIAN_POINT('',(55.3500007897615,27.0000004023314,6.495));
#1519=CARTESIAN_POINT('Origin',(53.0000007897615,27.0000004023314,6.495));
#1520=CARTESIAN_POINT('',(54.3500007748604,-34.0000005066395,6.495));
#1521=CARTESIAN_POINT('Origin',(52.0000007748604,-34.0000005066395,6.495));
#1522=CARTESIAN_POINT('',(-50.6500007897615,27.0000004023314,6.495));
#1523=CARTESIAN_POINT('Origin',(-53.0000007897615,27.0000004023314,6.495));
#1524=CARTESIAN_POINT('Origin',(56.,31.,6.495));
#1525=CARTESIAN_POINT('',(6.99479463319848,31.,6.495));
#1526=CARTESIAN_POINT('',(-57.5,31.,9.495));
#1527=CARTESIAN_POINT('',(-57.5,31.,6.495));
#1528=CARTESIAN_POINT('',(57.5,31.,9.495));
#1529=CARTESIAN_POINT('',(-56.,31.,9.495));
#1530=CARTESIAN_POINT('',(57.5,31.,6.495));
#1531=CARTESIAN_POINT('Origin',(-40.5000005857234,-20.0000003025234,9.495));
#1532=CARTESIAN_POINT('',(-40.5000005857234,-4.5002002124761E-9,4.995));
#1533=CARTESIAN_POINT('',(-40.5000005857234,-21.0000003025234,4.995));
#1534=CARTESIAN_POINT('',(-40.5000005857234,-12.9856954758764,4.995));
#1535=CARTESIAN_POINT('',(-40.5000005857234,-4.5002002124761E-9,9.495));
#1536=CARTESIAN_POINT('',(-40.5000005857234,-4.5002002124761E-9,9.495));
#1537=CARTESIAN_POINT('',(-40.5000005857234,-21.0000003025234,9.495));
#1538=CARTESIAN_POINT('',(-40.5000005857234,-12.5000001512617,9.495));
#1539=CARTESIAN_POINT('',(-40.5000005857234,-21.0000003025234,9.495));
#1540=CARTESIAN_POINT('Origin',(8.88178419700125E-15,-5.,9.495));
#1541=CARTESIAN_POINT('',(57.5,-39.5,9.495));
#1542=CARTESIAN_POINT('',(-57.5,-39.5,9.495));
#1543=CARTESIAN_POINT('',(-56.,-39.5,9.495));
#1544=CARTESIAN_POINT('',(57.5,29.5,9.495));
#1545=CARTESIAN_POINT('',(-57.5,29.5,9.495));
#1546=CARTESIAN_POINT('',(37.500000561666,-21.0000003025234,9.495));
#1547=CARTESIAN_POINT('',(-20.0000002928617,-21.0000003025234,9.495));
#1548=CARTESIAN_POINT('',(37.500000561666,-4.5002002124761E-9,9.495));
#1549=CARTESIAN_POINT('',(-20.0000002928617,-4.5002002124761E-9,9.495));
#1550=CARTESIAN_POINT('',(37.500000561666,-2.5000000022501,9.495));
#1551=CARTESIAN_POINT('',(56.3500007897615,27.0000004023314,9.495));
#1552=CARTESIAN_POINT('Origin',(53.0000007897615,27.0000004023314,9.495));
#1553=CARTESIAN_POINT('',(55.3500007748604,-34.0000005066395,9.495));
#1554=CARTESIAN_POINT('Origin',(52.0000007748604,-34.0000005066395,9.495));
#1555=CARTESIAN_POINT('',(-49.6500007897615,27.0000004023314,9.495));
#1556=CARTESIAN_POINT('Origin',(-53.0000007897615,27.0000004023314,9.495));
#1557=CARTESIAN_POINT('',(-46.6500007450581,-34.0000005066395,9.495));
#1558=CARTESIAN_POINT('Origin',(-50.0000007450581,-34.0000005066395,9.495));
#1559=CARTESIAN_POINT('Origin',(37.500000561666,-4.5002002124761E-9,9.495));
#1560=CARTESIAN_POINT('',(37.500000561666,-21.0000003025234,4.995));
#1561=CARTESIAN_POINT('',(37.500000561666,-4.5002002124761E-9,4.995));
#1562=CARTESIAN_POINT('',(37.500000561666,-2.98569532686477,4.995));
#1563=CARTESIAN_POINT('',(37.500000561666,-21.0000003025234,9.495));
#1564=CARTESIAN_POINT('',(37.500000561666,-4.5002002124761E-9,9.495));
#1565=CARTESIAN_POINT('Origin',(37.000000561666,-21.0000003025234,9.495));
#1566=CARTESIAN_POINT('',(-20.0000002928617,-21.0000003025234,4.995));
#1567=CARTESIAN_POINT('Origin',(-40.0000005857234,-4.5002002124761E-9,9.495));
#1568=CARTESIAN_POINT('',(-20.0000002928617,-4.5002002124761E-9,4.995));
#1569=CARTESIAN_POINT('Origin',(-50.0000007450581,-34.0000005066395,9.495));
#1570=CARTESIAN_POINT('',(-46.6500007450581,-34.0000005066395,8.995));
#1571=CARTESIAN_POINT('',(-46.6500007450581,-34.0000005066395,9.495));
#1572=CARTESIAN_POINT('Origin',(-50.0000007450581,-34.0000005066395,8.995));
#1573=CARTESIAN_POINT('Origin',(-50.0000007450581,-34.0000005066395,8.995));
#1574=CARTESIAN_POINT('',(-47.6500007450581,-34.0000005066395,8.995));
#1575=CARTESIAN_POINT('Origin',(-50.0000007450581,-34.0000005066395,8.995));
#1576=CARTESIAN_POINT('Origin',(-53.0000007897615,27.0000004023314,9.495));
#1577=CARTESIAN_POINT('',(-49.6500007897615,27.0000004023314,8.995));
#1578=CARTESIAN_POINT('',(-49.6500007897615,27.0000004023314,9.495));
#1579=CARTESIAN_POINT('Origin',(-53.0000007897615,27.0000004023314,8.995));
#1580=CARTESIAN_POINT('Origin',(-53.0000007897615,27.0000004023314,8.995));
#1581=CARTESIAN_POINT('',(-50.6500007897615,27.0000004023314,8.995));
#1582=CARTESIAN_POINT('Origin',(-53.0000007897615,27.0000004023314,8.995));
#1583=CARTESIAN_POINT('Origin',(52.0000007748604,-34.0000005066395,9.495));
#1584=CARTESIAN_POINT('',(55.3500007748604,-34.0000005066395,8.995));
#1585=CARTESIAN_POINT('',(55.3500007748604,-34.0000005066395,9.495));
#1586=CARTESIAN_POINT('Origin',(52.0000007748604,-34.0000005066395,8.995));
#1587=CARTESIAN_POINT('Origin',(52.0000007748604,-34.0000005066395,8.995));
#1588=CARTESIAN_POINT('',(54.3500007748604,-34.0000005066395,8.995));
#1589=CARTESIAN_POINT('Origin',(52.0000007748604,-34.0000005066395,8.995));
#1590=CARTESIAN_POINT('Origin',(53.0000007897615,27.0000004023314,9.495));
#1591=CARTESIAN_POINT('',(56.3500007897615,27.0000004023314,8.995));
#1592=CARTESIAN_POINT('',(56.3500007897615,27.0000004023314,9.495));
#1593=CARTESIAN_POINT('Origin',(53.0000007897615,27.0000004023314,8.995));
#1594=CARTESIAN_POINT('Origin',(53.0000007897615,27.0000004023314,8.995));
#1595=CARTESIAN_POINT('',(55.3500007897615,27.0000004023314,8.995));
#1596=CARTESIAN_POINT('Origin',(53.0000007897615,27.0000004023314,8.995));
#1597=CARTESIAN_POINT('Origin',(-53.0000007897615,27.0000004023314,6.495));
#1598=CARTESIAN_POINT('',(-50.6500007897615,27.0000004023314,6.495));
#1599=CARTESIAN_POINT('Origin',(52.0000007748604,-34.0000005066395,6.495));
#1600=CARTESIAN_POINT('',(54.3500007748604,-34.0000005066395,6.495));
#1601=CARTESIAN_POINT('Origin',(53.0000007897615,27.0000004023314,6.495));
#1602=CARTESIAN_POINT('',(55.3500007897615,27.0000004023314,6.495));
#1603=CARTESIAN_POINT('Origin',(-50.0000007450581,-34.0000005066395,6.495));
#1604=CARTESIAN_POINT('',(-47.6500007450581,-34.0000005066395,6.495));
#1605=CARTESIAN_POINT('Origin',(-57.5,29.5,6.495));
#1606=CARTESIAN_POINT('',(-57.5,-39.5,6.495));
#1607=CARTESIAN_POINT('Origin',(57.5,-39.5,6.495));
#1608=CARTESIAN_POINT('',(57.5,-39.5,6.495));
#1609=CARTESIAN_POINT('Origin',(-4.00603356931263,18.,5.745));
#1610=CARTESIAN_POINT('',(-15.0068617718237,18.,4.995));
#1611=CARTESIAN_POINT('',(6.99479463319849,18.,4.995));
#1612=CARTESIAN_POINT('',(-2.00301678465631,18.,4.995));
#1613=CARTESIAN_POINT('',(-15.0068617718237,18.,6.495));
#1614=CARTESIAN_POINT('',(6.99479463319849,18.,6.495));
#1615=CARTESIAN_POINT('Origin',(-15.0068617718237,25.,6.495));
#1616=CARTESIAN_POINT('',(-15.0068617718237,25.,4.995));
#1617=CARTESIAN_POINT('',(-15.0068617718237,25.,6.495));
#1618=CARTESIAN_POINT('',(-15.0068617718237,9.51430467538533,4.995));
#1619=CARTESIAN_POINT('Origin',(6.99479463319849,25.,4.995));
#1620=CARTESIAN_POINT('',(6.99479463319849,25.,4.995));
#1621=CARTESIAN_POINT('',(6.99479463319848,25.,5.745));
#1622=CARTESIAN_POINT('',(6.99479463319849,9.51430467538533,4.995));
#1623=CARTESIAN_POINT('Origin',(-49.5,25.,6.495));
#1624=CARTESIAN_POINT('',(-49.5,25.,4.995));
#1625=CARTESIAN_POINT('',(-49.5,25.,4.995));
#1626=CARTESIAN_POINT('',(-49.5,25.,6.495));
#1627=CARTESIAN_POINT('Origin',(-49.5,25.,6.495));
#1628=CARTESIAN_POINT('',(49.5,25.,4.995));
#1629=CARTESIAN_POINT('',(49.5,25.,6.495));
#1630=CARTESIAN_POINT('',(-49.5,25.,4.995));
#1631=CARTESIAN_POINT('Origin',(38.4751875815604,-23.,6.495));
#1632=CARTESIAN_POINT('',(38.4751875815604,-36.9427812984587,4.995));
#1633=CARTESIAN_POINT('',(38.4751875815604,-36.9427812984587,6.495));
#1634=CARTESIAN_POINT('',(38.4751875815604,-23.,4.995));
#1635=CARTESIAN_POINT('',(38.4751875815604,-23.,4.995));
#1636=CARTESIAN_POINT('',(38.4751875815604,-23.,6.495));
#1637=CARTESIAN_POINT('Origin',(49.5,-23.,6.495));
#1638=CARTESIAN_POINT('',(49.5,-23.,4.995));
#1639=CARTESIAN_POINT('',(49.5,-23.,4.995));
#1640=CARTESIAN_POINT('',(49.5,-23.,6.495));
#1641=CARTESIAN_POINT('Origin',(49.5,25.,6.495));
#1642=CARTESIAN_POINT('',(49.5,25.,4.995));
#1643=CARTESIAN_POINT('Origin',(-49.5,-23.,6.495));
#1644=CARTESIAN_POINT('',(-49.5,-23.,4.995));
#1645=CARTESIAN_POINT('',(-49.5,-23.,4.995));
#1646=CARTESIAN_POINT('',(-49.5,-23.,6.495));
#1647=CARTESIAN_POINT('Origin',(31.4010993610349,-23.,6.495));
#1648=CARTESIAN_POINT('',(31.4010993610349,-23.,4.995));
#1649=CARTESIAN_POINT('',(31.4010993610349,-23.,4.995));
#1650=CARTESIAN_POINT('',(31.4010993610349,-23.,6.495));
#1651=CARTESIAN_POINT('Origin',(31.4010993610349,-32.0000004768372,6.495));
#1652=CARTESIAN_POINT('',(31.4010993610349,-32.0000004768372,4.995));
#1653=CARTESIAN_POINT('',(31.4010993610349,-32.0000004768372,4.995));
#1654=CARTESIAN_POINT('',(31.4010993610349,-32.0000004768372,6.495));
#1655=CARTESIAN_POINT('Origin',(-36.9890125066041,-32.0000004768372,6.495));
#1656=CARTESIAN_POINT('',(-36.9890125066041,-32.0000004768372,4.995));
#1657=CARTESIAN_POINT('',(-36.9890125066041,-32.0000004768372,4.995));
#1658=CARTESIAN_POINT('',(-36.9890125066041,-32.0000004768372,6.495));
#1659=CARTESIAN_POINT('Origin',(-36.9890125066041,-36.9425625969175,6.495));
#1660=CARTESIAN_POINT('',(-36.9890125066041,-36.9425625969175,4.995));
#1661=CARTESIAN_POINT('',(-36.9890125066041,-36.9425625969175,4.995));
#1662=CARTESIAN_POINT('',(-36.9890125066041,-36.9425625969175,6.495));
#1663=CARTESIAN_POINT('Origin',(31.4010993610349,-36.9425625969174,6.495));
#1664=CARTESIAN_POINT('',(31.4010993610349,-36.9425625969174,4.995));
#1665=CARTESIAN_POINT('',(31.4010993610349,-36.9425625969174,4.995));
#1666=CARTESIAN_POINT('',(31.4010993610349,-36.9425625969174,6.495));
#1667=CARTESIAN_POINT('Origin',(31.4010993610349,-36.9427812984587,6.495));
#1668=CARTESIAN_POINT('',(31.4010993610349,-36.9427812984587,4.995));
#1669=CARTESIAN_POINT('',(31.4010993610349,-36.9427812984587,4.995));
#1670=CARTESIAN_POINT('',(31.4010993610349,-36.9427812984587,6.495));
#1671=CARTESIAN_POINT('Origin',(38.4751875815604,-36.9427812984587,6.495));
#1672=CARTESIAN_POINT('',(38.4751875815604,-36.9427812984587,4.995));
#1673=CARTESIAN_POINT('Origin',(8.88178419700125E-15,-5.97139064922934,
4.995));
#1674=CARTESIAN_POINT('Origin',(-56.,-39.5,6.495));
#1675=UNCERTAINTY_MEASURE_WITH_UNIT(LENGTH_MEASURE(0.01),#1679,
'DISTANCE_ACCURACY_VALUE',
'Maximum model space distance between geometric entities at asserted c
onnectivities');
#1676=UNCERTAINTY_MEASURE_WITH_UNIT(LENGTH_MEASURE(0.01),#1679,
'DISTANCE_ACCURACY_VALUE',
'Maximum model space distance between geometric entities at asserted c
onnectivities');
#1677=(
GEOMETRIC_REPRESENTATION_CONTEXT(3)
GLOBAL_UNCERTAINTY_ASSIGNED_CONTEXT((#1675))
GLOBAL_UNIT_ASSIGNED_CONTEXT((#1679,#1680,#1681))
REPRESENTATION_CONTEXT('','3D')
);
#1678=(
GEOMETRIC_REPRESENTATION_CONTEXT(3)
GLOBAL_UNCERTAINTY_ASSIGNED_CONTEXT((#1676))
GLOBAL_UNIT_ASSIGNED_CONTEXT((#1679,#1680,#1681))
REPRESENTATION_CONTEXT('','3D')
);
#1679=(
LENGTH_UNIT()
NAMED_UNIT(*)
SI_UNIT(.MILLI.,.METRE.)
);
#1680=(
NAMED_UNIT(*)
PLANE_ANGLE_UNIT()
SI_UNIT($,.RADIAN.)
);
#1681=(
NAMED_UNIT(*)
SI_UNIT($,.STERADIAN.)
SOLID_ANGLE_UNIT()
);
#1682=SHAPE_DEFINITION_REPRESENTATION(#1683,#1684);
#1683=PRODUCT_DEFINITION_SHAPE('',$,#1686);
#1684=SHAPE_REPRESENTATION('',(#1051),#1677);
#1685=PRODUCT_DEFINITION_CONTEXT('part definition',#1690,'design');
#1686=PRODUCT_DEFINITION('my-alarm-clock 1','my-alarm-clock-2',#1687,#1685);
#1687=PRODUCT_DEFINITION_FORMATION('',$,#1692);
#1688=PRODUCT_RELATED_PRODUCT_CATEGORY('my-alarm-clock-2',
'my-alarm-clock-2',(#1692));
#1689=APPLICATION_PROTOCOL_DEFINITION('international standard',
'automotive_design',2009,#1690);
#1690=APPLICATION_CONTEXT(
'Core Data for Automotive Mechanical Design Process');
#1691=PRODUCT_CONTEXT('part definition',#1690,'mechanical');
#1692=PRODUCT('my-alarm-clock 1','my-alarm-clock-2',
'KiCad electronic assembly',(#1691));
#1693=PRESENTATION_STYLE_ASSIGNMENT((#1694));
#1694=SURFACE_STYLE_USAGE(.BOTH.,#1695);
#1695=SURFACE_SIDE_STYLE('',(#1696));
#1696=SURFACE_STYLE_FILL_AREA(#1697);
#1697=FILL_AREA_STYLE('Stal \X2\2014\X0\ satynowa',(#1698));
#1698=FILL_AREA_STYLE_COLOUR('Stal \X2\2014\X0\ satynowa',#1699);
#1699=COLOUR_RGB('Stal \X2\2014\X0\ satynowa',0.627450980392157,0.627450980392157,
0.627450980392157);
ENDSEC;
END-ISO-10303-21;
